<svg xmlns="http://www.w3.org/2000/svg" xmlns:xlink="http://www.w3.org/1999/xlink" width="644" height="132" viewBox="0 0 644 132">
  <defs>
    <rect id="dashboard-b" width="204" height="116"/>
    <filter id="dashboard-a" width="113.7%" height="124.1%" x="-6.9%" y="-8.6%" filterUnits="objectBoundingBox">
      <feMorphology in="SourceAlpha" radius="1" result="shadowSpreadOuter1"/>
      <feOffset dy="4" in="shadowSpreadOuter1" result="shadowOffsetOuter1"/>
      <feGaussianBlur in="shadowOffsetOuter1" result="shadowBlurOuter1" stdDeviation="5"/>
      <feColorMatrix in="shadowBlurOuter1" values="0 0 0 0 0   0 0 0 0 0   0 0 0 0 0  0 0 0 0.2 0"/>
    </filter>
    <rect id="dashboard-d" width="204" height="116" x="212"/>
    <filter id="dashboard-c" width="113.7%" height="124.1%" x="-6.9%" y="-8.6%" filterUnits="objectBoundingBox">
      <feMorphology in="SourceAlpha" radius="1" result="shadowSpreadOuter1"/>
      <feOffset dy="4" in="shadowSpreadOuter1" result="shadowOffsetOuter1"/>
      <feGaussianBlur in="shadowOffsetOuter1" result="shadowBlurOuter1" stdDeviation="5"/>
      <feColorMatrix in="shadowBlurOuter1" values="0 0 0 0 0   0 0 0 0 0   0 0 0 0 0  0 0 0 0.2 0"/>
    </filter>
    <rect id="dashboard-f" width="204" height="116" x="424"/>
    <filter id="dashboard-e" width="113.7%" height="124.1%" x="-6.9%" y="-8.6%" filterUnits="objectBoundingBox">
      <feMorphology in="SourceAlpha" radius="1" result="shadowSpreadOuter1"/>
      <feOffset dy="4" in="shadowSpreadOuter1" result="shadowOffsetOuter1"/>
      <feGaussianBlur in="shadowOffsetOuter1" result="shadowBlurOuter1" stdDeviation="5"/>
      <feColorMatrix in="shadowBlurOuter1" values="0 0 0 0 0   0 0 0 0 0   0 0 0 0 0  0 0 0 0.2 0"/>
    </filter>
  </defs>
  <g fill="none" fill-rule="evenodd" transform="translate(8 4)">
    <g fill-rule="nonzero">
      <use fill="#000" filter="url(#dashboard-a)" xlink:href="#dashboard-b"/>
      <use fill="#FFF" xlink:href="#dashboard-b"/>
    </g>
    <g fill-rule="nonzero">
      <use fill="#000" filter="url(#dashboard-c)" xlink:href="#dashboard-d"/>
      <use fill="#FFF" xlink:href="#dashboard-d"/>
    </g>
    <path fill="#223D54" d="M46.2451172 64L22.9541016 64 22.9541016 60.7529297 35.2587891 47.0810547C37.0817148 45.0139871 38.3390265 43.3335026 39.0307617 42.0395508 39.7224969 40.745599 40.0683594 39.406908 40.0683594 38.0234375 40.0683594 36.1679595 39.5068416 34.6461648 38.3837891 33.4580078 37.2607366 32.2698508 35.7633557 31.6757812 33.8916016 31.6757812 31.6454966 31.6757812 29.8999086 32.3146095 28.6547852 33.5922852 27.4096617 34.8699608 26.7871094 36.6481006 26.7871094 38.9267578L22.2705078 38.9267578C22.2705078 35.6552571 23.324371 33.0104268 25.4321289 30.9921875 27.5398868 28.9739482 30.3596829 27.9648438 33.8916016 27.9648438 37.1956545 27.9648438 39.8079331 28.8315343 41.7285156 30.5649414 43.6490981 32.2983485 44.609375 34.6054543 44.609375 37.4863281 44.609375 40.9856946 42.3795796 45.1523196 37.9199219 49.9863281L28.3984375 60.3134766 46.2451172 60.3134766 46.2451172 64zM68.7548828 28.4287109L68.7548828 32.2617188 67.9248047 32.2617188C64.4091621 32.3268232 61.6097109 33.3684795 59.5263672 35.3867188 57.4430234 37.404958 56.2386084 40.2450989 55.9130859 43.9072266 57.7848401 41.7587783 60.3401531 40.6845703 63.5791016 40.6845703 66.6715649 40.6845703 69.1414296 41.7750542 70.9887695 43.9560547 72.8361095 46.1370552 73.7597656 48.9527822 73.7597656 52.4033203 73.7597656 56.065448 72.762868 58.9951062 70.769043 61.1923828 68.7752179 63.3896594 66.1019048 64.4882812 62.7490234 64.4882812 59.3473137 64.4882812 56.5885522 63.182142 54.4726562 60.5698242 52.3567603 57.9575065 51.2988281 54.5924685 51.2988281 50.4746094L51.2988281 48.7412109C51.2988281 42.1982095 52.6944847 37.1974457 55.4858398 33.7387695 58.2771949 30.2800934 62.431613 28.5100916 67.9492188 28.4287109L68.7548828 28.4287109zM62.8222656 44.4443359C61.2760339 44.4443359 59.8518945 44.9081985 58.5498047 45.8359375 57.2477148 46.7636765 56.3444036 47.9274019 55.8398438 49.3271484L55.8398438 50.9873047C55.8398438 53.9170068 56.4990168 56.2770093 57.8173828 58.0673828 59.1357488 59.8577563 60.7796125 60.7529297 62.7490234 60.7529297 64.7835388 60.7529297 66.3826439 60.0042393 67.5463867 58.5068359 68.7101295 57.0094326 69.2919922 55.0481892 69.2919922 52.6230469 69.2919922 50.1816284 68.7019916 48.2081781 67.5219727 46.7026367 66.3419537 45.1970953 64.7754004 44.4443359 62.8222656 44.4443359zM258.021484 52.0615234L262.953125 52.0615234 262.953125 55.7480469 258.021484 55.7480469 258.021484 64 253.480469 64 253.480469 55.7480469 237.293945 55.7480469 237.293945 53.0869141 253.211914 28.453125 258.021484 28.453125 258.021484 52.0615234zM242.420898 52.0615234L253.480469 52.0615234 253.480469 34.6298828 252.943359 35.6064453 242.420898 52.0615234zM290.321289 64L267.030273 64 267.030273 60.7529297 279.334961 47.0810547C281.157887 45.0139871 282.415198 43.3335026 283.106934 42.0395508 283.798669 40.745599 284.144531 39.406908 284.144531 38.0234375 284.144531 36.1679595 283.583013 34.6461648 282.459961 33.4580078 281.336908 32.2698508 279.839528 31.6757812 277.967773 31.6757812 275.721668 31.6757812 273.97608 32.3146095 272.730957 33.5922852 271.485834 34.8699608 270.863281 36.6481006 270.863281 38.9267578L266.34668 38.9267578C266.34668 35.6552571 267.400543 33.0104268 269.508301 30.9921875 271.616059 28.9739482 274.435855 27.9648438 277.967773 27.9648438 281.271826 27.9648438 283.884105 28.8315343 285.804688 30.5649414 287.72527 32.2983485 288.685547 34.6054543 288.685547 37.4863281 288.685547 40.9856946 286.455751 45.1523196 281.996094 49.9863281L272.474609 60.3134766 290.321289 60.3134766 290.321289 64zM22.9379883 88.4873047L21.9873047 88.4873047 21.9873047 92 20.9560547 92 20.9560547 84.1796875 21.9873047 84.1796875 21.9873047 87.6279297 22.7929688 87.6279297 25.5268555 84.1796875 26.8105469 84.1796875 23.8242188 87.9716797 27.0307617 92 25.7685547 92 22.9379883 88.4873047zM27.4121094 89.0405273C27.4121094 88.4711886 27.524006 87.9591494 27.7478027 87.5043945 27.9715994 87.0496397 28.2831197 86.6987317 28.682373 86.4516602 29.0816263 86.2045886 29.5372696 86.0810547 30.0493164 86.0810547 30.8406615 86.0810547 31.4807104 86.3549777 31.9694824 86.902832 32.4582544 87.4506863 32.7026367 88.1793574 32.7026367 89.0888672L32.7026367 89.1586914C32.7026367 89.7244494 32.5943207 90.2320127 32.3776855 90.6813965 32.1610503 91.1307802 31.8513204 91.480793 31.4484863 91.7314453 31.0456523 91.9820976 30.5828477 92.1074219 30.0600586 92.1074219 29.2722942 92.1074219 28.6340356 91.8334988 28.1452637 91.2856445 27.6564917 90.7377902 27.4121094 90.0126998 27.4121094 89.1103516L27.4121094 89.0405273zM28.4111328 89.1586914C28.4111328 89.8032259 28.5606268 90.3206361 28.8596191 90.7109375 29.1586115 91.1012389 29.558754 91.2963867 30.0600586 91.2963867 30.5649439 91.2963867 30.9659816 91.0985534 31.2631836 90.7028809 31.5603856 90.3072083 31.7089844 89.753096 31.7089844 89.0405273 31.7089844 88.4031544 31.5577001 87.8866393 31.255127 87.4909668 30.9525538 87.0952942 30.550621 86.8974609 30.0493164 86.8974609 29.5587541 86.8974609 29.1630874 87.0926087 28.8623047 87.4829102 28.5615219 87.8732116 28.4111328 88.4317998 28.4111328 89.1586914zM37.2949219 90.684082L39.2714844 86.1884766 40.512207 86.1884766 40.512207 92 39.5185547 92 39.5185547 87.7729492 37.6386719 92 36.9511719 92 35.0336914 87.6816406 35.0336914 92 34.0400391 92 34.0400391 86.1884766 35.3291016 86.1884766 37.2949219 90.684082zM46.8608398 92L45.8671875 92 45.8671875 87.0102539 43.1923828 87.0102539 43.1923828 92 42.1933594 92 42.1933594 86.1884766 46.8608398 86.1884766 46.8608398 92zM52.0439453 92C51.9866534 91.8854161 51.9401043 91.6813166 51.9042969 91.3876953 51.4423805 91.8675154 50.8909537 92.1074219 50.25 92.1074219 49.6770805 92.1074219 49.2071145 91.9453955 48.8400879 91.6213379 48.4730613 91.2972803 48.2895508 90.8863957 48.2895508 90.3886719 48.2895508 89.7835256 48.5196103 89.3135596 48.9797363 88.9787598 49.4398623 88.6439599 50.0870727 88.4765625 50.9213867 88.4765625L51.8881836 88.4765625 51.8881836 88.0200195C51.8881836 87.6726871 51.7843435 87.3960785 51.5766602 87.1901855 51.3689768 86.9842926 51.0628275 86.8813477 50.6582031 86.8813477 50.3037092 86.8813477 50.0065116 86.970865 49.7666016 87.1499023 49.5266915 87.3289397 49.4067383 87.5455716 49.4067383 87.7998047L48.4077148 87.7998047C48.4077148 87.5097642 48.5106598 87.2295749 48.7165527 86.9592285 48.9224457 86.6888821 49.2017398 86.4749357 49.5544434 86.3173828 49.9071469 86.1598299 50.294757 86.0810547 50.7172852 86.0810547 51.3868849 86.0810547 51.9114564 86.2484521 52.2910156 86.583252 52.6705748 86.9180518 52.8675129 87.3790661 52.8818359 87.9663086L52.8818359 90.6411133C52.8818359 91.1746446 52.9498691 91.5989568 53.0859375 91.9140625L53.0859375 92 52.0439453 92zM50.3950195 91.2426758C50.7065445 91.2426758 51.0019517 91.1621102 51.28125 91.0009766 51.5605483 90.8398429 51.7628574 90.6303724 51.8881836 90.3725586L51.8881836 89.1801758 51.109375 89.1801758C49.891921 89.1801758 49.2832031 89.5364548 49.2832031 90.2490234 49.2832031 90.5605484 49.3870432 90.8040356 49.5947266 90.9794922 49.8024099 91.1549488 50.0691715 91.2426758 50.3950195 91.2426758zM59.1875 92L58.1938477 92 58.1938477 89.5185547 55.5244141 89.5185547 55.5244141 92 54.5253906 92 54.5253906 86.1884766 55.5244141 86.1884766 55.5244141 88.7075195 58.1938477 88.7075195 58.1938477 86.1884766 59.1875 86.1884766 59.1875 92zM64.5424805 86.1884766L65.5361328 86.1884766 65.5361328 92 64.5424805 92 64.5424805 87.762207 61.8623047 92 60.8686523 92 60.8686523 86.1884766 61.8623047 86.1884766 61.8623047 90.4316406 64.5424805 86.1884766zM70.8911133 86.1884766L71.8847656 86.1884766 71.8847656 92 70.8911133 92 70.8911133 87.762207 68.2109375 92 67.2172852 92 67.2172852 86.1884766 68.2109375 86.1884766 68.2109375 90.4316406 70.8911133 86.1884766zM71.159668 84.0722656C71.159668 84.505536 71.0119644 84.8537584 70.7165527 85.1169434 70.4211411 85.3801283 70.033531 85.5117188 69.5537109 85.5117188 69.0738908 85.5117188 68.6853856 85.3792331 68.3881836 85.1142578 68.0909816 84.8492825 67.9423828 84.5019553 67.9423828 84.0722656L68.753418 84.0722656C68.753418 84.3229179 68.8214511 84.5189609 68.9575195 84.6604004 69.0935879 84.8018399 69.2923164 84.8725586 69.5537109 84.8725586 69.8043632 84.8725586 70.0004062 84.8027351 70.1418457 84.6630859 70.2832852 84.5234368 70.3540039 84.3264987 70.3540039 84.0722656L71.159668 84.0722656zM241.226074 89.9589844L237.949707 89.9589844 237.213867 92 236.150391 92 239.136719 84.1796875 240.039062 84.1796875 243.030762 92 241.972656 92 241.226074 89.9589844zM238.26123 89.1103516L240.919922 89.1103516 239.587891 85.4526367 238.26123 89.1103516zM245.737793 89.5239258L245.012695 89.5239258 245.012695 92 244.013672 92 244.013672 86.1884766 245.012695 86.1884766 245.012695 88.6484375 245.662598 88.6484375 247.617676 86.1884766 248.820801 86.1884766 246.521973 88.9814453 249.01416 92 247.751953 92 245.737793 89.5239258zM254.186523 86.9941406L252.236816 86.9941406 252.236816 92 251.243164 92 251.243164 86.9941406 249.331055 86.9941406 249.331055 86.1884766 254.186523 86.1884766 254.186523 86.9941406zM258.913086 86.1884766L259.906738 86.1884766 259.906738 92 258.913086 92 258.913086 87.762207 256.23291 92 255.239258 92 255.239258 86.1884766 256.23291 86.1884766 256.23291 90.4316406 258.913086 86.1884766zM261.593262 92L261.593262 86.1884766 263.859863 86.1884766C264.633305 86.1884766 265.226805 86.3236477 265.640381 86.5939941 266.053957 86.8643405 266.260742 87.2609023 266.260742 87.7836914 266.260742 88.0522474 266.180177 88.2948394 266.019043 88.5114746 265.857909 88.7281098 265.619793 88.8937169 265.304688 89.0083008 265.655601 89.090658 265.93758 89.2517892 266.150635 89.4916992 266.363689 89.7316093 266.470215 90.0180647 266.470215 90.3510742 266.470215 90.8846055 266.274172 91.2928046 265.88208 91.5756836 265.489988 91.8585626 264.935876 92 264.219727 92L261.593262 92zM262.586914 89.4487305L262.586914 91.199707 264.230469 91.199707C264.645835 91.199707 264.956461 91.1227221 265.162354 90.96875 265.368246 90.8147779 265.471191 90.5981459 265.471191 90.3188477 265.471191 89.7387666 265.045089 89.4487305 264.192871 89.4487305L262.586914 89.4487305zM262.586914 88.6538086L263.870605 88.6538086C264.8016 88.6538086 265.26709 88.3816759 265.26709 87.8374023 265.26709 87.2931288 264.826665 87.0120444 263.945801 86.9941406L262.586914 86.9941406 262.586914 88.6538086zM272.53418 92L271.540527 92 271.540527 89.5185547 268.871094 89.5185547 268.871094 92 267.87207 92 267.87207 86.1884766 268.871094 86.1884766 268.871094 88.7075195 271.540527 88.7075195 271.540527 86.1884766 272.53418 86.1884766 272.53418 92zM275.214355 88.1918945L276.723633 88.1918945C277.38249 88.199056 277.903481 88.3709293 278.286621 88.7075195 278.669761 89.0441098 278.861328 89.5006482 278.861328 90.0771484 278.861328 90.6572295 278.66439 91.1227196 278.270508 91.4736328 277.876626 91.824546 277.346683 92 276.680664 92L274.220703 92 274.220703 86.1884766 275.214355 86.1884766 275.214355 88.1918945zM280.93457 92L279.935547 92 279.935547 86.1884766 280.93457 86.1884766 280.93457 92zM275.214355 89.0029297L275.214355 91.1889648 276.691406 91.1889648C277.063804 91.1889648 277.35205 91.0931813 277.556152 90.9016113 277.760255 90.7100414 277.862305 90.4477556 277.862305 90.1147461 277.862305 89.7924789 277.76294 89.5284027 277.564209 89.3225098 277.365478 89.1166168 277.087079 89.0100912 276.729004 89.0029297L275.214355 89.0029297zM284.619141 88.3100586L285.908203 86.1884766 287.068359 86.1884766 285.166992 89.0620117 287.127441 92 285.978027 92 284.635254 89.824707 283.29248 92 282.137695 92 284.098145 89.0620117 282.196777 86.1884766 283.346191 86.1884766 284.619141 88.3100586zM295.597656 92L294.604004 92 294.604004 87.0102539 291.929199 87.0102539 291.929199 92 290.930176 92 290.930176 86.1884766 295.597656 86.1884766 295.597656 92zM302.102051 89.1586914C302.102051 90.0431359 301.899742 90.7556939 301.495117 91.2963867 301.090493 91.8370795 300.542647 92.1074219 299.851562 92.1074219 299.146155 92.1074219 298.591148 91.8836285 298.186523 91.4360352L298.186523 94.234375 297.192871 94.234375 297.192871 86.1884766 298.100586 86.1884766 298.148926 86.8330078C298.55355 86.3317032 299.115719 86.0810547 299.835449 86.0810547 300.533695 86.0810547 301.086017 86.3442356 301.492432 86.8706055 301.898846 87.3969753 302.102051 88.1292271 302.102051 89.0673828L302.102051 89.1586914zM301.108398 89.0458984C301.108398 88.3906217 300.968751 87.8732115 300.689453 87.4936523 300.410155 87.1140932 300.027021 86.9243164 299.540039 86.9243164 298.938474 86.9243164 298.487306 87.1910781 298.186523 87.7246094L298.186523 90.5014648C298.483725 91.0314154 298.938474 91.2963867 299.550781 91.2963867 300.027021 91.2963867 300.405679 91.1075051 300.686768 90.7297363 300.967856 90.3519675 301.108398 89.7906938 301.108398 89.0458984zM303.101074 89.0405273C303.101074 88.4711886 303.212971 87.9591494 303.436768 87.5043945 303.660564 87.0496397 303.972085 86.6987317 304.371338 86.4516602 304.770591 86.2045886 305.226234 86.0810547 305.738281 86.0810547 306.529626 86.0810547 307.169675 86.3549777 307.658447 86.902832 308.147219 87.4506863 308.391602 88.1793574 308.391602 89.0888672L308.391602 89.1586914C308.391602 89.7244494 308.283286 90.2320127 308.06665 90.6813965 307.850015 91.1307802 307.540285 91.480793 307.137451 91.7314453 306.734617 91.9820976 306.271813 92.1074219 305.749023 92.1074219 304.961259 92.1074219 304.323 91.8334988 303.834229 91.2856445 303.345457 90.7377902 303.101074 90.0126998 303.101074 89.1103516L303.101074 89.0405273zM304.100098 89.1586914C304.100098 89.8032259 304.249592 90.3206361 304.548584 90.7109375 304.847576 91.1012389 305.247719 91.2963867 305.749023 91.2963867 306.253909 91.2963867 306.654946 91.0985534 306.952148 90.7028809 307.24935 90.3072083 307.397949 89.753096 307.397949 89.0405273 307.397949 88.4031544 307.246665 87.8866393 306.944092 87.4909668 306.641519 87.0952942 306.239586 86.8974609 305.738281 86.8974609 305.247719 86.8974609 304.852052 87.0926087 304.55127 87.4829102 304.250487 87.8732116 304.100098 88.4317998 304.100098 89.1586914zM312.049316 92.1074219C311.261552 92.1074219 310.620608 91.8487168 310.126465 91.3312988 309.632322 90.8138809 309.385254 90.1219119 309.385254 89.2553711L309.385254 89.0727539C309.385254 88.4962536 309.49536 87.981529 309.715576 87.5285645 309.935792 87.0755999 310.243732 86.7211113 310.639404 86.4650879 311.035077 86.2090645 311.463865 86.0810547 311.925781 86.0810547 312.681319 86.0810547 313.268553 86.3299129 313.6875 86.8276367 314.106447 87.3253606 314.315918 88.0379185 314.315918 88.965332L314.315918 89.3789062 310.378906 89.3789062C310.393229 89.9518258 310.560627 90.4146304 310.881104 90.767334 311.20158 91.1200376 311.608884 91.2963867 312.103027 91.2963867 312.453941 91.2963867 312.751138 91.2247729 312.994629 91.081543 313.23812 90.9383131 313.451171 90.7485363 313.633789 90.512207L314.240723 90.9848633C313.753741 91.7332394 313.02328 92.1074219 312.049316 92.1074219zM311.925781 86.8974609C311.524738 86.8974609 311.188152 87.0433742 310.916016 87.3352051 310.643879 87.627036 310.475586 88.0361302 310.411133 88.5625L313.322266 88.5625 313.322266 88.4873047C313.29362 87.9824194 313.157553 87.5912286 312.914062 87.3137207 312.670572 87.0362128 312.341148 86.8974609 311.925781 86.8974609zM317.275391 89.5239258L316.550293 89.5239258 316.550293 92 315.55127 92 315.55127 86.1884766 316.550293 86.1884766 316.550293 88.6484375 317.200195 88.6484375 319.155273 86.1884766 320.358398 86.1884766 318.05957 88.9814453 320.551758 92 319.289551 92 317.275391 89.5239258zM325.724121 86.9941406L323.774414 86.9941406 323.774414 92 322.780762 92 322.780762 86.9941406 320.868652 86.9941406 320.868652 86.1884766 325.724121 86.1884766 325.724121 86.9941406zM330.192871 92C330.135579 91.8854161 330.08903 91.6813166 330.053223 91.3876953 329.591306 91.8675154 329.03988 92.1074219 328.398926 92.1074219 327.826006 92.1074219 327.35604 91.9453955 326.989014 91.6213379 326.621987 91.2972803 326.438477 90.8863957 326.438477 90.3886719 326.438477 89.7835256 326.668536 89.3135596 327.128662 88.9787598 327.588788 88.6439599 328.235998 88.4765625 329.070312 88.4765625L330.037109 88.4765625 330.037109 88.0200195C330.037109 87.6726871 329.933269 87.3960785 329.725586 87.1901855 329.517903 86.9842926 329.211753 86.8813477 328.807129 86.8813477 328.452635 86.8813477 328.155437 86.970865 327.915527 87.1499023 327.675617 87.3289397 327.555664 87.5455716 327.555664 87.7998047L326.556641 87.7998047C326.556641 87.5097642 326.659586 87.2295749 326.865479 86.9592285 327.071371 86.6888821 327.350666 86.4749357 327.703369 86.3173828 328.056073 86.1598299 328.443683 86.0810547 328.866211 86.0810547 329.535811 86.0810547 330.060382 86.2484521 330.439941 86.583252 330.819501 86.9180518 331.016439 87.3790661 331.030762 87.9663086L331.030762 90.6411133C331.030762 91.1746446 331.098795 91.5989568 331.234863 91.9140625L331.234863 92 330.192871 92zM328.543945 91.2426758C328.85547 91.2426758 329.150878 91.1621102 329.430176 91.0009766 329.709474 90.8398429 329.911783 90.6303724 330.037109 90.3725586L330.037109 89.1801758 329.258301 89.1801758C328.040847 89.1801758 327.432129 89.5364548 327.432129 90.2490234 327.432129 90.5605484 327.535969 90.8040356 327.743652 90.9794922 327.951336 91.1549488 328.218097 91.2426758 328.543945 91.2426758z"/>
    <g fill-rule="nonzero">
      <use fill="#000" filter="url(#dashboard-e)" xlink:href="#dashboard-f"/>
      <use fill="#FFF" xlink:href="#dashboard-f"/>
    </g>
    <path fill="#223D54" d="M461.797852 64L457.256836 64 457.256836 33.8974609 448.150391 37.2421875 448.150391 33.140625 461.089844 28.2822266 461.797852 28.2822266 461.797852 64zM498.321289 64L475.030273 64 475.030273 60.7529297 487.334961 47.0810547C489.157887 45.0139871 490.415198 43.3335026 491.106934 42.0395508 491.798669 40.745599 492.144531 39.406908 492.144531 38.0234375 492.144531 36.1679595 491.583013 34.6461648 490.459961 33.4580078 489.336908 32.2698508 487.839528 31.6757812 485.967773 31.6757812 483.721668 31.6757812 481.97608 32.3146095 480.730957 33.5922852 479.485834 34.8699608 478.863281 36.6481006 478.863281 38.9267578L474.34668 38.9267578C474.34668 35.6552571 475.400543 33.0104268 477.508301 30.9921875 479.616059 28.9739482 482.435855 27.9648438 485.967773 27.9648438 489.271826 27.9648438 491.884105 28.8315343 493.804688 30.5649414 495.72527 32.2983485 496.685547 34.6054543 496.685547 37.4863281 496.685547 40.9856946 494.455751 45.1523196 489.996094 49.9863281L480.474609 60.3134766 498.321289 60.3134766 498.321289 64zM520.831055 28.4287109L520.831055 32.2617188 520.000977 32.2617188C516.485334 32.3268232 513.685883 33.3684795 511.602539 35.3867188 509.519195 37.404958 508.31478 40.2450989 507.989258 43.9072266 509.861012 41.7587783 512.416325 40.6845703 515.655273 40.6845703 518.747737 40.6845703 521.217601 41.7750542 523.064941 43.9560547 524.912281 46.1370552 525.835938 48.9527822 525.835938 52.4033203 525.835938 56.065448 524.83904 58.9951062 522.845215 61.1923828 520.85139 63.3896594 518.178077 64.4882812 514.825195 64.4882812 511.423486 64.4882812 508.664724 63.182142 506.548828 60.5698242 504.432932 57.9575065 503.375 54.5924685 503.375 50.4746094L503.375 48.7412109C503.375 42.1982095 504.770657 37.1974457 507.562012 33.7387695 510.353367 30.2800934 514.507785 28.5100916 520.025391 28.4287109L520.831055 28.4287109zM514.898438 44.4443359C513.352206 44.4443359 511.928066 44.9081985 510.625977 45.8359375 509.323887 46.7636765 508.420575 47.9274019 507.916016 49.3271484L507.916016 50.9873047C507.916016 53.9170068 508.575189 56.2770093 509.893555 58.0673828 511.211921 59.8577563 512.855784 60.7529297 514.825195 60.7529297 516.859711 60.7529297 518.458816 60.0042393 519.622559 58.5068359 520.786301 57.0094326 521.368164 55.0481892 521.368164 52.6230469 521.368164 50.1816284 520.778163 48.2081781 519.598145 46.7026367 518.418126 45.1970953 516.851572 44.4443359 514.898438 44.4443359zM454.880371 92L453.84375 92 453.84375 85.0283203 449.987305 85.0283203 449.987305 92 448.956055 92 448.956055 84.1796875 454.880371 84.1796875 454.880371 92zM461.508301 89.1586914C461.508301 90.0431359 461.305992 90.7556939 460.901367 91.2963867 460.496743 91.8370795 459.948897 92.1074219 459.257812 92.1074219 458.552405 92.1074219 457.997398 91.8836285 457.592773 91.4360352L457.592773 94.234375 456.599121 94.234375 456.599121 86.1884766 457.506836 86.1884766 457.555176 86.8330078C457.9598 86.3317032 458.521969 86.0810547 459.241699 86.0810547 459.939945 86.0810547 460.492267 86.3442356 460.898682 86.8706055 461.305096 87.3969753 461.508301 88.1292271 461.508301 89.0673828L461.508301 89.1586914zM460.514648 89.0458984C460.514648 88.3906217 460.375001 87.8732115 460.095703 87.4936523 459.816405 87.1140932 459.433271 86.9243164 458.946289 86.9243164 458.344724 86.9243164 457.893556 87.1910781 457.592773 87.7246094L457.592773 90.5014648C457.889975 91.0314154 458.344724 91.2963867 458.957031 91.2963867 459.433271 91.2963867 459.811929 91.1075051 460.093018 90.7297363 460.374106 90.3519675 460.514648 89.7906938 460.514648 89.0458984zM462.507324 89.0405273C462.507324 88.4711886 462.619221 87.9591494 462.843018 87.5043945 463.066814 87.0496397 463.378335 86.6987317 463.777588 86.4516602 464.176841 86.2045886 464.632484 86.0810547 465.144531 86.0810547 465.935876 86.0810547 466.575925 86.3549777 467.064697 86.902832 467.553469 87.4506863 467.797852 88.1793574 467.797852 89.0888672L467.797852 89.1586914C467.797852 89.7244494 467.689536 90.2320127 467.4729 90.6813965 467.256265 91.1307802 466.946535 91.480793 466.543701 91.7314453 466.140867 91.9820976 465.678063 92.1074219 465.155273 92.1074219 464.367509 92.1074219 463.72925 91.8334988 463.240479 91.2856445 462.751707 90.7377902 462.507324 90.0126998 462.507324 89.1103516L462.507324 89.0405273zM463.506348 89.1586914C463.506348 89.8032259 463.655842 90.3206361 463.954834 90.7109375 464.253826 91.1012389 464.653969 91.2963867 465.155273 91.2963867 465.660159 91.2963867 466.061196 91.0985534 466.358398 90.7028809 466.6556 90.3072083 466.804199 89.753096 466.804199 89.0405273 466.804199 88.4031544 466.652915 87.8866393 466.350342 87.4909668 466.047769 87.0952942 465.645836 86.8974609 465.144531 86.8974609 464.653969 86.8974609 464.258302 87.0926087 463.95752 87.4829102 463.656737 87.8732116 463.506348 88.4317998 463.506348 89.1586914zM471.455566 92.1074219C470.667802 92.1074219 470.026858 91.8487168 469.532715 91.3312988 469.038572 90.8138809 468.791504 90.1219119 468.791504 89.2553711L468.791504 89.0727539C468.791504 88.4962536 468.90161 87.981529 469.121826 87.5285645 469.342042 87.0755999 469.649982 86.7211113 470.045654 86.4650879 470.441327 86.2090645 470.870115 86.0810547 471.332031 86.0810547 472.087569 86.0810547 472.674803 86.3299129 473.09375 86.8276367 473.512697 87.3253606 473.722168 88.0379185 473.722168 88.965332L473.722168 89.3789062 469.785156 89.3789062C469.799479 89.9518258 469.966877 90.4146304 470.287354 90.767334 470.60783 91.1200376 471.015134 91.2963867 471.509277 91.2963867 471.860191 91.2963867 472.157388 91.2247729 472.400879 91.081543 472.64437 90.9383131 472.857421 90.7485363 473.040039 90.512207L473.646973 90.9848633C473.159991 91.7332394 472.42953 92.1074219 471.455566 92.1074219zM471.332031 86.8974609C470.930988 86.8974609 470.594402 87.0433742 470.322266 87.3352051 470.050129 87.627036 469.881836 88.0361302 469.817383 88.5625L472.728516 88.5625 472.728516 88.4873047C472.69987 87.9824194 472.563803 87.5912286 472.320312 87.3137207 472.076822 87.0362128 471.747398 86.8974609 471.332031 86.8974609zM476.681641 89.5239258L475.956543 89.5239258 475.956543 92 474.95752 92 474.95752 86.1884766 475.956543 86.1884766 475.956543 88.6484375 476.606445 88.6484375 478.561523 86.1884766 479.764648 86.1884766 477.46582 88.9814453 479.958008 92 478.695801 92 476.681641 89.5239258zM485.130371 86.9941406L483.180664 86.9941406 483.180664 92 482.187012 92 482.187012 86.9941406 480.274902 86.9941406 480.274902 86.1884766 485.130371 86.1884766 485.130371 86.9941406zM489.599121 92C489.541829 91.8854161 489.49528 91.6813166 489.459473 91.3876953 488.997556 91.8675154 488.44613 92.1074219 487.805176 92.1074219 487.232256 92.1074219 486.76229 91.9453955 486.395264 91.6213379 486.028237 91.2972803 485.844727 90.8863957 485.844727 90.3886719 485.844727 89.7835256 486.074786 89.3135596 486.534912 88.9787598 486.995038 88.6439599 487.642248 88.4765625 488.476562 88.4765625L489.443359 88.4765625 489.443359 88.0200195C489.443359 87.6726871 489.339519 87.3960785 489.131836 87.1901855 488.924153 86.9842926 488.618003 86.8813477 488.213379 86.8813477 487.858885 86.8813477 487.561687 86.970865 487.321777 87.1499023 487.081867 87.3289397 486.961914 87.5455716 486.961914 87.7998047L485.962891 87.7998047C485.962891 87.5097642 486.065836 87.2295749 486.271729 86.9592285 486.477621 86.6888821 486.756916 86.4749357 487.109619 86.3173828 487.462323 86.1598299 487.849933 86.0810547 488.272461 86.0810547 488.942061 86.0810547 489.466632 86.2484521 489.846191 86.583252 490.225751 86.9180518 490.422689 87.3790661 490.437012 87.9663086L490.437012 90.6411133C490.437012 91.1746446 490.505045 91.5989568 490.641113 91.9140625L490.641113 92 489.599121 92zM487.950195 91.2426758C488.26172 91.2426758 488.557128 91.1621102 488.836426 91.0009766 489.115724 90.8398429 489.318033 90.6303724 489.443359 90.3725586L489.443359 89.1801758 488.664551 89.1801758C487.447097 89.1801758 486.838379 89.5364548 486.838379 90.2490234 486.838379 90.5605484 486.942219 90.8040356 487.149902 90.9794922 487.357586 91.1549488 487.624347 91.2426758 487.950195 91.2426758zM494.809082 92L494.809082 86.1884766 497.075684 86.1884766C497.849125 86.1884766 498.442625 86.3236477 498.856201 86.5939941 499.269777 86.8643405 499.476562 87.2609023 499.476562 87.7836914 499.476562 88.0522474 499.395997 88.2948394 499.234863 88.5114746 499.07373 88.7281098 498.835614 88.8937169 498.520508 89.0083008 498.871421 89.090658 499.153401 89.2517892 499.366455 89.4916992 499.57951 89.7316093 499.686035 90.0180647 499.686035 90.3510742 499.686035 90.8846055 499.489992 91.2928046 499.0979 91.5756836 498.705809 91.8585626 498.151696 92 497.435547 92L494.809082 92zM495.802734 89.4487305L495.802734 91.199707 497.446289 91.199707C497.861656 91.199707 498.172281 91.1227221 498.378174 90.96875 498.584067 90.8147779 498.687012 90.5981459 498.687012 90.3188477 498.687012 89.7387666 498.260909 89.4487305 497.408691 89.4487305L495.802734 89.4487305zM495.802734 88.6538086L497.086426 88.6538086C498.01742 88.6538086 498.48291 88.3816759 498.48291 87.8374023 498.48291 87.2931288 498.042485 87.0120444 497.161621 86.9941406L495.802734 86.9941406 495.802734 88.6538086zM508.478516 92L507.484863 92 507.484863 87.0102539 504.810059 87.0102539 504.810059 92 503.811035 92 503.811035 86.1884766 508.478516 86.1884766 508.478516 92zM509.810547 89.0405273C509.810547 88.4711886 509.922444 87.9591494 510.14624 87.5043945 510.370037 87.0496397 510.681557 86.6987317 511.080811 86.4516602 511.480064 86.2045886 511.935707 86.0810547 512.447754 86.0810547 513.239099 86.0810547 513.879148 86.3549777 514.36792 86.902832 514.856692 87.4506863 515.101074 88.1793574 515.101074 89.0888672L515.101074 89.1586914C515.101074 89.7244494 514.992758 90.2320127 514.776123 90.6813965 514.559488 91.1307802 514.249758 91.480793 513.846924 91.7314453 513.44409 91.9820976 512.981285 92.1074219 512.458496 92.1074219 511.670732 92.1074219 511.032473 91.8334988 510.543701 91.2856445 510.054929 90.7377902 509.810547 90.0126998 509.810547 89.1103516L509.810547 89.0405273zM510.80957 89.1586914C510.80957 89.8032259 510.959064 90.3206361 511.258057 90.7109375 511.557049 91.1012389 511.957192 91.2963867 512.458496 91.2963867 512.963381 91.2963867 513.364419 91.0985534 513.661621 90.7028809 513.958823 90.3072083 514.107422 89.753096 514.107422 89.0405273 514.107422 88.4031544 513.956138 87.8866393 513.653564 87.4909668 513.350991 87.0952942 512.949058 86.8974609 512.447754 86.8974609 511.957192 86.8974609 511.561525 87.0926087 511.260742 87.4829102 510.959959 87.8732116 510.80957 88.4317998 510.80957 89.1586914zM520.106934 86.1884766L521.100586 86.1884766 521.100586 92 520.106934 92 520.106934 87.762207 517.426758 92 516.433105 92 516.433105 86.1884766 517.426758 86.1884766 517.426758 90.4316406 520.106934 86.1884766zM525.026855 91.2963867C525.381349 91.2963867 525.691079 91.1889659 525.956055 90.9741211 526.22103 90.7592763 526.367838 90.4907243 526.396484 90.168457L527.336426 90.168457C527.318522 90.5014665 527.20394 90.8183579 526.992676 91.1191406 526.781412 91.4199234 526.499432 91.6598298 526.146729 91.8388672 525.794025 92.0179045 525.420738 92.1074219 525.026855 92.1074219 524.23551 92.1074219 523.606204 91.8433457 523.138916 91.3151855 522.671629 90.7870254 522.437988 90.0646205 522.437988 89.1479492L522.437988 88.9814453C522.437988 88.4156873 522.541828 87.9125999 522.749512 87.472168 522.957195 87.0317361 523.255288 86.6897799 523.643799 86.4462891 524.03231 86.2027983 524.491534 86.0810547 525.021484 86.0810547 525.67318 86.0810547 526.21476 86.2762025 526.64624 86.6665039 527.07772 87.0568053 527.30778 87.5634734 527.336426 88.1865234L526.396484 88.1865234C526.367838 87.810545 526.225506 87.5017102 525.969482 87.2600098 525.713459 87.0183093 525.397463 86.8974609 525.021484 86.8974609 524.516599 86.8974609 524.125408 87.0791811 523.8479 87.442627 523.570392 87.8060728 523.431641 88.3315395 523.431641 89.019043L523.431641 89.2070312C523.431641 89.876631 523.569497 90.3922508 523.845215 90.7539062 524.120932 91.1155617 524.514809 91.2963867 525.026855 91.2963867zM530.263672 89.5239258L529.538574 89.5239258 529.538574 92 528.539551 92 528.539551 86.1884766 529.538574 86.1884766 529.538574 88.6484375 530.188477 88.6484375 532.143555 86.1884766 533.34668 86.1884766 531.047852 88.9814453 533.540039 92 532.277832 92 530.263672 89.5239258zM536.719727 92.1074219C535.931962 92.1074219 535.291018 91.8487168 534.796875 91.3312988 534.302732 90.8138809 534.055664 90.1219119 534.055664 89.2553711L534.055664 89.0727539C534.055664 88.4962536 534.16577 87.981529 534.385986 87.5285645 534.606202 87.0755999 534.914142 86.7211113 535.309814 86.4650879 535.705487 86.2090645 536.134275 86.0810547 536.596191 86.0810547 537.351729 86.0810547 537.938963 86.3299129 538.35791 86.8276367 538.776858 87.3253606 538.986328 88.0379185 538.986328 88.965332L538.986328 89.3789062 535.049316 89.3789062C535.063639 89.9518258 535.231037 90.4146304 535.551514 90.767334 535.871991 91.1200376 536.279294 91.2963867 536.773438 91.2963867 537.124351 91.2963867 537.421548 91.2247729 537.665039 91.081543 537.90853 90.9383131 538.121581 90.7485363 538.304199 90.512207L538.911133 90.9848633C538.424151 91.7332394 537.69369 92.1074219 536.719727 92.1074219zM536.596191 86.8974609C536.195148 86.8974609 535.858563 87.0433742 535.586426 87.3352051 535.314289 87.627036 535.145996 88.0361302 535.081543 88.5625L537.992676 88.5625 537.992676 88.4873047C537.96403 87.9824194 537.827963 87.5912286 537.584473 87.3137207 537.340982 87.0362128 537.011558 86.8974609 536.596191 86.8974609z"/>
    <g fill="#0063BA" fill-rule="nonzero" transform="translate(158 16)">
      <circle cx="15" cy="15" r="15" opacity=".15"/>
      <path d="M11,19 L8,19 C8,17.3431458 8.56700338,16 10.5,16 C11.0537129,16 11.5773941,16.1102123 12.0428138,16.3064401 C12.7743818,15.5037337 13.8283643,15 15,15 C16.1716357,15 17.2256182,15.5037337 17.9571862,16.3064401 C18.4226059,16.1102123 18.9462871,16 19.5,16 C21.4329966,16 22,17.3431458 22,19 L19,19 L11,19 Z M15,14 C13.8954305,14 13,13.1045695 13,12 C13,10.8954305 13.8954305,10 15,10 C16.1045695,10 17,10.8954305 17,12 C17,13.1045695 16.1045695,14 15,14 Z M19.5,15 C18.6715729,15 18,14.3284271 18,13.5 C18,12.6715729 18.6715729,12 19.5,12 C20.3284271,12 21,12.6715729 21,13.5 C21,14.3284271 20.3284271,15 19.5,15 Z M10.5,15 C9.67157288,15 9,14.3284271 9,13.5 C9,12.6715729 9.67157288,12 10.5,12 C11.3284271,12 12,12.6715729 12,13.5 C12,14.3284271 11.3284271,15 10.5,15 Z"/>
    </g>
    <g fill="#0063BA" fill-rule="nonzero" transform="translate(370 16)">
      <circle cx="15" cy="15" r="15" opacity=".15"/>
      <g transform="translate(11 6)">
        <polygon points="6 0 6 9.6 0 10.8"/>
        <polygon points="9 7 9 16.6 3 17.8" transform="rotate(180 6 12.4)"/>
      </g>
    </g>
    <g fill-rule="nonzero" transform="translate(582 16)">
      <circle cx="15" cy="15" r="15" fill="#0063BA" opacity=".15"/>
      <g stroke="#0063BA" stroke-width="2" transform="rotate(45 -.4 22.464)">
        <circle cx="4.858" cy="4.858" r="4"/>
        <path stroke-linecap="square" d="M4.85786438,8.85786438 L4.85786438,13.2597198"/>
      </g>
    </g>
  </g>
</svg>
