<svg xmlns="http://www.w3.org/2000/svg" width="60" height="60" viewBox="0 0 60 60">
  <g fill="none" fill-rule="evenodd">
    <rect width="60" height="60" fill="#0079C2"/>
    <g fill="#FFF" transform="translate(17.473 8.994)">
      <path fill-rule="nonzero" d="M23.2325089,7.59388574 C22.3419162,3.69532471 20.1100806,0.524017645 19.8024849,0.01136197 C19.3160519,0.738617216 17.5360691,3.54033456 16.6311689,6.640117 C15.6428211,10.1094802 15.4973693,13.1854155 15.8383427,16.2017311 C16.1769393,19.229971 17.4561894,22.3416776 17.4561894,22.3416776 C18.1357594,23.9630934 19.153917,25.71566 19.8167937,26.5740583 C20.7884481,25.3103093 23.0214862,21.54289 23.7177406,16.6309303 C24.1052147,13.8888224 24.1218991,11.492457 23.2325089,7.59388574 Z M19.8024849,25.5964412 C19.3649397,24.7738052 18.6853697,23.2120001 18.6209911,20.7798635 C18.6042978,18.4431063 19.5425757,16.4282549 19.8167937,16.01098 C20.0611928,16.4282549 20.86952,18.1808215 20.9660931,20.5771868 C21.0316652,22.913944 20.2543389,24.761881 19.8024849,25.5964412 Z M22.973792,14.2107179 C22.9404143,15.7009997 22.7627693,17.274729 22.5362455,18.2165838 C22.6173175,16.595168 22.4229894,14.3180215 22.0510151,12.5296926 C21.6790408,10.7532776 20.6263042,7.77272428 19.7857916,6.40167032 C19.0096588,7.71311486 18.0534952,10.2883084 17.5527624,12.5177697 C17.0496464,14.7472206 17.0353376,17.4535663 17.0353376,18.2642793 C16.90181,17.5847093 16.5679826,15.1406575 16.662171,12.6965967 C16.7408584,10.6817453 17.2129736,8.59536026 17.4716905,7.64158124 C18.458846,4.45835126 19.5759612,2.41965148 19.7857916,2.09774698 C19.995622,2.41965148 21.4024472,4.93523563 22.1320871,7.57004762 C22.85815,10.2048609 23.0047928,12.732368 22.973792,14.2107179 Z"/>
      <path d="M21.313028,27.4801508 L14.5423993,27.4801508 L14.5423993,32.0225119 C14.5483607,32.0225119 14.5531299,32.0105967 14.5590926,32.0105967 C16.1542845,30.4130202 18.7414023,30.4130202 20.3377864,32.0105967 C21.9329783,33.5962502 21.9329783,36.183368 20.3377864,37.7809444 C20.3306417,37.7928686 20.3234879,37.7928686 20.3163329,37.8047928 C20.3163329,37.8047928 20.3163329,37.8047928 20.3163329,37.8047928 C20.3079869,37.8047928 20.2996395,37.8167157 20.2924858,37.8286399 C18.7008708,39.4023693 16.6216395,40.1892339 14.5423993,40.1892339 C12.4536284,40.1892339 10.3648593,39.4023693 8.77205203,37.8047928 C5.96317066,35.0030652 5.63054582,30.6514579 7.77177109,27.4801508 C8.06028758,27.0509517 8.3929227,26.6455907 8.77205203,26.264087 C10.3648593,24.6665106 12.4536284,23.8796356 14.5423993,23.8796356 L14.5423993,12.9588917 C6.51636809,12.9588917 0.010408818,19.4564947 0.010408818,27.4801508 C0.010408818,35.5038069 6.51636809,42.0133341 14.5423993,42.0133341 C18.7271025,42.0133341 22.4969063,40.2369191 25.1484027,37.4113547 L25.1484027,27.4801508 L21.313028,27.4801508"/>
    </g>
  </g>
</svg>
