<svg xmlns="http://www.w3.org/2000/svg" width="110" height="110" viewBox="0 0 110 110">
  <g fill="none" fill-rule="evenodd">
    <rect width="110" height="110" fill="#76BD1D"/>
    <g fill="#000" transform="translate(14.3 38.69)">
      <polygon points="48.292 .027 48.292 4.06 33.496 4.06 33.496 32.594 14.831 32.594 14.831 4.058 .048 4.058 .048 .027" transform="translate(47.3)"/>
      <path fill-rule="nonzero" d="M42.4145333,18.5016333 L42.4196667,18.4987 C46.2652667,17.3022667 49.0578,13.7155333 49.0578,9.47576667 C49.0578,4.25773333 44.8283,0.0278666667 39.6102667,0.0278666667 L39.6447333,0.0267666667 L0.00146666667,0.0267666667 L0.00293333333,32.5948333 L18.6732333,32.5948333 L18.6732333,18.7077 L24.1083333,18.7077 L33.8404,32.5948333 L53.3272667,32.593 L42.4145333,18.5016333 Z M24.7404667,14.9988667 L24.7404667,15.0029 L18.6750667,15.0029 L18.6750667,3.73743333 L24.7404667,3.73743333 L24.7404667,3.73486667 C27.8505333,3.73486667 30.3724667,6.25606667 30.3724667,9.3665 C30.3724667,12.4773 27.8505333,14.9988667 24.7404667,14.9988667 Z"/>
    </g>
  </g>
</svg>
