<svg xmlns="http://www.w3.org/2000/svg" xmlns:xlink="http://www.w3.org/1999/xlink" width="914" height="80" viewBox="0 0 914 80">
  <defs>
    <path id="show-more-a" d="M17.6568542,6.34314575 C16.209139,4.8954305 14.209139,4 12,4 C7.581722,4 4,7.581722 4,12 C4,16.418278 7.581722,20 12,20 C16.418278,20 20,16.418278 20,12 L22,12 C22,17.5228475 17.5228475,22 12,22 C6.4771525,22 2,17.5228475 2,12 C2,6.4771525 6.4771525,2 12,2 C14.7614237,2 17.2614237,3.11928813 19.0710678,4.92893219 L22,2 L22,9 L15,9 L17.6568542,6.34314575 Z"/>
  </defs>
  <g fill="none" fill-rule="evenodd">
    <rect width="914" height="80" fill="#FFF" fill-rule="nonzero"/>
    <path fill="#223D54" d="M413.544922,37.6396484 C413.544922,36.9599575 413.297366,36.4194356 412.802246,36.0180664 C412.307126,35.6166972 411.611333,35.4160156 410.714844,35.4160156 C409.96484,35.4160156 409.336428,35.6225565 408.82959,36.0356445 C408.322751,36.4487325 408.069336,36.9599579 408.069336,37.5693359 L406.381836,37.5693359 C406.381836,36.889645 406.567869,36.2802761 406.939941,35.7412109 C407.312014,35.2021457 407.832028,34.7817398 408.5,34.4799805 C409.167972,34.1782211 409.906246,34.0273438 410.714844,34.0273438 C412.144538,34.0273438 413.254879,34.3481413 414.045898,34.9897461 C414.836918,35.6313509 415.232422,36.5234318 415.232422,37.6660156 C415.232422,38.2578155 415.050783,38.7968726 414.6875,39.2832031 C414.324217,39.7695337 413.817386,40.1533189 413.166992,40.4345703 C414.672859,40.9384791 415.425781,41.9374925 415.425781,43.4316406 C415.425781,44.5800839 414.998051,45.4912076 414.142578,46.1650391 C413.287105,46.8388706 412.144538,47.1757812 410.714844,47.1757812 C409.86523,47.1757812 409.093265,47.0249039 408.398926,46.7231445 C407.704586,46.4213852 407.164064,45.9921903 406.777344,45.4355469 C406.390623,44.8789035 406.197266,44.2168007 406.197266,43.4492188 L407.884766,43.4492188 C407.884766,44.1230502 408.151365,44.6840798 408.68457,45.1323242 C409.217776,45.5805686 409.894527,45.8046875 410.714844,45.8046875 C411.63477,45.8046875 412.36865,45.5908225 412.916504,45.1630859 C413.464358,44.7353494 413.738281,44.1699254 413.738281,43.4667969 C413.738281,41.9667894 412.80958,41.2021486 410.952148,41.1728516 L409.370117,41.1728516 L409.370117,39.7841797 L410.943359,39.7841797 C411.798832,39.7666015 412.446287,39.573244 412.885742,39.2041016 C413.325198,38.8349591 413.544922,38.3134799 413.544922,37.6396484 Z M423.274414,47 C423.180664,46.8124991 423.104492,46.478518 423.045898,45.9980469 C422.290035,46.7832071 421.387701,47.1757812 420.338867,47.1757812 C419.401363,47.1757812 418.632327,46.9106472 418.031738,46.3803711 C417.431149,45.850095 417.130859,45.1777384 417.130859,44.3632812 C417.130859,43.3730419 417.50732,42.6040066 418.260254,42.0561523 C419.013187,41.508298 420.072259,41.234375 421.4375,41.234375 L423.019531,41.234375 L423.019531,40.4873047 C423.019531,39.9189425 422.849611,39.4663103 422.509766,39.1293945 C422.16992,38.7924788 421.668949,38.6240234 421.006836,38.6240234 C420.426755,38.6240234 419.940432,38.7705063 419.547852,39.0634766 C419.155271,39.3564468 418.958984,39.7109354 418.958984,40.1269531 L417.324219,40.1269531 C417.324219,39.6523414 417.492674,39.1938499 417.82959,38.7514648 C418.166506,38.3090798 418.623532,37.9589857 419.200684,37.7011719 C419.777835,37.4433581 420.412106,37.3144531 421.103516,37.3144531 C422.199224,37.3144531 423.057614,37.5883762 423.678711,38.1362305 C424.299808,38.6840848 424.62207,39.4384718 424.645508,40.3994141 L424.645508,44.7763672 C424.645508,45.6494184 424.756835,46.3437474 424.979492,46.859375 L424.979492,47 L423.274414,47 Z M420.576172,45.7607422 C421.08594,45.7607422 421.569334,45.6289076 422.026367,45.3652344 C422.483401,45.1015612 422.814452,44.7587912 423.019531,44.3369141 L423.019531,42.3857422 L421.745117,42.3857422 C419.75292,42.3857422 418.756836,42.9687442 418.756836,44.1347656 C418.756836,44.6445338 418.926756,45.0429673 419.266602,45.3300781 C419.606447,45.6171889 420.042966,45.7607422 420.576172,45.7607422 Z M433.337891,38.8349609 L428.952148,38.8349609 L428.952148,47 L427.317383,47 L427.317383,37.4902344 L433.337891,37.4902344 L433.337891,38.8349609 Z M442.777344,42.3505859 C442.777344,43.7978588 442.446292,44.9638628 441.78418,45.8486328 C441.122067,46.7334029 440.225592,47.1757812 439.094727,47.1757812 C437.940424,47.1757812 437.03223,46.809574 436.370117,46.0771484 L436.370117,50.65625 L434.744141,50.65625 L434.744141,37.4902344 L436.229492,37.4902344 L436.308594,38.5449219 C436.970706,37.7246053 437.890619,37.3144531 439.068359,37.3144531 C440.210943,37.3144531 441.114743,37.7451129 441.779785,38.6064453 C442.444828,39.4677777 442.777344,40.6660079 442.777344,42.2011719 L442.777344,42.3505859 Z M441.151367,42.1660156 C441.151367,41.0937446 440.922854,40.2470734 440.46582,39.6259766 C440.008787,39.0048797 439.38184,38.6943359 438.584961,38.6943359 C437.600581,38.6943359 436.862307,39.130855 436.370117,40.0039062 L436.370117,44.5478516 C436.856448,45.4150434 437.600581,45.8486328 438.602539,45.8486328 C439.38184,45.8486328 440.001463,45.5395539 440.461426,44.9213867 C440.921389,44.3032196 441.151367,43.3847717 441.151367,42.1660156 Z M447.857422,44.6181641 L450.072266,37.4902344 L451.8125,37.4902344 L447.989258,48.4677734 C447.397458,50.0498126 446.457038,50.8408203 445.167969,50.8408203 L444.860352,50.8144531 L444.253906,50.7001953 L444.253906,49.3818359 L444.693359,49.4169922 C445.244143,49.4169922 445.673338,49.3056652 445.980957,49.0830078 C446.288576,48.8603504 446.541991,48.453128 446.741211,47.8613281 L447.101562,46.8945312 L443.708984,37.4902344 L445.484375,37.4902344 L447.857422,44.6181641 Z M458.492188,40.0917969 C458.492188,39.6464821 458.322267,39.2934583 457.982422,39.0327148 C457.642576,38.7719714 457.176761,38.6416016 456.584961,38.6416016 C456.010739,38.6416016 455.53174,38.7910141 455.147949,39.0898438 C454.764158,39.3886734 454.572266,39.7402324 454.572266,40.1445312 L452.955078,40.1445312 C452.955078,39.3183552 453.300778,38.6416042 453.992188,38.1142578 C454.683597,37.5869114 455.547846,37.3232422 456.584961,37.3232422 C457.698248,37.3232422 458.565427,37.5620093 459.186523,38.0395508 C459.80762,38.5170922 460.118164,39.1982378 460.118164,40.0830078 C460.118164,40.5107443 459.989259,40.9033185 459.731445,41.2607422 C459.473632,41.6181658 459.107424,41.9023427 458.632812,42.1132812 C459.74024,42.4882831 460.293945,43.226557 460.293945,44.328125 C460.293945,45.2011762 459.957035,45.8925756 459.283203,46.4023438 C458.609372,46.9121119 457.709967,47.1669922 456.584961,47.1669922 C455.489252,47.1669922 454.585453,46.8989285 453.873535,46.362793 C453.161618,45.8266575 452.805664,45.1015671 452.805664,44.1875 L454.422852,44.1875 C454.422852,44.6503929 454.629392,45.0473616 455.04248,45.378418 C455.455568,45.7094743 455.969723,45.875 456.584961,45.875 C457.206058,45.875 457.707029,45.7314467 458.087891,45.4443359 C458.468752,45.1572251 458.65918,44.7851585 458.65918,44.328125 C458.65918,43.7949192 458.499513,43.4125988 458.180176,43.1811523 C457.860838,42.9497059 457.364261,42.8339844 456.69043,42.8339844 L455.064453,42.8339844 L455.064453,41.4628906 L456.831055,41.4628906 C457.938482,41.4335936 458.492188,40.9765669 458.492188,40.0917969 Z M468.555664,37.4902344 L470.181641,37.4902344 L470.181641,47 L468.555664,47 L468.555664,40.0654297 L464.169922,47 L462.543945,47 L462.543945,37.4902344 L464.169922,37.4902344 L464.169922,44.4335938 L468.555664,37.4902344 Z M479.858398,38.8085938 L476.667969,38.8085938 L476.667969,47 L475.041992,47 L475.041992,38.8085938 L471.913086,38.8085938 L471.913086,37.4902344 L479.858398,37.4902344 L479.858398,38.8085938 Z M483.21582,40.7685547 L485.685547,40.7685547 C486.763677,40.7802735 487.616208,41.0615207 488.243164,41.6123047 C488.87012,42.1630887 489.183594,42.9101515 489.183594,43.8535156 C489.183594,44.8027391 488.861331,45.5644503 488.216797,46.1386719 C487.572262,46.7128935 486.705084,47 485.615234,47 L481.589844,47 L481.589844,37.4902344 L483.21582,37.4902344 L483.21582,40.7685547 Z M483.21582,42.0957031 L483.21582,45.6728516 L485.632812,45.6728516 C486.242191,45.6728516 486.713866,45.5161148 487.047852,45.2026367 C487.381838,44.8891586 487.548828,44.4599637 487.548828,43.9150391 C487.548828,43.3876927 487.386232,42.9555681 487.061035,42.6186523 C486.735838,42.2817366 486.280276,42.1074219 485.694336,42.0957031 L483.21582,42.0957031 Z M499.616211,47.1757812 C498.327142,47.1757812 497.278324,46.7524456 496.469727,45.9057617 C495.661129,45.0590778 495.256836,43.9267649 495.256836,42.5087891 L495.256836,42.2099609 C495.256836,41.2665968 495.43701,40.4243201 495.797363,39.6831055 C496.157717,38.9418908 496.661618,38.3618185 497.309082,37.9428711 C497.956546,37.5239237 498.658199,37.3144531 499.414062,37.3144531 C500.650397,37.3144531 501.611325,37.7216756 502.296875,38.5361328 C502.982425,39.35059 503.325195,40.516594 503.325195,42.0341797 L503.325195,42.7109375 L496.882812,42.7109375 C496.90625,43.6484422 497.180173,44.4057588 497.70459,44.9829102 C498.229007,45.5600615 498.895504,45.8486328 499.704102,45.8486328 C500.278323,45.8486328 500.764646,45.7314465 501.163086,45.4970703 C501.561525,45.2626941 501.910155,44.9521504 502.208984,44.5654297 L503.202148,45.3388672 C502.405269,46.5634827 501.209969,47.1757812 499.616211,47.1757812 Z M499.414062,38.6503906 C498.757809,38.6503906 498.207033,38.8891578 497.761719,39.3666992 C497.316404,39.8442407 497.041016,40.5136676 496.935547,41.375 L501.699219,41.375 L501.699219,41.2519531 C501.652344,40.4257771 501.429689,39.7856468 501.03125,39.331543 C500.632811,38.8774391 500.093753,38.6503906 499.414062,38.6503906 Z M506.884766,37.4902344 L506.884766,45.6728516 L510.365234,45.6728516 L510.365234,37.4902344 L511.991211,37.4902344 L511.991211,45.6728516 L515.462891,45.6728516 L515.462891,37.4902344 L517.097656,37.4902344 L517.097656,45.6728516 L518.433594,45.6728516 L518.275391,49.8212891 L516.816406,49.8212891 L516.816406,47 L505.25,47 L505.25,37.4902344 L506.884766,37.4902344 Z M524.146484,47.1757812 C522.857415,47.1757812 521.808598,46.7524456 521,45.9057617 C520.191402,45.0590778 519.787109,43.9267649 519.787109,42.5087891 L519.787109,42.2099609 C519.787109,41.2665968 519.967283,40.4243201 520.327637,39.6831055 C520.68799,38.9418908 521.191891,38.3618185 521.839355,37.9428711 C522.48682,37.5239237 523.188473,37.3144531 523.944336,37.3144531 C525.18067,37.3144531 526.141598,37.7216756 526.827148,38.5361328 C527.512699,39.35059 527.855469,40.516594 527.855469,42.0341797 L527.855469,42.7109375 L521.413086,42.7109375 C521.436524,43.6484422 521.710447,44.4057588 522.234863,44.9829102 C522.75928,45.5600615 523.425777,45.8486328 524.234375,45.8486328 C524.808597,45.8486328 525.29492,45.7314465 525.693359,45.4970703 C526.091799,45.2626941 526.440428,44.9521504 526.739258,44.5654297 L527.732422,45.3388672 C526.935543,46.5634827 525.740242,47.1757812 524.146484,47.1757812 Z M523.944336,38.6503906 C523.288083,38.6503906 522.737307,38.8891578 522.291992,39.3666992 C521.846677,39.8442407 521.57129,40.5136676 521.46582,41.375 L526.229492,41.375 L526.229492,41.2519531 C526.182617,40.4257771 525.959963,39.7856468 525.561523,39.331543 C525.163084,38.8774391 524.624027,38.6503906 523.944336,38.6503906 Z M521.105469,34.9501953 C521.105469,34.6865221 521.186034,34.4653329 521.347168,34.2866211 C521.508302,34.1079093 521.747069,34.0185547 522.063477,34.0185547 C522.379884,34.0185547 522.620116,34.1079093 522.78418,34.2866211 C522.948243,34.4653329 523.030273,34.6865221 523.030273,34.9501953 C523.030273,35.2138685 522.948243,35.4335929 522.78418,35.609375 C522.620116,35.7851571 522.379884,35.8730469 522.063477,35.8730469 C521.747069,35.8730469 521.508302,35.7851571 521.347168,35.609375 C521.186034,35.4335929 521.105469,35.2138685 521.105469,34.9501953 Z M524.884766,34.9677734 C524.884766,34.7041002 524.965331,34.4814462 525.126465,34.2998047 C525.287598,34.1181632 525.526366,34.0273438 525.842773,34.0273438 C526.159181,34.0273438 526.399413,34.1181632 526.563477,34.2998047 C526.72754,34.4814462 526.80957,34.7041002 526.80957,34.9677734 C526.80957,35.2314466 526.72754,35.451171 526.563477,35.6269531 C526.399413,35.8027353 526.159181,35.890625 525.842773,35.890625 C525.526366,35.890625 525.287598,35.8027353 525.126465,35.6269531 C524.965331,35.451171 524.884766,35.2314466 524.884766,34.9677734 Z"/>
    <g opacity=".6" transform="translate(365 29)">
      <mask id="show-more-b" fill="#fff">
        <use xlink:href="#show-more-a"/>
      </mask>
      <use fill="#000" xlink:href="#show-more-a"/>
      <g fill="#223D54" mask="url(#show-more-b)">
        <rect width="24" height="24" fill-rule="nonzero"/>
      </g>
    </g>
  </g>
</svg>
