<svg xmlns="http://www.w3.org/2000/svg" width="117" height="56" viewBox="0 0 117 56">
  <g fill="#0670B8" fill-rule="evenodd">
    <path fill-rule="nonzero" d="M95.7182659,34.1813551 C95.2607982,34.1813551 94.8880467,33.8370286 94.8880467,33.4117551 L94.8928876,33.3827592 L94.8928876,20.3962122 L94.8928876,20.3382204 L94.8977285,20.2838531 C94.9400867,19.9020735 95.2874233,19.5988245 95.7146352,19.5988245 C96.1406368,19.5988245 96.4940246,19.9020735 96.5351725,20.2838531 L96.5400134,20.3382204 L96.5400134,20.3962122 L96.5400134,33.3827592 L96.5436441,33.4117551 C96.5436441,33.8370286 96.1721029,34.1813551 95.7182659,34.1813551 M97.2588912,17.2006204 L94.1715893,17.2006204 C91.5611188,17.2006204 91.4062091,19.306449 91.4062091,20.6632163 L91.4062091,33.1133388 C91.4062091,34.4725224 91.5611188,36.5771429 94.1715893,36.5771429 L97.2588912,36.5771429 C99.870572,36.5771429 100.030323,34.4737306 100.030323,33.1133388 L100.030323,20.6632163 C100.029112,19.3052408 99.870572,17.2006204 97.2588912,17.2006204"/>
    <polygon points="39.154 17.201 46.266 17.201 46.266 19.607 42.882 19.607 42.882 36.576 39.154 36.576"/>
    <path fill-rule="nonzero" d="M46.8164199,36.5759347 L50.4616388,36.5759347 L50.8113959,31.4255347 L52.569863,31.4255347 L52.9147791,36.5759347 L56.5636287,36.5759347 L54.6175756,17.1994122 L48.7636833,17.1994122 L46.8164199,36.5759347 Z M50.9421009,29.296751 L51.5847341,19.6036571 L51.792894,19.6036571 L52.4318966,29.296751 L50.9421009,29.296751 Z"/>
    <path d="M61.8995418,29.792098 L61.8995418,33.4395429 C61.8995418,33.9373061 62.2674523,34.0798694 62.4840839,34.0798694 C62.829,34.0798694 63.0686259,33.7717878 63.0686259,33.4395429 L63.0686259,28.934302 C63.0686259,28.3265959 62.964546,27.6645224 61.5739894,27.6645224 L60.0636198,27.6645224 L60.0636198,25.5321143 L61.6284498,25.5321143 C62.6922438,25.5321143 63.0686259,25.2784 63.0686259,24.0956082 L63.0686259,20.2415673 C63.0686259,19.9105306 62.8277898,19.6084898 62.4840839,19.6084898 C62.2674523,19.6084898 61.8995418,19.7462204 61.8995418,20.2415673 L61.8995418,23.4021224 L58.1696067,23.4021224 L58.1696067,20.6644245 C58.1696067,19.3076571 58.3317777,17.2018286 60.9386176,17.2018286 L64.0295502,17.2018286 C66.6400207,17.2018286 66.7985611,19.3076571 66.7985611,20.6644245 L66.7985611,23.7657796 C66.7985611,25.8655673 65.3850101,26.4454857 64.2643352,26.3911184 L64.2643352,26.5856327 C66.7658848,26.5264327 66.7985611,28.5223184 66.7985611,29.2158041 L66.7985611,33.1145469 C66.7985611,34.4737306 66.6400207,36.578351 64.0295502,36.578351 L60.9386176,36.578351 C58.3317777,36.578351 58.1696067,34.4749388 58.1696067,33.1145469 L58.1696067,29.7933061 L61.8995418,29.7933061 L61.8995418,29.792098 Z"/>
    <polygon points="69.25 17.201 77.877 17.201 77.877 36.576 74.399 36.576 74.399 19.607 72.726 19.607 72.726 36.576 69.25 36.576"/>
    <path fill-rule="nonzero" d="M80.5770528,36.5759347 L84.3033573,36.5759347 L84.3033573,29.9890286 L86.4333657,29.9890286 C89.0438362,29.9890286 89.4589458,27.8856163 89.4589458,26.5240163 L89.4589458,20.6608 C89.4589458,19.3040327 89.0438362,17.1982041 86.4333657,17.1982041 L80.5770528,17.1982041 L80.5770528,36.5759347 Z M84.3033573,27.8542041 L84.3033573,19.6072816 L85.282435,19.6072816 C85.6866525,19.6072816 85.9795287,19.9661061 85.9795287,20.5726041 L85.9795287,26.8888816 C85.9795287,27.4977959 85.6866525,27.8542041 85.282435,27.8542041 L84.3033573,27.8542041 Z"/>
    <polygon points="111.926 17.201 116.774 17.201 116.774 36.576 113.044 36.576 113.044 24.427 112.911 24.427 110.99 36.576 108.013 36.576 106.094 24.427 105.964 24.427 105.964 36.576 102.233 36.576 102.233 17.201 107.076 17.201 109.496 30.818"/>
    <path fill-rule="nonzero" d="M31.2032164,19.1699265 C31.1608583,21.1356082 30.924863,23.2076082 30.6259357,24.4459755 C30.7336464,22.3123592 30.4746567,19.3004082 29.9820923,16.9481143 C29.490738,14.5958204 28.0965507,10.6729143 26.9843475,8.85221224 C25.959281,10.582302 24.6945885,13.978449 24.0325916,16.9287837 C23.3669639,19.876702 23.3476002,23.4456163 23.3476002,24.5172571 C23.1696961,23.6075102 22.7279614,20.3974204 22.8550358,17.1655837 C22.9591157,14.4979592 23.5835955,11.7590531 23.9248809,10.4965224 C25.2307213,6.2884898 26.7084146,3.59911837 26.9855577,3.16901224 C27.2627009,3.5979102 29.1276684,6.91069388 30.0910131,10.3902041 C31.0507271,13.8721306 31.243154,17.2066612 31.2032164,19.1699265 M27.0085521,34.2055184 C26.4300612,33.1193796 25.5284384,31.0461714 25.4437221,27.8481633 C25.4207277,24.7492245 26.6624258,22.096098 27.0279159,21.541551 C27.3546785,22.096098 28.4184725,24.4073143 28.5467571,27.5678694 C28.6338938,30.6607673 27.6088272,33.0952163 27.0085521,34.2055184 M31.5432916,10.433698 C30.366946,5.28571429 27.4115594,1.09701224 27.0085521,0.415608163 C26.3647087,1.3748898 24.0095971,5.07066122 22.8138879,9.17237551 C21.5080475,13.7464816 21.3156206,17.8022857 21.7646167,21.800098 C22.214823,25.7930776 23.9067274,29.8935837 23.9067274,29.8935837 C24.8047196,32.0489469 26.1529181,34.3529143 27.0279159,35.4861714 C28.3107618,33.8201143 31.2685689,28.8485224 32.187135,22.3546449 C32.6978529,18.7446531 32.7172167,15.5804735 31.5432916,10.433698"/>
    <path d="M19.7810464,36.5723102 L19.7810464,42.6626612 C19.7883078,42.6542041 19.7955692,42.6469551 19.8064613,42.638498 C21.9388901,40.5169633 25.3965231,40.5169633 27.5301621,42.638498 C29.6662217,44.7564082 29.6662217,48.1996735 27.5301621,50.3187918 L27.5047473,50.3441633 L27.5047473,50.3465796 C27.4914347,50.3562449 27.4817529,50.3659102 27.4744915,50.3743673 C25.3432729,52.4729469 22.5621596,53.5252571 19.7822566,53.5252571 C16.9926718,53.5252571 14.1970358,52.4608653 12.0670274,50.3502041 C8.31409785,46.6133551 7.86510176,40.8371265 10.729721,36.6170122 C11.1145748,36.0467592 11.5587299,35.505502 12.0670274,35.0041143 C14.1970358,32.8837878 16.9926718,31.8278531 19.7822566,31.8278531 L19.7822566,17.3045224 C9.05233939,17.3045224 0.343509645,25.9573878 0.343509645,36.6206367 C0.343509645,47.2947592 9.05112916,55.9464163 19.7822566,55.9464163 C25.3820003,55.9464163 30.4214065,53.590498 33.9649659,49.8282776 L33.9649659,36.5723102 L19.7810464,36.5723102 Z"/>
    <path fill-rule="nonzero" d="M113.290835,51.3686857 C113.290835,53.2123429 112.450934,53.5385469 110.312454,53.5385469 L108.345827,53.5385469 L108.345827,45.1273143 L110.312454,45.1273143 L110.312454,48.373649 L110.641637,48.373649 C112.575588,48.373649 113.290835,48.8230857 113.290835,50.5060571 L113.290835,51.3686857 Z M96.8728272,46.716049 L95.3818214,46.716049 L95.3818214,53.5433796 L93.5108026,53.5433796 L93.5108026,46.716049 L91.9145066,46.716049 L91.9145066,45.1188571 L96.8740375,45.1188571 L96.8740375,46.716049 L96.8728272,46.716049 Z M81.7340347,50.5374694 C81.7340347,52.2458122 80.8638778,52.7049143 78.9262963,52.7049143 L78.9262963,53.5373388 L77.0129195,53.5373388 L77.0129195,52.7049143 C75.0680766,52.7049143 74.1894481,52.2458122 74.1894481,50.5374694 L74.1894481,47.9097143 C74.1894481,46.1941224 75.0329799,45.7579755 77.0129195,45.7579755 L77.0129195,45.1273143 L78.9262963,45.1273143 L78.9262963,45.7579755 C80.8929234,45.7579755 81.7340347,46.1941224 81.7340347,47.9097143 L81.7340347,50.5374694 Z M63.8988451,46.716049 L61.2072891,46.716049 L61.2072891,48.3712327 L63.6144406,48.3712327 L63.6144406,49.9635918 L61.2072891,49.9635918 L61.2072891,51.9473959 L63.8988451,51.9473959 L63.8988451,53.5433796 L59.1765197,53.5433796 L59.1765197,45.117649 L63.8988451,45.117649 L63.8988451,46.716049 Z M47.5812866,53.5373388 L45.612239,53.5373388 L45.612239,49.8548571 L44.6016953,49.8548571 L44.6016953,53.5373388 L42.633858,53.5373388 L42.633858,45.1261061 L44.6016953,45.1261061 L44.6016953,48.3724408 L45.612239,48.3724408 L45.612239,45.1261061 L47.5812866,45.1261061 L47.5812866,53.5373388 Z M116.773883,43.0275265 L39.1544409,43.0275265 L39.1544409,55.9452082 L116.775093,55.9452082 L116.775093,43.0275265 L116.773883,43.0275265 Z M76.1040352,47.8553469 L76.1040352,50.5483429 C76.1040352,51.0424816 76.2625756,51.1572571 76.6958387,51.1572571 L77.0129195,51.1572571 L77.0129195,47.2367673 L76.6958387,47.2367673 C76.2625756,47.2379755 76.1040352,47.3624163 76.1040352,47.8553469 Z M110.750558,49.8560653 L110.312454,49.8560653 L110.312454,52.051298 L110.750558,52.051298 C111.192293,52.051298 111.324208,51.9389388 111.324208,51.459298 L111.324208,50.4480653 C111.322998,49.9635918 111.192293,49.8560653 110.750558,49.8560653 Z M79.2288543,47.2379755 L78.9262963,47.2379755 L78.9262963,51.1584653 L79.2288543,51.1584653 C79.6669583,51.1584653 79.8242885,51.0328163 79.8242885,50.5374694 L79.8242885,47.8336 C79.8242885,47.3394612 79.6669583,47.2379755 79.2288543,47.2379755 Z"/>
  </g>
</svg>
