<svg xmlns="http://www.w3.org/2000/svg" width="187" height="90" viewBox="0 0 187 90">
  <g fill="#FFF" fill-rule="evenodd">
    <path fill-rule="nonzero" d="M152.996229,54.6355326 C152.265012,54.6355326 151.669205,54.0851606 151.669205,53.4054028 L151.676943,53.3590556 L151.676943,32.6013383 L151.676943,32.508644 L151.684681,32.4217432 C151.752386,31.811506 152.30757,31.3267924 152.990426,31.3267924 C153.671348,31.3267924 154.236203,31.811506 154.301974,32.4217432 L154.309712,32.508644 L154.309712,32.6013383 L154.309712,53.3590556 L154.315515,53.4054028 C154.315515,54.0851606 153.721643,54.6355326 152.996229,54.6355326 M155.458767,27.4934992 L150.524019,27.4934992 C146.351439,27.4934992 146.103831,30.8594589 146.103831,33.028118 L146.103831,52.9284136 C146.103831,55.100935 146.351439,58.4649636 150.524019,58.4649636 L155.458767,58.4649636 C159.633282,58.4649636 159.888628,55.1028661 159.888628,52.9284136 L159.888628,33.028118 C159.886693,30.8575278 159.633282,27.4934992 155.458767,27.4934992"/>
    <polygon points="62.585 27.493 73.951 27.493 73.951 31.34 68.543 31.34 68.543 58.463 62.585 58.463"/>
    <path fill-rule="nonzero" d="M74.8314404,58.4630325 L80.6579641,58.4630325 L81.2170164,50.2306249 L84.0277531,50.2306249 L84.5790676,58.4630325 L90.4113946,58.4630325 L87.3008202,27.491568 L77.9439493,27.491568 L74.8314404,58.4630325 Z M81.4259355,46.8279737 L82.4531215,31.3345169 L82.7858446,31.3345169 L83.8072273,46.8279737 L81.4259355,46.8279737 Z"/>
    <path d="M98.9403265,47.619737 L98.9403265,53.4498188 C98.9403265,54.2454444 99.5283953,54.4733177 99.8746595,54.4733177 C100.425974,54.4733177 100.808993,53.9808795 100.808993,53.4498188 L100.808993,46.2486346 C100.808993,45.2772762 100.642631,44.2190169 98.419963,44.2190169 L96.0057859,44.2190169 L96.0057859,40.8105723 L98.5070127,40.8105723 C100.207383,40.8105723 100.808993,40.405035 100.808993,38.5144586 L100.808993,32.3541536 C100.808993,31.825024 100.42404,31.3422414 99.8746595,31.3422414 C99.5283953,31.3422414 98.9403265,31.5623903 98.9403265,32.3541536 L98.9403265,37.4059899 L92.9783923,37.4059899 L92.9783923,33.0300491 C92.9783923,30.86139 93.2376068,27.4954303 97.4043837,27.4954303 L102.344935,27.4954303 C106.517516,27.4954303 106.770927,30.86139 106.770927,33.0300491 L106.770927,37.9872601 C106.770927,41.3435642 104.511505,42.2705066 102.720216,42.1836058 L102.720216,42.4945177 C106.718697,42.3998924 106.770927,45.5901193 106.770927,46.6985879 L106.770927,52.9303448 C106.770927,55.1028661 106.517516,58.4668947 102.344935,58.4668947 L97.4043837,58.4668947 C93.2376068,58.4668947 92.9783923,55.1047972 92.9783923,52.9303448 L92.9783923,47.6216681 L98.9403265,47.6216681 L98.9403265,47.619737 Z"/>
    <polygon points="110.69 27.493 124.479 27.493 124.479 58.463 118.919 58.463 118.919 31.34 116.246 31.34 116.246 58.463 110.69 58.463"/>
    <path fill-rule="nonzero" d="M128.79449,58.4630325 L134.750621,58.4630325 L134.750621,47.9345112 L138.15523,47.9345112 C142.32781,47.9345112 142.991322,44.5724137 142.991322,42.3960301 L142.991322,33.0242557 C142.991322,30.8555966 142.32781,27.4896369 138.15523,27.4896369 L128.79449,27.4896369 L128.79449,58.4630325 Z M134.750621,44.5222043 L134.750621,31.3403103 L136.31558,31.3403103 C136.961682,31.3403103 137.429816,31.9138559 137.429816,32.8832832 L137.429816,42.9792314 C137.429816,43.9525209 136.961682,44.5222043 136.31558,44.5222043 L134.750621,44.5222043 Z"/>
    <polygon points="178.902 27.493 186.652 27.493 186.652 58.463 180.69 58.463 180.69 39.044 180.477 39.044 177.407 58.463 172.648 58.463 169.58 39.044 169.373 39.044 169.373 58.463 163.409 58.463 163.409 27.493 171.151 27.493 175.018 49.259"/>
    <path fill-rule="nonzero" d="M49.8752709,30.6412412 C49.8075657,33.7831899 49.4303505,37.095078 48.9525446,39.0744863 C49.1247095,35.6641106 48.71074,30.8498033 47.9234242,27.089893 C47.1380428,23.3299827 44.9095716,17.0596033 43.1318242,14.1493902 C41.4933562,16.9147685 39.4718697,22.3431752 38.4137328,27.0589949 C37.3497925,31.7709523 37.3188415,37.4755106 37.3188415,39.188423 C37.0344793,37.734282 36.3284099,32.6032694 36.5315257,27.4374964 C36.6978873,23.1735611 37.6960567,18.7956892 38.2415679,16.7776583 C40.3288252,10.0515321 42.6907726,5.75283655 43.1337586,5.06535424 C43.5767446,5.75090542 46.5577118,11.0460641 48.0975235,16.6077188 C49.6315319,22.1732357 49.9391074,27.5031548 49.8752709,30.6412412 M43.1705129,54.6741552 C42.2458521,52.9380693 40.8046967,49.62425 40.6692861,44.5125487 C40.6325318,39.5592 42.617264,35.3184383 43.2014639,34.4320496 C43.7237618,35.3184383 45.4241318,39.0126902 45.6291821,44.0645265 C45.7684616,49.0082195 44.1299936,52.8994467 43.1705129,54.6741552 M50.4188477,16.6772395 C48.5385751,8.44869416 43.8146804,1.75346613 43.1705129,0.664308752 C42.1413925,2.19762605 38.3769785,8.10495301 36.4657549,14.6611397 C34.3784975,21.9723982 34.0709221,28.4552019 34.7885982,34.8453114 C35.5082086,41.2276964 38.2125513,47.7819519 38.2125513,47.7819519 C39.6479035,51.227088 41.8028661,54.9097531 43.2014639,56.7211531 C45.2519669,54.0581247 49.9797305,46.1115244 51.4479681,35.7317001 C52.2643004,29.9614834 52.2952514,24.9038537 50.4188477,16.6772395"/>
    <path d="M31.6180562,58.4572391 L31.6180562,68.1920659 C31.6296628,68.178548 31.6412694,68.1669612 31.6586794,68.1534433 C35.0671571,64.7623788 40.5938431,64.7623788 44.0042552,68.1534433 C47.4185362,71.5387143 47.4185362,77.0424351 44.0042552,80.4296373 L43.963632,80.470191 L43.963632,80.4740533 C43.9423532,80.4895023 43.9268777,80.5049514 43.9152711,80.5184693 C40.5087278,83.8728423 36.063392,85.5548566 31.6199906,85.5548566 C27.1611138,85.5548566 22.6925647,83.853531 19.2879559,80.4798467 C13.2892673,74.5068613 12.5715912,65.2741283 17.1504032,58.5286909 C17.7655541,57.6171975 18.4754924,56.7520512 19.2879559,55.9506322 C22.6925647,52.5614989 27.1611138,50.8736912 31.6199906,50.8736912 L31.6199906,27.6595763 C14.4692738,27.6595763 0.549066366,41.4903301 0.549066366,58.5344843 C0.549066366,75.5960187 14.4673393,89.4248413 31.6199906,89.4248413 C40.5706298,89.4248413 48.6256248,85.6591376 54.2896558,79.6455985 L54.2896558,58.4572391 L31.6180562,58.4572391 Z"/>
    <path fill-rule="nonzero" d="M181.084252,82.1077894 C181.084252,85.0546939 179.741753,85.576099 176.323603,85.576099 L173.180143,85.576099 L173.180143,72.1315713 L176.323603,72.1315713 L176.323603,77.3205178 L176.84977,77.3205178 C179.941,77.3205178 181.084252,78.0388982 181.084252,80.7289625 L181.084252,82.1077894 Z M154.841682,74.6710074 L152.458456,74.6710074 L152.458456,85.5838235 L149.467816,85.5838235 L149.467816,74.6710074 L146.916294,74.6710074 L146.916294,72.1180534 L154.843616,72.1180534 L154.843616,74.6710074 L154.841682,74.6710074 Z M130.643812,80.7791718 C130.643812,83.5097898 129.252952,84.2436192 126.155918,84.2436192 L126.155918,85.5741679 L123.097574,85.5741679 L123.097574,84.2436192 C119.988934,84.2436192 118.584532,83.5097898 118.584532,80.7791718 L118.584532,76.5789639 C118.584532,73.8367592 119.932835,73.1396212 123.097574,73.1396212 L123.097574,72.1315713 L126.155918,72.1315713 L126.155918,73.1396212 C129.299378,73.1396212 130.643812,73.8367592 130.643812,76.5789639 L130.643812,80.7791718 Z M102.136016,74.6710074 L97.8338287,74.6710074 L97.8338287,77.3166556 L101.681424,77.3166556 L101.681424,79.8618851 L97.8338287,79.8618851 L97.8338287,83.0328007 L102.136016,83.0328007 L102.136016,85.5838235 L94.5878437,85.5838235 L94.5878437,72.1161222 L102.136016,72.1161222 L102.136016,74.6710074 Z M76.0540045,85.5741679 L72.9066758,85.5741679 L72.9066758,79.6880833 L71.291421,79.6880833 L71.291421,85.5741679 L68.1460267,85.5741679 L68.1460267,72.1296402 L71.291421,72.1296402 L71.291421,77.3185867 L72.9066758,77.3185867 L72.9066758,72.1296402 L76.0540045,72.1296402 L76.0540045,85.5741679 Z M186.651561,68.7752672 L62.5845209,68.7752672 L62.5845209,89.4229102 L186.653495,89.4229102 L186.653495,68.7752672 L186.651561,68.7752672 Z M121.644812,76.492063 L121.644812,80.796552 C121.644812,81.5863842 121.898223,81.7698416 122.590751,81.7698416 L123.097574,81.7698416 L123.097574,75.5033244 L122.590751,75.5033244 C121.898223,75.5052556 121.644812,75.704162 121.644812,76.492063 Z M177.023869,79.6900145 L176.323603,79.6900145 L176.323603,83.1988779 L177.023869,83.1988779 C177.729938,83.1988779 177.940792,83.0192828 177.940792,82.2526241 L177.940792,80.6362682 C177.938858,79.8618851 177.729938,79.6900145 177.023869,79.6900145 Z M126.639527,75.5052556 L126.155918,75.5052556 L126.155918,81.7717727 L126.639527,81.7717727 C127.339794,81.7717727 127.59127,81.5709352 127.59127,80.7791718 L127.59127,76.4573027 C127.59127,75.6674705 127.339794,75.5052556 126.639527,75.5052556 Z"/>
  </g>
</svg>
