<svg xmlns="http://www.w3.org/2000/svg" width="222" height="60" viewBox="0 0 222 60">
  <g fill="none" fill-rule="evenodd">
    <polygon fill="#ED1A3A" points="0 59.565 58.448 59.565 58.448 1.149 0 1.149"/>
    <g fill="#FFF" transform="translate(6 .065)">
      <path d="M26.3213 6.91845C24.6678 6.92945 23.0168 8.07145 23.0168 10.30895L23.0168 33.73895C23.0168 37.14095 18.4383 36.86145 18.4383 33.73895L18.4383 10.30895C18.4383 5.83295 11.8133 5.83295 11.8133 10.30895L11.8133 33.92645C11.8133 39.32745 15.8488 42.91845 20.6648 42.91845 25.6123 42.91845 29.6338 39.32745 29.6338 33.92645L29.6338 10.30895C29.6338 8.02695 27.9748 6.90795 26.3213 6.91845M43.0088 6.90295C41.6653 6.90295 40.6483 7.79345 40.1418 8.86395L32.7823 20.97295C32.2718 22.09345 31.8993 23.35145 31.8993 24.18395 31.8993 24.92895 32.0013 25.58595 32.2743 26.19195L40.2353 45.19995 9.3213 45.19995C8.2083 45.19995 7.2898 44.08295 7.2898 43.05145L7.2898 10.30895C7.0563 5.83295.6193 5.83545.4773 10.44945L.6183 45.19995C.6183 48.97795 3.5403 52.00445 7.2898 52.00445L49.4383 52.00445 39.1648 25.73095C38.8813 24.75295 38.7553 23.86595 39.4463 22.69945L46.2433 11.65295C46.3388 11.42295 46.4778 10.44895 46.4778 10.16845 46.3428 8.16245 44.7698 6.81445 43.0088 6.90295M63.89895 7.9482L63.89895 23.4037C63.89895 27.2672 63.50595 29.4147 60.35845 29.4147 59.76995 29.4147 59.37695 29.4147 58.78845 29.2022L58.78845 35.8542C59.96545 36.2867 60.75195 36.2867 61.73745 36.2867 70.58295 36.2867 70.97645 29.6307 70.97645 25.7642L70.97645 14.6042 76.08695 14.6042 76.08695 35.8542 83.16095 35.8542 83.16095 7.9482 63.89895 7.9482"/>
      <polygon points="85.522 7.948 95.154 28.128 91.617 35.854 99.282 35.854 110.684 7.948 103.018 7.948 98.889 19.753 93.974 7.948"/>
      <polygon points="112.846 35.854 119.923 35.854 119.923 23.833 127.196 35.854 136.236 35.854 126.214 21.472 136.042 7.948 127.589 7.948 119.923 19.753 119.923 7.948 112.846 7.948"/>
      <path d="M147.83645 30.05955C144.68895 30.05955 141.54545 27.26705 141.54545 21.90155 141.54545 16.53555 144.68895 13.95905 147.83645 13.95905 151.17845 13.95905 154.32195 16.53555 154.32195 21.90155 154.32195 27.26705 151.17845 30.05955 147.83645 30.05955M147.83645 36.71555C157.27045 36.71555 161.59445 29.41455 161.59445 21.90155 161.59445 14.60405 157.27045 7.30305 147.83645 7.30305 138.59695 7.30305 134.27295 14.60405 134.27295 21.90155 134.27295 29.41455 138.59695 36.71555 147.83645 36.71555M177.12405 6.44575C180.07255 6.44575 183.02155 5.37225 184.40005 2.15025L180.27155.43525C179.67905 2.58225 177.91105 2.79525 177.12405 2.79525 176.53555 2.79525 174.56905 2.58225 174.17555.43525L170.05055 2.15025C171.22705 5.37225 174.37405 6.44575 177.12405 6.44575zM165.13455 7.94825L165.13455 35.85375 172.01355 35.85375 181.84155 19.11225 181.84155 35.85375 188.72355 35.85375 188.72355 7.94825 181.84155 7.94825 172.01355 24.69375 172.01355 7.94825 165.13455 7.94825zM196.19485 7.9482L196.19485 23.4037C196.19485 27.2672 195.79785 29.4147 192.65435 29.4147 192.06585 29.4147 191.67235 29.4147 191.08035 29.2022L191.08035 35.8542C192.26085 36.2867 193.04735 36.2867 194.02935 36.2867 202.87485 36.2867 203.26835 29.6307 203.26835 25.7642L203.26835 14.6042 208.37885 14.6042 208.37885 35.8542 215.45635 35.8542 215.45635 7.9482 196.19485 7.9482"/>
      <polygon points="58.845 51.515 59.841 51.515 59.841 46.338 65.657 46.338 65.657 51.515 66.653 51.515 66.653 41.365 65.657 41.365 65.657 45.523 59.841 45.523 59.841 41.365 58.845 41.365"/>
      <polygon points="69.187 51.515 74.641 51.515 74.641 50.7 70.183 50.7 70.183 46.238 74.464 46.238 74.464 45.423 70.183 45.423 70.183 42.184 74.641 42.184 74.641 41.365 69.187 41.365"/>
      <path d="M81.2046,49.30025 C78.8091,49.21525 77.1896,48.58125 77.1896,46.14275 C77.1896,44.57975 77.9086,43.04125 81.2046,42.99875 L81.2046,49.30025 Z M82.1901,42.99875 C85.4826,43.04125 86.2051,44.57975 86.2051,46.14275 C86.2051,48.58125 84.5856,49.21525 82.1901,49.30025 L82.1901,42.99875 Z M81.2046,51.51525 L82.1901,51.51525 L82.1901,50.11925 L82.6046,50.11925 C85.8861,50.11925 87.2436,48.17675 87.2436,46.14275 C87.2436,43.76075 85.4826,42.18425 82.6046,42.18425 L82.1901,42.18425 L82.1901,40.96475 L81.2046,40.96475 L81.2046,42.18425 L80.8041,42.18425 C77.9086,42.18425 76.1511,43.76075 76.1511,46.14275 C76.1511,48.17675 77.5081,50.11925 80.8041,50.11925 L81.2046,50.11925 L81.2046,51.51525 Z"/>
      <polygon points="90.841 51.515 91.798 51.515 91.798 42.184 94.498 42.184 94.498 41.365 88.144 41.365 88.144 42.184 90.841 42.184"/>
      <path d="M100.35305,46.23825 L98.91405,46.23825 C98.09905,46.23825 96.47955,46.14275 96.47955,44.20425 C96.47955,42.32225 98.19505,42.18425 99.00955,42.18425 L100.35305,42.18425 L100.35305,46.23825 Z M95.67505,51.51525 L96.79505,51.51525 L99.49555,47.05725 L100.35305,47.05725 L100.35305,51.51525 L101.35255,51.51525 L101.35255,41.36525 L99.00955,41.36525 C95.93705,41.36525 95.49405,43.40275 95.49405,44.30325 C95.49405,46.01875 96.83755,47.05725 98.41805,46.99975 L95.67505,51.51525 Z"/>
      <polygon points="103.901 51.515 104.896 51.515 104.896 46.338 110.712 46.338 110.712 51.515 111.708 51.515 111.708 41.365 110.712 41.365 110.712 45.523 104.896 45.523 104.896 41.365 103.901 41.365"/>
      <path d="M115.9185 47.41845L117.6765 43.26445 119.4765 47.41845 115.9185 47.41845zM113.161 51.51495L114.1605 51.51495 115.557 48.21945 119.8345 48.21945 121.2345 51.51495 122.2305 51.51495 117.6765 41.10295 113.161 51.51495zM128.0606 46.23825L126.6216 46.23825C125.8026 46.23825 124.1831 46.14275 124.1831 44.20425 124.1831 42.32225 125.9021 42.18425 126.7171 42.18425L128.0606 42.18425 128.0606 46.23825zM123.3826 51.51525L124.5026 51.51525 127.2026 47.05725 128.0606 47.05725 128.0606 51.51525 129.0561 51.51525 129.0561 41.36525 126.7171 41.36525C123.6446 41.36525 123.2016 43.40275 123.2016 44.30325 123.2016 46.01875 124.5451 47.05725 126.1221 46.99975L123.3826 51.51525z"/>
      <polygon points="134.971 51.515 135.967 51.515 135.967 46.6 140.522 51.515 141.822 51.515 136.906 46.281 141.74 41.365 140.522 41.365 135.967 46.1 135.967 41.365 134.971 41.365"/>
      <path d="M148.2471,50.97655 C145.7701,50.97655 143.8316,49.11955 143.8316,46.46155 C143.8316,43.80355 145.7701,41.90705 148.2471,41.90705 C150.7281,41.90705 152.7056,43.80355 152.7056,46.46155 C152.7056,49.11955 150.7281,50.97655 148.2471,50.97655 M148.2471,51.83455 C151.2666,51.83455 153.7441,49.66155 153.7441,46.46155 C153.7441,43.26455 151.2666,41.10305 148.2471,41.10305 C145.2706,41.10305 142.7931,43.26455 142.7931,46.46155 C142.7931,49.66155 145.2706,51.83455 148.2471,51.83455"/>
      <polygon points="155.116 51.515 156.073 51.515 157.012 44.024 160.751 51.973 164.447 44.024 165.447 51.515 166.343 51.515 164.947 40.965 160.751 50.034 156.512 40.965"/>
      <polygon points="168.214 41.365 168.214 51.515 169.21 51.515 169.21 42.184 175.026 42.184 175.026 51.515 176.022 51.515 176.022 41.365"/>
      <path d="M180.23245,47.41845 L181.99045,43.26445 L183.79045,47.41845 L180.23245,47.41845 Z M177.47845,51.51495 L178.47445,51.51495 L179.87045,48.21945 L184.15195,48.21945 L185.54845,51.51495 L186.54445,51.51495 L181.99045,41.10295 L177.47845,51.51495 Z"/>
      <polygon points="187.959 51.515 188.954 51.515 188.954 46.338 194.77 46.338 194.77 51.515 195.77 51.515 195.77 41.365 194.77 41.365 194.77 45.523 188.954 45.523 188.954 41.365 187.959 41.365"/>
      <polygon points="198.3 41.365 198.3 51.973 205.253 43.484 205.253 51.515 206.235 51.515 206.235 40.965 199.299 49.396 199.299 41.365"/>
      <path d="M213.1563,46.23825 L211.7178,46.23825 C210.9023,46.23825 209.2828,46.14275 209.2828,44.20425 C209.2828,42.32225 210.9983,42.18425 211.8168,42.18425 L213.1563,42.18425 L213.1563,46.23825 Z M208.4788,51.51525 L209.5983,51.51525 L212.2988,47.05725 L213.1563,47.05725 L213.1563,51.51525 L214.1558,51.51525 L214.1558,41.36525 L211.8168,41.36525 C208.7408,41.36525 208.2973,43.40275 208.2973,44.30325 C208.2973,46.01875 209.6408,47.05725 211.2213,46.99975 L208.4788,51.51525 Z"/>
    </g>
  </g>
</svg>
