<svg xmlns="http://www.w3.org/2000/svg" width="178" height="95" viewBox="0 0 178 95">
  <path fill="#FFF" fill-rule="evenodd" d="M0.0616105206,88.7295068 L0.0616105206,93.326005 L0.253131688,97.7309822 C8.53640353,203.846261 86.0065617,203.84307 94.2898335,97.7309822 L94.4813547,93.326005 L94.4813547,84.1330085 C94.1302331,57.4541614 83.5774372,10.5762598 54.4535118,1.0129898 L52.155261,0.438427599 L49.6654923,0.0553859124 C18.1379816,-1.83109353 2.88654044,46.3044601 1.01921311,70.9180739 L0.253131688,79.7280281 L0.0616105206,84.1330085 L0.0616105206,88.7295068 Z M4.08354531,88.7295068 L4.08354531,92.9429627 L4.27506647,97.1564219 C11.7092675,197.008972 82.9837226,197.008972 90.2678988,97.1564219 L90.4594199,92.9429627 L90.4594199,84.5160476 C90.3668485,59.9630845 80.6886658,15.2557507 53.8789483,6.18405095 L51.7722219,5.60948874 L49.4739712,5.4179679 C20.3596213,3.3080472 6.79037435,49.5603135 4.84962998,71.8756765 L4.46658764,76.0891357 L4.27506647,80.3025916 L4.08354531,84.5160476 L4.08354531,88.7295068 Z M9.44612827,88.7295068 L9.63764943,92.7514415 L9.63764943,96.7733796 C16.5132441,189.810983 78.1605916,189.839709 84.9053158,96.7733796 L85.096837,92.7514415 L85.096837,84.7075687 C84.9340425,63.2093623 76.7720656,19.9607775 53.1128669,11.7381531 L51.1976584,11.1635896 L49.28245,10.9720685 C22.9962241,9.03451843 11.8465228,53.54714 10.2122129,73.0248035 L10.0206918,76.8552171 L9.63764943,80.6856339 L9.63764943,84.7075687 L9.44612827,88.7295068 Z M7.722441,88.7295068 L7.722441,92.7514415 L7.91396217,96.7733796 C14.6491108,191.863446 79.9864226,191.866637 86.6290031,96.7733796 L86.8205242,92.7514415 L86.8205242,84.7075687 C86.8556357,62.4177417 77.9307681,18.3136981 53.304388,10.2059874 L51.3891796,9.63142482 L49.28245,9.24838346 C21.8215644,8.09606665 10.2920115,51.765996 8.48852567,72.6417611 L8.10548334,76.6636959 L7.91396217,80.6856339 L7.722441,84.7075687 L7.722441,88.7295068 Z M63.2634693,24.9530877 L31.4710171,24.9530877 L31.4710171,34.3376055 L50.2400558,46.2118919 L31.4710171,46.2118919 L31.4710171,54.8303282 L63.2634693,54.8303282 L63.2634693,45.6373317 L44.1113882,33.5715208 L63.2634693,33.5715208 L63.2634693,24.9530877 Z M63.2634693,60.7674714 L31.4710171,60.7674714 L31.4710171,69.7689501 L55.6026356,69.7689501 L55.6026356,79.344989 L63.2634693,79.344989 L63.2634693,60.7674714 Z M63.2634693,80.6856339 L31.4710171,85.4736534 L31.4710171,94.4751288 L50.8146161,100.029233 L31.4710171,105.774855 L31.4710171,114.776334 L63.2634693,119.564353 L63.2634693,110.754396 L44.8774729,108.456145 L63.2634693,102.902044 L63.2634693,97.1564219 L44.8774729,91.7938389 L63.2634693,89.304067 L63.2634693,80.6856339 Z M63.2634693,123.011724 L31.4710171,123.011724 L31.4710171,132.013203 L44.8774729,132.013203 L31.4710171,141.780763 L31.4710171,152.314405 L46.7926813,140.057076 L63.2634693,152.697447 L63.2634693,141.397721 L49.6654923,132.013203 L63.2634693,132.013203 L63.2634693,123.011724 Z" transform="matrix(0 1 1 0 .19 .071)"/>
</svg>
