<svg xmlns="http://www.w3.org/2000/svg" width="238" height="50" viewBox="0 0 238 50">
  <g fill="none" fill-rule="evenodd">
    <path fill="#FFF" fill-rule="nonzero" d="M99.9,22.8 L95.3,22.8 L95.3,16.6 L90,16.6 L90,33.3 L95.4,33.3 L95.4,27.4 L100,27.4 L100,33.3 L105.4,33.3 L105.4,16.6 L100,16.6 L100,22.8 L99.9,22.8 Z M149.7,22.8 L145.1,22.8 L145.1,16.6 L139.7,16.6 L139.7,33.3 L145.1,33.3 L145.1,27.4 L149.7,27.4 L149.7,33.3 L155.1,33.3 L155.1,16.6 L149.7,16.6 L149.7,22.8 Z M231.6,21.5 L229,21.5 L229,16.6 L223.6,16.6 L223.6,33.3 L231.5,33.3 C235,33.3 237.8,31.4 237.8,28 L237.8,26.8 C237.9,23.4 235,21.5 231.6,21.5 Z M231,29.2 L229,29.2 L229,25.6 L230.8,25.6 C232.3,25.6 232.7,26.7 232.7,27.4 C232.7,28.9 231.4,29.2 231,29.2 Z M197,27 L203,27 L203,23 L197,23 L197,21 L203.6,21 L203.6,16.7 L191.6,16.7 L191.6,33.4 L204,33.4 L204,29 L197,29 L197,27 Z M190.4,16.6 L184.6,16.6 L181.8,22.9 L180.5,22.9 L180.5,16.6 L175.1,16.6 L175.1,33.3 L180.5,33.3 L180.5,27.4 L181.8,27.4 L184.7,33.3 L190.9,33.3 L186.4,24.9 L190.4,16.6 Z M116,16.4 L113.4,16.4 C109.9,16.4 107.1,18.9 107.1,22.7 L107.1,27.4 C107.1,31.3 109.9,33.7 113.4,33.7 L116,33.7 C119.5,33.7 122.3,31.2 122.3,27.4 L122.3,22.7 C122.4,18.6 119.5,16.4 116,16.4 Z M117,27.7 C117,28.8 116.1,29.7 115,29.7 L114.5,29.7 C113.4,29.7 112.5,28.8 112.5,27.7 L112.5,22.3 C112.5,21.2 113.4,20.3 114.5,20.3 L115,20.3 C116.1,20.3 117,21.2 117,22.3 L117,27.7 Z M208.1,25.5 C208.1,28 207.4,28.4 206.5,28.8 C206.1,29 205,29 205,29 L205,33.4 L207.1,33.4 C211.6,33.4 213.3,30.8 213.3,24.9 L213.3,21.1 L216.3,21.1 L216.3,33.4 L221.7,33.4 L221.7,16.6 L208.2,16.6 L208.2,25.5 L208.1,25.5 Z M132.1,16.6 L124.2,16.6 L124.2,33.3 L129.6,33.3 L129.6,29.2 L132.2,29.2 C135.7,29.2 138.5,27.3 138.5,23.9 L138.5,22 C138.4,18.5 135.6,16.6 132.1,16.6 Z M133.2,23.4 C133.2,24 132.9,25.2 131.3,25.2 L129.5,25.2 L129.5,20.8 L131.5,20.8 C132,20.8 133.1,21.2 133.1,22.5 L133.1,23.4 L133.2,23.4 Z M162.5,25.1 L162.5,16.7 L157.4,16.7 L157.4,33.4 L162.1,33.4 L167.6,25 L167.6,33.4 L172.7,33.4 L172.7,16.6 L168,16.6 L162.5,25.1 Z"/>
    <polygon fill="#00589C" points="25 33.1 50 50 50 16.9 25 0"/>
    <path fill="#0080C8" fill-rule="nonzero" d="M0,25 C0,38.8 11.2,50 25,50 L25,0 C11.2,0 0,11.2 0,25 M50,0 L50,50 C63.8,50 75,38.8 75,25 C75,11.2 63.8,0 50,0"/>
  </g>
</svg>
