<svg xmlns="http://www.w3.org/2000/svg" xmlns:xlink="http://www.w3.org/1999/xlink" width="245" height="81" viewBox="0 0 245 81">
  <defs>
    <path id="rosatom-a" d="M15.2426061,14.1235384 C12.0603636,17.5519304 6.63472727,17.813271 3.12242424,14.7085614 C-0.391151515,11.6046776 -0.663090909,6.30561552 2.51448485,2.87681064 C5.69545455,-0.551994235 11.1236364,-0.810444789 14.6363636,2.29426475 C18.1490909,5.39856142 18.4201818,10.6947335 15.2426061,14.1235384"/>
    <radialGradient id="rosatom-b" cx="33.999%" cy="22.135%" r="72.096%" fx="33.999%" fy="22.135%" gradientTransform="matrix(.97612 .00105 -.00103 1.0029 .008 -.001)">
      <stop offset="0%" stop-color="#478ABD"/>
      <stop offset="100%" stop-color="#152154"/>
    </radialGradient>
    <path id="rosatom-d" d="M24.6279637,0.338627946 L24.75867,0.338627946 C35.1053672,0.354940263 45.4464209,4.24524139 53.3607008,12.0128367 C54.2231341,12.8662121 55.0181308,13.7600084 55.7888336,14.665766 C55.6179387,14.8431229 55.4474626,15.0225421 55.2765676,15.1908249 C50.2954815,20.1081481 44.845272,21.6919865 40.6508056,22.0640236 C40.538551,22.0730976 40.4329982,22.0867088 40.3203248,22.0957828 C40.1955045,22.1044444 40.0811556,22.1044444 39.9580107,22.1118687 C38.0643436,22.2034343 36.0316148,22.094133 33.8556358,21.6965236 C33.8556358,21.6965236 32.2618726,17.7447643 28.8519313,13.7208249 C28.2550555,13.019234 27.6003769,12.3143434 26.8887334,11.6271886 C21.5202016,6.42939394 12.8786959,2.32296296 0.404618996,8.27555556 C7.5716597,2.99833547 16.0982668,0.352075635 24.6279643,0.338627946 L24.6279637,0.338627946 Z"/>
    <linearGradient id="rosatom-e" x1="76.044%" x2="92.558%" y1="2.618%" y2="16.435%">
      <stop offset="0%" stop-color="#478ABD"/>
      <stop offset="100%" stop-color="#152154"/>
    </linearGradient>
    <path id="rosatom-g" d="M14.3814703,26.2575029 C14.6284303,25.3058599 14.9190448,24.3946772 15.2350206,23.5334506 C17.055623,18.6092656 19.713977,15.27129 19.713977,15.27129 C18.9814121,13.2148328 18.0679927,11.4246705 17.0481394,9.85414989 C16.9807867,9.75258625 16.9242436,9.65515122 16.8543964,9.55276186 C16.7907855,9.46110687 16.726343,9.37812195 16.6627321,9.28646696 C14.2563273,5.89234235 10.1685988,2.03292417 3.40422303,0.241936142 C3.1722303,0.180419956 2.93109091,0.125096674 2.69161455,0.0677090909 C2.28334061,1.17912905 1.89751758,2.30499911 1.5807103,3.46802661 C-3.63663152,22.9294359 6.49163879,42.8301286 24.5991285,50.5415335 C13.2131915,42.8730661 12.5084824,33.4412723 14.3814703,26.2575029"/>
    <linearGradient id="rosatom-h" x1="55.462%" x2="33.5%" y1="83.839%" y2="9.491%">
      <stop offset="0%" stop-color="#478ABD"/>
      <stop offset="100%" stop-color="#152154"/>
    </linearGradient>
    <path id="rosatom-j" d="M34.61185,4.75304526 L34.61185,4.94244479 C34.5701803,22.7105133 22.8039126,38.9378164 4.93757727,43.7869329 C3.77112273,44.0983347 2.6026,44.3323025 1.43490455,44.5383772 C1.36541364,44.3014953 1.29302727,44.0641971 1.23139545,43.832311 C-0.579918182,37.0634834 0.735859091,31.5731521 2.48347273,27.7742991 C2.53145455,27.6735514 2.57157727,27.5757179 2.61955909,27.4741376 C2.67333182,27.3629822 2.73,27.2634834 2.7846,27.1548258 C3.63958636,25.4779184 4.73861818,23.7831096 6.15821818,22.1116143 C6.15821818,22.1116143 10.3773091,22.7335854 15.5556227,21.8293543 C16.4602455,21.6690739 17.3950636,21.4617502 18.3435318,21.1957264 C25.5089545,19.1986746 33.3415727,13.8324044 34.3314045,0.0920050977 C34.5159755,1.6527508 34.6082282,3.20858188 34.61185,4.75304917 L34.61185,4.75304526 Z"/>
    <linearGradient id="rosatom-k" x1="99.084%" x2="85.068%" y1="47.508%" y2="70.315%">
      <stop offset="0%" stop-color="#478ABD"/>
      <stop offset="100%" stop-color="#152154"/>
    </linearGradient>
    <path id="rosatom-m" d="M13.9279033,3.38570031 C31.8627299,-5.6369559 40.6417113,6.79743156 40.6417113,6.79743156 C33.7094467,9.70701776 28.3640656,16.3923484 25.5489949,25.4532113 C23.2202137,32.9496993 19.7553488,35.6686719 18.6272926,36.3849423 C14.0098669,22.7027496 1.62026054,20.2197348 0.404325773,20.0089682 C5.04583355,8.91349425 13.9279033,3.38570031 13.9279033,3.38570031 Z"/>
    <linearGradient id="rosatom-n" x1="69.438%" x2="76.861%" y1="28.883%" y2="5.215%">
      <stop offset="0%" stop-color="#478ABD"/>
      <stop offset="100%" stop-color="#152154"/>
    </linearGradient>
    <path id="rosatom-p" d="M31.0788839,20.4302756 C31.0764168,15.9097254 32.3239636,9.92694809 37.3203189,4.29123794 L37.3766517,4.20405797 C36.5600308,3.32812648 33.7063804,1.17011225 26.3633706,2.85256179 C17.3081706,4.92711462 7.31833846,4.68664664 1.47657902,0.247491963 C1.47657902,0.247491963 -4.79733986,13.8012922 11.5819552,24.5500458 C11.5819552,24.5500458 20.5795888,29.3461839 32.2367916,27.8281781 C32.0266741,27.2443615 31.0792951,24.3975842 31.0788839,20.4302756"/>
    <linearGradient id="rosatom-q" x1="85.135%" x2="8.99%" y1="43.978%" y2="54.353%">
      <stop offset="0%" stop-color="#478ABD"/>
      <stop offset="100%" stop-color="#152154"/>
    </linearGradient>
    <path id="rosatom-s" d="M24.2576727,0.295979798 C22.917888,1.8698472 16.5525207,8.32758825 5.92704,8.3358674 C4.21820509,8.3358674 2.40160582,8.16780055 0.481946182,7.78406171 L0.392570182,7.76336382 C0.0414807273,9.00772084 -0.248029091,12.5317433 4.93706182,17.944241 C11.5051287,24.7993815 16.4845265,33.6295144 15.5432989,40.9458039 C15.5432989,40.9458039 30.9544582,39.6265205 32.0722996,19.9614571 C32.0722996,19.9614571 31.6912756,9.70358384 24.2576727,0.295979798"/>
    <linearGradient id="rosatom-t" x1="45.897%" x2="64.696%" y1="18.562%" y2="90.525%">
      <stop offset="0%" stop-color="#478ABD"/>
      <stop offset="100%" stop-color="#152154"/>
    </linearGradient>
  </defs>
  <g fill="none" fill-rule="evenodd">
    <g transform="translate(32.073 32.073)">
      <mask id="rosatom-c" fill="#fff">
        <use xlink:href="#rosatom-a"/>
      </mask>
      <path fill="url(#rosatom-b)" d="M15.2426061,14.1235384 C12.0603636,17.5519304 6.63472727,17.813271 3.12242424,14.7085614 C-0.391151515,11.6046776 -0.663090909,6.30561552 2.51448485,2.87681064 C5.69545455,-0.551994235 11.1236364,-0.810444789 14.6363636,2.29426475 C18.1490909,5.39856142 18.4201818,10.6947335 15.2426061,14.1235384" mask="url(#rosatom-c)"/>
    </g>
    <g transform="translate(16.036)">
      <mask id="rosatom-f" fill="#fff">
        <use xlink:href="#rosatom-d"/>
      </mask>
      <polygon fill="url(#rosatom-e)" points="-151.209 102.702 64.788 102.702 64.788 .339 -151.209 .339" mask="url(#rosatom-f)"/>
    </g>
    <g transform="translate(0 26.727)">
      <mask id="rosatom-i" fill="#fff">
        <use xlink:href="#rosatom-g"/>
      </mask>
      <path fill="url(#rosatom-h)" d="M14.3814703,26.2575029 C14.6284303,25.3058599 14.9190448,24.3946772 15.2350206,23.5334506 C17.055623,18.6092656 19.713977,15.27129 19.713977,15.27129 C18.9814121,13.2148328 18.0679927,11.4246705 17.0481394,9.85414989 C16.9807867,9.75258625 16.9242436,9.65515122 16.8543964,9.55276186 C16.7907855,9.46110687 16.726343,9.37812195 16.6627321,9.28646696 C14.2563273,5.89234235 10.1685988,2.03292417 3.40422303,0.241936142 C3.1722303,0.180419956 2.93109091,0.125096674 2.69161455,0.0677090909 C2.28334061,1.17912905 1.89751758,2.30499911 1.5807103,3.46802661 C-3.63663152,22.9294359 6.49163879,42.8301286 24.5991285,50.5415335 C13.2131915,42.8730661 12.5084824,33.4412723 14.3814703,26.2575029" mask="url(#rosatom-i)"/>
    </g>
    <g transform="translate(46.327 35.636)">
      <mask id="rosatom-l" fill="#fff">
        <use xlink:href="#rosatom-j"/>
      </mask>
      <polygon fill="url(#rosatom-k)" points="-178.691 67.859 34.612 67.859 34.612 -35.461 -178.691 -35.461" mask="url(#rosatom-l)"/>
    </g>
    <g transform="translate(2.673 4.455)">
      <mask id="rosatom-o" fill="#fff">
        <use xlink:href="#rosatom-m"/>
      </mask>
      <polygon fill="url(#rosatom-n)" points="-139 99.505 78.87 99.505 78.87 -4.694 -139 -4.694" mask="url(#rosatom-o)"/>
    </g>
    <g transform="translate(13.364 52.564)">
      <mask id="rosatom-r" fill="#fff">
        <use xlink:href="#rosatom-p"/>
      </mask>
      <path fill="url(#rosatom-q)" d="M31.0788839,20.4302756 C31.0764168,15.9097254 32.3239636,9.92694809 37.3203189,4.29123794 L37.3766517,4.20405797 C36.5600308,3.32812648 33.7063804,1.17011225 26.3633706,2.85256179 C17.3081706,4.92711462 7.31833846,4.68664664 1.47657902,0.247491963 C1.47657902,0.247491963 -4.79733986,13.8012922 11.5819552,24.5500458 C11.5819552,24.5500458 20.5795888,29.3461839 32.2367916,27.8281781 C32.0266741,27.2443615 31.0792951,24.3975842 31.0788839,20.4302756" mask="url(#rosatom-r)"/>
    </g>
    <g transform="translate(49 16.036)">
      <mask id="rosatom-u" fill="#fff">
        <use xlink:href="#rosatom-s"/>
      </mask>
      <path fill="url(#rosatom-t)" d="M24.2576727,0.295979798 C22.917888,1.8698472 16.5525207,8.32758825 5.92704,8.3358674 C4.21820509,8.3358674 2.40160582,8.16780055 0.481946182,7.78406171 L0.392570182,7.76336382 C0.0414807273,9.00772084 -0.248029091,12.5317433 4.93706182,17.944241 C11.5051287,24.7993815 16.4845265,33.6295144 15.5432989,40.9458039 C15.5432989,40.9458039 30.9544582,39.6265205 32.0722996,19.9614571 C32.0722996,19.9614571 31.6912756,9.70358384 24.2576727,0.295979798" mask="url(#rosatom-u)"/>
    </g>
    <g fill="#FFF" transform="translate(94.436 28.51)">
      <path d="M5.85683636 11.3466182C6.28536364 11.4455091 6.81278182 11.4784727 7.53709091 11.4784727 10.2080364 11.4784727 11.8562182 10.1260727 11.8562182 7.85247273 11.8562182 5.80872727 10.4387818 4.58907273 7.93443636 4.58907273 6.91167273 4.58907273 6.21943636 4.68707273 5.85683636 4.78596364L5.85683636 11.3466182zM.879327273 1.25885455C2.42861818.995145455 4.60332727.797363636 7.66983636.797363636 10.7684182.797363636 12.9769818 1.39070909 14.4612364 2.5774 15.8786727 3.69905455 16.8346182 5.54501818 16.8346182 7.71972727 16.8346182 9.89621818 16.1094182 11.7421818 14.7899818 12.9948 13.0758727 14.6100182 10.5376727 15.3352182 7.57094545 15.3352182 6.91167273 15.3352182 6.31743636 15.3022545 5.85683636 15.2363273L5.85683636 23.1814545.879327273 23.1814545.879327273 1.25885455zM25.5370182 12.1377455C25.5370182 16.4889455 27.5807636 19.5545636 30.9430545 19.5545636 34.3374182 19.5545636 36.2831636 16.3241273 36.2831636 12.0058909 36.2831636 8.0164 34.3712727 4.58907273 30.9100909 4.58907273 27.5139455 4.58907273 25.5370182 7.81950909 25.5370182 12.1377455zM41.5903091 11.8410727C41.5903091 19.1260364 37.1731818 23.5440545 30.6784545 23.5440545 24.0857273 23.5440545 20.2289818 18.5656545 20.2289818 12.2366364 20.2289818 5.57709091 24.4812909.599581818 31.0419455.599581818 37.8645273.599581818 41.5903091 5.70894545 41.5903091 11.8410727zM62.5213273 22.5551455C61.5992364 23.0166364 59.5216364 23.5440545 56.8195091 23.5440545 49.1380909 23.5440545 45.1815636 18.7313636 45.1815636 12.4014545 45.1815636 4.81892727 50.5884909.599581818 57.3139636.599581818 59.9180909.599581818 61.8950182 1.127 62.7859273 1.58849091L61.7640545 5.57709091C60.7412909 5.14856364 59.3247455 4.753 57.5438182 4.753 53.5552182 4.753 50.4557455 7.15934545 50.4557455 12.1047818 50.4557455 16.5548727 53.0937273 19.3576727 57.5767818 19.3576727 59.094 19.3576727 60.7742545 19.0280364 61.7640545 18.6315818L62.5213273 22.5551455M78.3438727 13.9507455L76.1691636 7.5558C75.6738182 6.1054 75.3441818 4.78596364 75.0145455 3.50038182L74.9486182 3.50038182C74.6180909 4.81892727 74.2563818 6.17043636 73.8278545 7.52283636L71.6513636 13.9507455 78.3438727 13.9507455zM71.0580182 16.1922727L68.7505636 23.1814545 65.7838364 23.1814545 73.3325091.962181818 76.7945818.962181818 84.3762182 23.1814545 81.3106 23.1814545 78.9372182 16.1922727 71.0580182 16.1922727z"/>
      <polyline points="91.726 3.402 84.969 3.402 84.969 .962 101.418 .962 101.418 3.402 94.627 3.402 94.627 23.181 91.726 23.181 91.726 3.402"/>
      <path d="M105.801691 12.2027818C105.801691 16.9513273 108.373745 21.2036364 112.889764 21.2036364 117.439636 21.2036364 120.011691 17.0163636 120.011691 11.9729273 120.011691 7.5558 117.703345 2.94 112.922727 2.94 108.175073 2.94 105.801691 7.32505455 105.801691 12.2027818zM123.043455 11.8410727C123.043455 19.4886364 118.394691 23.5440545 112.725836 23.5440545 106.857418 23.5440545 102.736073 18.9950727 102.736073 12.2696 102.736073 5.21538182 107.121127.599581818 113.054582.599581818 119.120782.599581818 123.043455 5.24834545 123.043455 11.8410727zM146.712236 13.4233273C146.547418 10.3247455 146.348745 6.59896364 146.381709 3.83001818L146.282818 3.83001818C145.523764 6.43503636 144.601673 9.23605455 143.480909 12.2696L139.558236 23.0487091 137.382636 23.0487091 133.788709 12.4673818C132.734764 9.33583636 131.843855 6.46710909 131.217545 3.83001818L131.150727 3.83001818C131.085691 6.59896364 130.921764 10.3247455 130.723091 13.6540727L130.129745 23.1814545 127.393764 23.1814545 128.943055.962181818 132.602018.962181818 136.393727 11.7092182C137.315818 14.4452 138.074873 16.8845091 138.635255 19.1919636L138.734145 19.1919636C139.294527 16.9513273 140.085655 14.5111273 141.074564 11.7092182L145.0302.962181818 148.689164.962181818 150.074527 23.1814545 147.272618 23.1814545 146.712236 13.4233273"/>
    </g>
  </g>
</svg>
