<?xml version="1.0" encoding="utf-8"?>
<!-- Generator: Adobe Illustrator 13.0.1, SVG Export Plug-In . SVG Version: 6.00 Build 14948)  -->
<!DOCTYPE svg PUBLIC "-//W3C//DTD SVG 1.1//EN" "http://www.w3.org/Graphics/SVG/1.1/DTD/svg11.dtd">
<svg version="1.1" id="Layer_1" xmlns="http://www.w3.org/2000/svg" xmlns:xlink="http://www.w3.org/1999/xlink" x="0px" y="0px"
	 width="380.723px" height="460.896px" viewBox="0 0 380.723 460.896" enable-background="new 0 0 380.723 460.896"
	 xml:space="preserve">
<g>
	<path fill="#FFFFFF" d="M322.134,58.574C288.408,24.852,241.833,4.002,190.361,4C138.885,4.002,92.31,24.852,58.583,58.574
		C24.857,92.301,4.007,138.877,4.007,190.352s20.85,98.049,54.575,131.775c33.728,33.725,80.303,54.574,131.776,54.576
		c51.473-0.002,98.049-20.854,131.775-54.576c33.727-33.729,54.574-80.303,54.576-131.775
		C376.71,138.877,355.861,92.301,322.134,58.574z"/>
	<g>
		<g>
			<path fill="#C5C9CC" d="M0,190.369C0.002,85.222,85.23,0,190.361,0l0,0v2v2C138.895,4,92.317,24.855,58.585,58.583l0,0
				c-33.728,33.73-54.583,80.31-54.586,131.785l0,0c0.003,51.467,20.858,98.042,54.586,131.771l0,0
				c33.732,33.728,80.31,54.58,131.776,54.58l0,0c51.466,0,98.044-20.854,131.776-54.58l0,0
				c33.729-33.729,54.584-80.305,54.584-131.771l0,0c0-51.475-20.855-98.055-54.584-131.785l0,0C288.405,24.855,241.827,4,190.361,4
				l0,0V2V0c105.132,0,190.36,85.222,190.362,190.369l0,0c-0.002,105.129-85.23,190.353-190.362,190.354l0,0
				C85.23,380.722,0.002,295.498,0,190.369L0,190.369z"/>
		</g>
		<path fill="#A0A4A7" d="M190.363,136.021l1.286-0.359c-64.013,19.866-114.664,53.902-115.701,78.897
			c-1.114,26.754,55.024,33.03,125.355,14.024c70.328-19.007,128.266-56.116,129.379-82.868
			c0.574-13.864-14.234-22.226-38.418-24.425c29.559,1.322,48.07,9.934,48.07,25.319c0,29.314-67.16,72.115-149.973,95.589
			c-82.814,23.469-149.976,18.725-149.976-10.59C40.388,202.296,107.549,159.491,190.363,136.021L190.363,136.021z"/>
		<polygon fill="#DB2128" stroke="#DB2128" stroke-width="0.5" stroke-miterlimit="2.4142" points="69.773,290.16 277.685,90.565 
			258.834,247.467 224.459,208.103 		"/>
	</g>
	<path fill="#A0A4A7" stroke="#A0A4A7" stroke-width="0.216" stroke-miterlimit="2.4142" d="M13.387,437.352
		c3.672,0,6.264-0.575,7.775-1.871c1.512-1.225,2.305-3.313,2.305-6.192c0-5.471-3.457-8.207-10.44-8.207H9.282v16.271H13.387
		L13.387,437.352z M13.242,440.736h-3.96v18.647H5.467v-41.688h7.199c4.608,0,8.209,0.864,10.944,2.664
		c2.664,1.729,3.96,4.682,3.96,8.641c0,4.607-1.296,7.633-3.96,9.287C20.946,439.943,17.49,440.736,13.242,440.736L13.242,440.736z
		 M53.635,457.225c3.455,0,6.479-0.793,9.287-2.448c2.809-1.584,4.969-3.814,6.553-6.552c1.656-2.809,2.447-5.903,2.447-9.36
		c0-3.023-0.647-5.902-2.016-8.783c-1.369-2.881-3.456-5.256-6.191-7.129c-2.736-1.871-6.049-2.808-9.937-2.808
		c-2.735,0-5.544,0.648-8.424,2.017c-2.808,1.367-5.185,3.455-7.056,6.264c-1.873,2.81-2.809,6.265-2.809,10.152
		c0,3.313,0.721,6.408,2.232,9.217c1.584,2.808,3.744,5.111,6.552,6.769C47.082,456.359,50.178,457.225,53.635,457.225
		L53.635,457.225z M53.635,460.465c-3.889,0-7.561-0.865-10.944-2.521c-3.456-1.728-6.192-4.248-8.208-7.56
		c-2.016-3.313-3.096-7.272-3.096-11.881c0-4.393,1.08-8.207,3.24-11.52c2.088-3.24,4.896-5.761,8.424-7.562
		c3.455-1.799,7.127-2.664,10.871-2.664c3.313,0,6.265,0.576,8.928,1.729c2.664,1.08,4.969,2.664,6.912,4.68
		c2.017,1.943,3.529,4.32,4.608,6.984c1.08,2.809,1.584,5.614,1.584,8.641c0,4.318-0.936,8.135-2.952,11.447
		s-4.752,5.832-8.136,7.561C61.482,459.6,57.738,460.465,53.635,460.465L53.635,460.465z M103.026,420.145
		c-3.601,0-6.84,0.791-9.504,2.304c-2.736,1.514-4.752,3.672-6.192,6.407c-1.512,2.882-2.232,6.121-2.232,9.794
		c0,5.688,1.656,10.225,4.896,13.534c3.24,3.313,7.561,4.97,12.889,4.97c4.607,0,9.071-1.656,13.319-4.97v4.394
		c-1.944,1.225-4.032,2.088-6.264,2.735c-2.376,0.72-4.752,1.009-7.272,1.009c-3.312,0-6.623-0.576-9.863-1.802
		c-3.24-1.223-6.049-3.454-8.353-6.694c-2.376-3.168-3.528-7.488-3.528-12.961c0-3.959,0.793-7.631,2.305-11.017
		c1.439-3.313,3.888-5.975,7.199-7.992c3.385-2.088,7.633-3.096,12.672-3.096c4.681,0,9.217,1.439,13.465,4.465l-0.145,4.104
		c-1.584-1.297-3.384-2.521-5.472-3.601C108.786,420.648,106.194,420.145,103.026,420.145L103.026,420.145z M122.754,459.385
		v-41.688h3.816v19.514l18.792-19.514h4.968l-19.728,20.018l20.735,21.672h-5.472l-19.296-21.098v21.098L122.754,459.385
		L122.754,459.385z M176.826,457.225c3.385,0,6.48-0.793,9.288-2.448c2.734-1.584,4.966-3.814,6.55-6.552
		c1.584-2.809,2.449-5.903,2.449-9.36c0-3.023-0.721-5.902-2.018-8.783c-1.439-2.881-3.455-5.256-6.191-7.129
		c-2.809-1.871-6.047-2.808-9.936-2.808c-2.809,0-5.616,0.648-8.424,2.017c-2.881,1.367-5.256,3.455-7.129,6.264
		c-1.871,2.81-2.808,6.265-2.808,10.152c0,3.313,0.792,6.408,2.304,9.217c1.512,2.808,3.672,5.111,6.553,6.769
		C170.202,456.359,173.37,457.225,176.826,457.225L176.826,457.225z M176.826,460.465c-3.888,0-7.561-0.865-10.943-2.521
		c-3.457-1.728-6.192-4.248-8.209-7.56c-2.088-3.313-3.096-7.272-3.096-11.881c0-4.393,1.08-8.207,3.168-11.52
		c2.16-3.24,4.969-5.761,8.424-7.562c3.528-1.799,7.129-2.664,10.944-2.664c3.312,0,6.265,0.576,8.928,1.729
		c2.664,1.08,4.966,2.664,6.912,4.68c1.943,1.943,3.455,4.32,4.535,6.984c1.08,2.809,1.656,5.614,1.656,8.641
		c0,4.318-1.008,8.135-3.023,11.447c-2.015,3.312-4.68,5.832-8.063,7.561C184.673,459.6,180.93,460.465,176.826,460.465
		L176.826,460.465z M226.217,420.145c-3.672,0-6.84,0.791-9.575,2.304c-2.664,1.514-4.752,3.672-6.19,6.407
		c-1.441,2.882-2.16,6.121-2.16,9.794c0,5.688,1.584,10.225,4.896,13.534c3.237,3.313,7.485,4.97,12.813,4.97
		c4.681,0,9.146-1.656,13.394-4.97l-0.071,4.394c-1.943,1.225-4.031,2.088-6.265,2.735c-2.306,0.72-4.752,1.009-7.271,1.009
		c-3.24,0-6.554-0.576-9.865-1.802c-3.24-1.223-5.976-3.454-8.279-6.694c-2.377-3.168-3.527-7.488-3.527-12.961
		c0-3.959,0.719-7.631,2.23-11.017c1.514-3.313,3.889-5.975,7.273-7.992c3.311-2.088,7.559-3.096,12.672-3.096
		c4.68,0,9.143,1.439,13.391,4.465l-0.07,4.104c-1.584-1.297-3.457-2.521-5.545-3.601S229.313,420.145,226.217,420.145
		L226.217,420.145z M265.313,460.896l-14.615-33.337l-3.168,31.824h-3.889l5.688-43.487l15.984,37.151l16.561-37.151l5.4,43.487
		h-3.961l-3.023-31.824L265.313,460.896L265.313,460.896z M312.401,457.225c3.385,0,6.48-0.793,9.217-2.448
		c2.807-1.584,4.967-3.814,6.623-6.552c1.584-2.809,2.377-5.903,2.377-9.36c0-3.023-0.648-5.902-2.016-8.783
		c-1.369-2.881-3.457-5.256-6.193-7.129c-2.736-1.871-6.047-2.808-9.936-2.808c-2.736,0-5.545,0.648-8.352,2.017
		c-2.881,1.367-5.256,3.455-7.129,6.264c-1.871,2.81-2.808,6.265-2.808,10.152c0,3.313,0.72,6.408,2.304,9.217
		c1.512,2.808,3.672,5.111,6.479,6.769C305.778,456.359,308.874,457.225,312.401,457.225L312.401,457.225z M312.401,460.465
		c-3.959,0-7.561-0.865-11.016-2.521c-3.385-1.728-6.121-4.248-8.209-7.56c-2.016-3.313-3.023-7.272-3.023-11.881
		c0-4.393,1.008-8.207,3.168-11.52c2.16-3.24,4.969-5.761,8.424-7.562c3.457-1.799,7.129-2.664,10.873-2.664
		c3.311,0,6.336,0.576,8.928,1.729c2.664,1.08,4.967,2.664,6.984,4.68c1.943,1.943,3.455,4.32,4.535,6.984
		c1.08,2.809,1.656,5.614,1.656,8.641c0,4.318-1.008,8.135-3.023,11.447c-2.018,3.313-4.682,5.832-8.137,7.561
		C320.176,459.6,316.432,460.465,312.401,460.465L312.401,460.465z M361.793,420.145c-3.672,0-6.84,0.791-9.576,2.304
		c-2.664,1.514-4.752,3.672-6.189,6.407c-1.441,2.882-2.232,6.121-2.232,9.794c0,5.688,1.656,10.225,4.896,13.534
		c3.311,3.313,7.559,4.97,12.887,4.97c4.607,0,9.072-1.656,13.393-4.97l-0.072,4.394c-1.943,1.225-4.031,2.088-6.264,2.735
		c-2.305,0.72-4.752,1.009-7.271,1.009c-3.313,0-6.553-0.576-9.865-1.802c-3.24-1.223-6.047-3.454-8.352-6.694
		c-2.305-3.168-3.527-7.488-3.527-12.961c0-3.959,0.791-7.631,2.303-11.017c1.514-3.313,3.891-5.975,7.273-7.992
		c3.311-2.088,7.559-3.096,12.672-3.096c4.68,0,9.143,1.439,13.391,4.465l-0.143,4.104c-1.514-1.297-3.385-2.521-5.473-3.601
		S364.889,420.145,361.793,420.145L361.793,420.145z"/>
</g>
</svg>
