<svg xmlns="http://www.w3.org/2000/svg" width="276" height="49" viewBox="0 0 276 49">
  <g fill="none" fill-rule="evenodd" transform="translate(0 1)">
    <path fill="#FFF" d="M35.1595075,10.7611294 L35.4602139,10.6771841 C20.492,15.3224677 8.64823383,23.2811343 8.40575124,29.1257363 C8.14526368,35.3816468 21.2720597,36.8491692 37.7176169,32.4049801 C54.1624726,27.9605572 67.7101642,19.2833284 67.9704179,13.0278856 C68.1046368,9.78605473 64.6420697,7.83076119 58.9871045,7.31656716 C65.8989104,7.62569154 70.2273532,9.63944279 70.2273532,13.2369303 C70.2273532,20.0914478 54.5232736,30.0996418 35.1590398,35.5885871 C15.7945721,41.0763632 0.0900248756,39.9670697 0.0900248756,33.1123184 C0.0907263682,26.2582687 15.7950398,16.2491393 35.1595075,10.7611294 Z"/>
    <polygon fill="#DB2128" stroke="#DB2128" stroke-width=".5" points="6.962 46.804 55.578 .132 51.17 36.821 43.132 27.616"/>
    <g fill="#FFF" fill-rule="nonzero" transform="translate(87.219 12.393)">
      <path d="M4.26334631,11.3621458 C6.12992645,11.3621458 7.44751244,11.0698572 8.21559593,10.4110642 C8.98418776,9.78836254 9.3872918,8.72697383 9.3872918,7.26349773 C9.3872918,4.48243565 7.63000216,3.09165044 4.08034826,3.09165044 L2.17666018,3.09165044 L2.17666018,11.3626541 L4.26334631,11.3626541 L4.26334631,11.3621458 Z M4.18963876,13.0823275 L2.17666018,13.0823275 L2.17666018,22.5611183 L0.237389141,22.5611183 L0.237389141,1.36994376 L3.89684188,1.36994376 C6.23921696,1.36994376 8.06970582,1.80913909 9.4599827,2.72412935 C10.8141683,3.60302834 11.4729613,5.1041207 11.4729613,7.11659096 C11.4729613,9.45845771 10.8141683,10.996658 9.4599827,11.8374324 C8.1057971,12.6792234 6.34901579,13.0823275 4.18963876,13.0823275 Z M24.7225287,21.4641467 C26.4788016,21.4641467 28.0159853,21.0610426 29.4433701,20.2197599 C30.8712632,19.4145685 31.9692516,18.2809972 32.774443,16.8891953 C33.616234,15.4613022 34.0183214,13.8885356 34.0183214,12.1312459 C34.0183214,10.5945706 33.6894333,9.13109453 32.9935323,7.66660177 C32.2976314,6.20210902 31.236751,4.9948302 29.8464742,4.04273199 C28.4556889,3.09165044 26.7715985,2.61534718 24.7952196,2.61534718 C23.4049427,2.61534718 21.9770495,2.94474367 20.5130651,3.6406446 C19.0856803,4.33552888 17.8773848,5.39691759 16.9263033,6.82481073 C15.9742051,8.2532122 15.4984101,10.0094852 15.4984101,11.9853558 C15.4984101,13.6694462 15.8649146,15.2427212 16.6329981,16.6706143 C17.4381895,18.0979991 18.5361778,19.2686783 19.9635626,20.111486 C21.3914558,21.0239347 22.965239,21.4641467 24.7225287,21.4641467 Z M24.7225287,23.1111291 C22.7456414,23.1111291 20.8790612,22.6714255 19.1593878,21.8296344 C17.4026065,20.9512438 16.0118213,19.6702574 14.9870322,17.9866753 C13.9622431,16.3025849 13.413249,14.2901146 13.413249,11.9472312 C13.413249,9.71414666 13.9622431,7.77538395 15.0602315,6.09129353 C16.1216202,4.44431105 17.549005,3.16281635 19.3423859,2.24731776 C21.0986589,1.33283582 22.965239,0.893132165 24.8684188,0.893132165 C26.5525092,0.893132165 28.0530932,1.18592905 29.4067705,1.77203115 C30.7609561,2.32102531 31.932652,3.12621674 32.9203331,4.15100584 C33.9456305,5.138687 34.7142224,6.34698248 35.2627082,7.70116807 C35.8117024,9.12906122 36.0678996,10.554921 36.0678996,12.0936297 C36.0678996,14.2885897 35.5921047,16.2288774 34.5673156,17.9124594 C33.5425265,19.5960415 32.1517413,20.8770279 30.4315596,21.7559269 C28.7113779,22.6714255 26.8081981,23.1111291 24.7225287,23.1111291 Z M49.8293532,2.61534718 C47.9988644,2.61534718 46.3523902,3.01743457 44.9982046,3.78653472 C43.6074194,4.5561432 42.5826303,5.65311486 41.8506381,7.04339174 C41.0820463,8.50839282 40.7160502,10.154867 40.7160502,12.0219554 C40.7160502,14.9133247 41.5578412,17.2196085 43.2048237,18.9016656 C44.8518062,20.585756 47.0482912,21.4280554 49.7566623,21.4280554 C52.0985291,21.4280554 54.367705,20.5862643 56.527082,18.9016656 L56.527082,21.1352585 C55.5388925,21.7579602 54.4775038,22.1966472 53.3429159,22.5255354 C52.1351287,22.8915315 50.9273416,23.0384382 49.6463552,23.0384382 C47.9627731,23.0384382 46.2796993,22.7456414 44.6327169,22.1224313 C42.9857344,21.5007463 41.5578412,20.3666667 40.3866537,18.7196842 C39.1788665,17.1093013 38.5932728,14.9133247 38.5932728,12.1312459 C38.5932728,10.1187757 38.9963768,8.25219554 39.7649686,6.53099719 C40.4964525,4.84690677 41.7413476,3.49373783 43.4244214,2.46844041 C45.1451114,1.4070517 47.3044884,0.894657149 49.8659528,0.894657149 C52.2454359,0.894657149 54.5512113,1.62614103 56.7105884,3.16434134 L56.6368808,5.25051914 C55.8316894,4.59121782 54.9166991,3.96902444 53.8553104,3.42003028 C52.7573221,2.87103612 51.4397361,2.61534718 49.8293532,2.61534718 Z M59.8576465,22.562135 L59.8576465,1.37096042 L61.7974259,1.37096042 L61.7974259,11.2904716 L71.3499243,1.37096042 L73.8752974,1.37096042 L63.8470041,11.5466688 L74.3871836,22.5631516 L71.6056132,22.5631516 L61.7969176,11.8384491 L61.7969176,22.5631516 L59.8576465,22.562135 Z M87.3439541,21.4641467 C89.0646442,21.4641467 90.6379191,21.0610426 92.0653039,20.2197599 C93.4550725,19.4145685 94.5896604,18.2809972 95.3948518,16.8891953 C96.2000433,15.4613022 96.6397469,13.8885356 96.6397469,12.1312459 C96.6397469,10.5945706 96.2732425,9.13109453 95.6139412,7.66660177 C94.8824573,6.20210902 93.8576682,4.9948302 92.466883,4.04273199 C91.0389898,3.09165044 89.393024,2.61534718 87.4161367,2.61534718 C85.9882436,2.61534718 84.5613671,2.94474367 83.1339823,3.6406446 C81.6694895,4.33552888 80.4622107,5.39691759 79.5101125,6.82481073 C78.5590309,8.2532122 78.0827277,10.0094852 78.0827277,11.9853558 C78.0827277,13.6694462 78.4853234,15.2427212 79.2539152,16.6706143 C80.022507,18.0979991 81.1204953,19.2686783 82.5849881,20.111486 C83.97679,21.0239347 85.5871728,21.4641467 87.3439541,21.4641467 Z M87.3439541,23.1111291 C85.3675752,23.1111291 83.5004867,22.6714255 81.7813217,21.8296344 C80.024032,20.9512438 78.6337551,19.6702574 77.6084577,17.9866753 C76.547069,16.3025849 76.0346745,14.2901146 76.0346745,11.9472312 C76.0346745,9.71414666 76.5836686,7.77538395 77.6450573,6.09129353 C78.7430456,4.44431105 80.1709388,3.16281635 81.9272118,2.24731776 C83.7205927,1.33283582 85.5510815,0.893132165 87.4903526,0.893132165 C89.1739347,0.893132165 90.675027,1.18592905 92.0287043,1.77203115 C93.3828899,2.32102531 94.5530608,3.12621674 95.5422669,4.15100584 C96.5299481,5.138687 97.2985399,6.34698248 97.8475341,7.70116807 C98.3965282,9.12906122 98.6893251,10.554921 98.6893251,12.0936297 C98.6893251,14.2885897 98.1769306,16.2288774 97.1526498,17.9124594 C96.128369,19.5960415 94.7736751,20.8770279 93.0540017,21.7559269 C91.3328034,22.6714255 89.4301319,23.1111291 87.3439541,23.1111291 Z M112.450779,2.61534718 C110.584199,2.61534718 108.973816,3.01743457 107.583539,3.78653472 C106.229353,4.5561432 105.167965,5.65311486 104.436989,7.04339174 C103.704488,8.50839282 103.339001,10.154867 103.339001,12.0219554 C103.339001,14.9133247 104.144192,17.2196085 105.827774,18.9016656 C107.473232,20.585756 109.632609,21.4280554 112.34098,21.4280554 C114.720463,21.4280554 116.990147,20.5862643 119.149524,18.9016656 L119.113433,21.1352585 C118.125752,21.7579602 117.064363,22.1966472 115.928758,22.5255354 C114.756554,22.8915315 113.513184,23.0384382 112.232706,23.0384382 C110.585724,23.0384382 108.901125,22.7456414 107.218051,22.1224313 C105.571069,21.5007463 104.180283,20.3666667 103.009604,18.7196842 C101.801309,17.1093013 101.216732,14.9133247 101.216732,12.1312459 C101.216732,10.1187757 101.582219,8.25219554 102.350303,6.53099719 C103.119911,4.84690677 104.32719,3.49373783 106.047372,2.46844041 C107.730446,1.4070517 109.889823,0.894657149 112.488903,0.894657149 C114.867878,0.894657149 117.136546,1.62614103 119.295923,3.16434134 L119.26034,5.25051914 C118.455148,4.59121782 117.50305,3.96902444 116.441661,3.42003028 C115.380273,2.87103612 114.024562,2.61534718 112.450779,2.61534718 Z M132.324367,23.3302185 L124.895155,6.38409042 L123.284772,22.5611183 L121.307884,22.5611183 L124.199254,0.455461821 L132.324367,19.3403526 L140.742786,0.455461821 L143.487757,22.5611183 L141.47427,22.5611183 L139.937595,6.38409042 L132.324367,23.3302185 Z M156.260513,21.4641467 C157.981203,21.4641467 159.554478,21.0610426 160.945771,20.2197599 C162.372648,19.4145685 163.470636,18.2809972 164.312427,16.8891953 C165.117618,15.4613022 165.520722,13.8885356 165.520722,12.1312459 C165.520722,10.5945706 165.191326,9.13109453 164.495933,7.66660177 C163.800032,6.20210902 162.738644,4.9948302 161.347859,4.04273199 C159.957073,3.09165044 158.274,2.61534718 156.297112,2.61534718 C154.906327,2.61534718 153.478434,2.94474367 152.051557,3.6406446 C150.587065,4.33552888 149.379786,5.39691759 148.427688,6.82481073 C147.476606,8.2532122 147.000303,10.0094852 147.000303,11.9853558 C147.000303,13.6694462 147.366299,15.2427212 148.17149,16.6706143 C148.940082,18.0979991 150.038071,19.2686783 151.464947,20.111486 C152.893857,21.0239347 154.46764,21.4641467 156.260513,21.4641467 Z M156.260513,23.1111291 C154.248042,23.1111291 152.417045,22.6714255 150.660772,21.8296344 C148.940082,20.9512438 147.549297,19.6702574 146.487908,17.9866753 C145.463119,16.3025849 144.951233,14.2901146 144.951233,11.9472312 C144.951233,9.71414666 145.463628,7.77538395 146.561616,6.09129353 C147.659604,4.44431105 149.087497,3.16281635 150.84377,2.24731776 C152.60106,1.33283582 154.46764,0.893132165 156.37082,0.893132165 C158.053894,0.893132165 159.591586,1.18592905 160.909172,1.77203115 C162.263357,2.32102531 163.434036,3.12621674 164.459334,4.15100584 C165.447015,5.138687 166.215607,6.34698248 166.764601,7.70116807 C167.313595,9.12906122 167.606392,10.554921 167.606392,12.0936297 C167.606392,14.2885897 167.093997,16.2288774 166.069717,17.9124594 C165.043911,19.5965499 163.689725,20.8770279 161.933452,21.7559269 C160.212762,22.6714255 158.309583,23.1111291 156.260513,23.1111291 Z M181.367846,2.61534718 C179.501265,2.61534718 177.890883,3.01743457 176.500097,3.78653472 C175.145912,4.5561432 174.084523,5.65311486 173.354056,7.04339174 C172.621555,8.50839282 172.219468,10.154867 172.219468,12.0219554 C172.219468,14.9133247 173.061259,17.2196085 174.708241,18.9016656 C176.391315,20.585756 178.550692,21.4280554 181.259063,21.4280554 C183.60093,21.4280554 185.870614,20.5862643 188.067099,18.9016656 L188.0305,21.1352585 C187.042819,21.7579602 185.98143,22.1966472 184.846334,22.5255354 C183.674638,22.8915315 182.430759,23.0384382 181.150281,23.0384382 C179.466191,23.0384382 177.819208,22.7456414 176.135626,22.1224313 C174.488644,21.5007463 173.061767,20.3666667 171.890071,18.7196842 C170.718376,17.1093013 170.097199,14.9133247 170.097199,12.1312459 C170.097199,10.1187757 170.499286,8.25219554 171.267878,6.53099719 C172.037486,4.84690677 173.245782,3.49373783 174.964947,2.46844041 C176.648021,1.4070517 178.807398,0.894657149 181.406478,0.894657149 C183.785453,0.894657149 186.054121,1.62614103 188.213498,3.16434134 L188.140807,5.25051914 C187.371198,4.59121782 186.420117,3.96902444 185.358728,3.42003028 C184.297339,2.87103612 182.941629,2.61534718 181.367846,2.61534718 Z"/>
    </g>
  </g>
</svg>
