<svg xmlns="http://www.w3.org/2000/svg" width="215" height="134" viewBox="0 0 215 134">
  <g fill="none" fill-rule="evenodd">
    <g fill="#0E1C26" transform="translate(0 112.937)">
      <path fill-rule="nonzero" d="M43.1400651,8.0213648 C43.1400651,6.89555921 42.8599349,6.05120502 42.4397394,5.62902793 C42.019544,5.06612513 40.8990228,4.92539944 39.3583062,4.92539944 L35.9967427,4.92539944 C34.4560261,4.92539944 33.47557,5.20685083 33.0553746,5.76975363 C32.495114,6.33265642 32.3550489,7.17701061 32.3550489,8.16209049 L32.3550489,12.8060385 C32.3550489,13.7911184 32.6351792,14.6354726 33.0553746,15.1983754 C33.47557,15.7612782 34.5960912,16.0427296 35.9967427,16.0427296 L39.3583062,16.0427296 C40.8990228,16.0427296 42.019544,15.7612782 42.4397394,15.3391011 C42.8599349,14.7761983 43.1400651,14.0725698 43.1400651,12.9467642 L43.1400651,8.30281619 L43.1400651,8.0213648 Z M47.6221498,18.8572436 C46.6416938,19.8423234 44.8208469,20.4052262 42.1596091,20.4052262 L33.3355049,20.4052262 C30.6742671,20.4052262 28.8534202,19.9830491 27.732899,18.9979693 C26.752443,18.0128894 26.1921824,16.6056324 26.1921824,14.6354726 L26.1921824,6.05120502 C26.1921824,4.08104525 26.752443,2.67378827 27.732899,1.68870838 C28.713355,0.703628491 30.6742671,0.281451396 33.3355049,0.281451396 L42.1596091,0.281451396 C44.8208469,0.281451396 46.6416938,0.844354189 47.6221498,1.82943408 C48.6026059,2.81451396 49.1628664,4.22177095 49.1628664,6.19193072 L49.1628664,14.7761983 C49.1628664,16.6056324 48.742671,18.1536151 47.6221498,19.138695 L47.6221498,18.8572436 Z"/>
      <path d="M74.0944625,18.8572436 C73.1140065,19.8423234 71.2931596,20.4052262 68.6319218,20.4052262 L59.8078176,20.4052262 C57.1465798,20.4052262 55.3257329,19.9830491 54.2052117,18.9979693 C53.2247557,18.0128894 52.6644951,16.6056324 52.6644951,14.6354726 L52.6644951,6.05120502 C52.6644951,4.08104525 53.2247557,2.67378827 54.2052117,1.68870838 C55.1856678,0.703628491 57.1465798,0.281451396 59.8078176,0.281451396 L68.6319218,0.281451396 C71.2931596,0.281451396 73.1140065,0.844354189 74.0944625,1.82943408 C75.0749186,2.81451396 75.6351792,4.22177095 75.6351792,6.19193072 L75.6351792,8.16209049 L69.6123779,8.16209049 C69.6123779,7.03628491 69.3322476,6.19193072 68.9120521,5.76975363 C68.4918567,5.20685083 67.3713355,5.06612513 65.8306189,5.06612513 L62.4690554,5.06612513 C60.9283388,5.06612513 59.9478827,5.34757653 59.5276873,5.91047932 C58.9674267,6.47338212 58.8273616,7.31773631 58.8273616,8.30281619 L58.8273616,12.9467642 C58.8273616,13.9318441 59.1074919,14.7761983 59.5276873,15.3391011 C60.0879479,15.9020039 61.0684039,16.1834553 62.4690554,16.1834553 L65.8306189,16.1834553 C67.3713355,16.1834553 68.4918567,15.9020039 68.9120521,15.4798268 C69.3322476,14.916924 69.6123779,14.2132955 69.6123779,13.0874899 L75.6351792,13.0874899 L75.6351792,15.0576497 C75.6351792,16.8870838 75.2149837,18.4350665 74.0944625,19.4201463 L74.0944625,18.8572436 Z"/>
      <polygon points="85.16 20.405 79.137 20.405 79.137 14.495 79.137 5.91 79.137 .141 85.16 .141 85.16 7.881 95.945 7.881 95.945 .141 101.967 .141 101.967 5.91 101.967 14.495 101.967 20.405 95.945 20.405 95.945 12.525 85.16 12.525"/>
      <path d="M113.312704,12.5245871 L111.631922,12.5245871 C111.631922,13.6503927 111.912052,14.3540212 112.472313,14.916924 C112.892508,15.4798268 114.013029,15.7612782 115.413681,15.7612782 L118.775244,15.7612782 L128.579805,15.7612782 L128.579805,20.4052262 L121.576547,20.4052262 L112.752443,20.4052262 C110.091205,20.4052262 108.270358,19.9830491 107.149837,18.9979693 C106.169381,18.0128894 105.609121,16.6056324 105.609121,14.6354726 L105.609121,6.05120502 C105.609121,4.08104525 106.169381,2.67378827 107.149837,1.68870838 C108.130293,0.703628491 110.091205,0.281451396 112.752443,0.281451396 L121.576547,0.281451396 L128.579805,0.281451396 L128.579805,4.92539944 L118.775244,4.92539944 L115.413681,4.92539944 C113.872964,4.92539944 112.892508,5.20685083 112.472313,5.76975363 C111.912052,6.33265642 111.771987,7.03628491 111.631922,8.0213648 L113.312704,8.0213648 L128.439739,8.0213648 L128.439739,12.6653128 L113.312704,12.6653128 L113.312704,12.5245871 Z"/>
      <polygon points="174.801 4.785 166.537 4.785 166.537 .141 173.401 .141 182.225 .141 189.368 .141 189.368 4.785 180.684 4.785 180.684 20.405 174.801 20.405"/>
      <path fill-rule="nonzero" d="M137.684039 10.272976C137.684039 7.7399134 139.785016 8.0213648 139.785016 8.0213648L145.807818 8.0213648 145.807818 12.2431357 139.644951 12.2431357C139.644951 12.2431357 137.543974 12.3838614 137.543974 10.272976L137.684039 10.272976zM157.993485 12.2431357L151.830619 12.2431357 151.830619 8.0213648 157.85342 8.0213648C157.85342 8.0213648 159.954397 7.7399134 159.954397 10.272976 159.954397 12.3838614 157.85342 12.2431357 157.85342 12.2431357L157.993485 12.2431357zM161.214984 3.65886815L151.830619 3.65886815 151.830619 0 145.947883 0 145.947883 3.65886815 136.423453 3.65886815C136.423453 3.65886815 130.960912 3.79959385 130.960912 9.99152457 130.960912 16.1834553 136.563518 16.1834553 136.563518 16.1834553L145.947883 16.1834553 145.947883 20.1237748 151.830619 20.1237748 151.830619 16.1834553 160.934853 16.1834553C160.934853 16.1834553 166.537459 16.1834553 166.537459 9.99152457 166.537459 3.79959385 161.074919 3.65886815 161.074919 3.65886815L161.214984 3.65886815zM14.7068404 8.72499329L5.88273616 8.72499329 5.88273616 4.64394804 14.7068404 4.64394804C15.8273616 4.64394804 16.6677524 5.48830223 16.6677524 6.61410781 16.6677524 7.7399134 15.8273616 8.58426759 14.7068404 8.58426759L14.7068404 8.72499329zM21.2899023 1.54798268C20.3094463.562902793 18.4885993 0 15.8273616 0L0 0 0 20.2645005 6.0228013 20.2645005 6.0228013 13.3689413 15.9674267 13.3689413C18.6286645 13.3689413 20.4495114 12.8060385 21.4299674 11.8209586 22.4104235 10.8358788 22.970684 9.42862178 22.970684 7.458462L22.970684 5.91047932C22.970684 4.08104525 22.4104235 2.53306257 21.4299674 1.54798268L21.2899023 1.54798268zM208.977199 13.7911184C208.977199 14.916924 208.136808 15.7612782 207.016287 15.7612782L198.192182 15.7612782 198.192182 11.6802329 207.016287 11.6802329C208.136808 11.6802329 208.977199 12.5245871 208.977199 13.6503927L208.977199 13.7911184zM215 14.6354726L215 13.0874899C215 11.2580559 214.439739 9.71007317 213.459283 8.72499329 212.478827 7.7399134 210.65798 7.17701061 207.996743 7.17701061L198.052117 7.17701061 198.052117.140725698 192.029316.140725698 192.029316 20.4052262 207.856678 20.4052262C210.517915 20.4052262 212.338762 19.8423234 213.319218 18.8572436 214.299674 17.8721637 214.859935 16.4649067 214.859935 14.4947469L215 14.6354726z"/>
    </g>
    <polygon fill="#FFF" fill-rule="nonzero" points="55.099 71.201 55.099 101.753 19.191 101.753 19.191 71.201 13.618 65.7 .422 54.07 .422 27.019 9.806 27.019 9.806 18.153 19.191 18.153 19.191 9.288 28.575 9.288 28.575 .422 45.715 .422 45.715 9.288 55.099 9.288 55.099 18.153 64.484 18.153 64.484 27.019 73.868 27.019 73.868 54.07 60.672 65.7 55.099 71.201" transform="translate(70.215)"/>
    <g transform="translate(75.215 5)">
      <polygon fill="#FDD327" points="26.752 92.175 18.769 92.175 18.769 52.491 26.752 52.491"/>
      <polygon fill="#FDD327" points="36.137 92.175 28.153 92.175 28.153 44.329 36.137 44.329"/>
      <polygon fill="#FDD327" points="37.537 92.175 45.521 92.175 45.521 52.491 37.537 52.491"/>
      <polygon fill="#0E1C26" points="7.984 54.039 0 47.002 0 26.597 7.984 26.597"/>
      <polygon fill="#0E1C26" points="17.368 62.904 9.384 55.024 9.384 17.731 17.368 17.731"/>
      <polygon fill="#0E1C26" points="26.752 51.224 18.769 51.224 18.769 8.866 26.752 8.866"/>
      <polygon fill="#0E1C26" points="36.137 42.499 28.153 42.499 28.153 0 36.137 0"/>
      <polygon fill="#0E1C26" points="56.306 54.039 64.29 47.002 64.29 26.597 56.306 26.597"/>
      <polygon fill="#0E1C26" points="37.537 51.224 45.521 51.224 45.521 8.866 37.537 8.866"/>
      <polygon fill="#0E1C26" points="46.922 62.904 54.906 55.024 54.906 17.731 46.922 17.731"/>
    </g>
  </g>
</svg>
