<svg xmlns="http://www.w3.org/2000/svg" width="244" height="71" viewBox="0 0 244 71">
  <g fill="#FFF" fill-rule="evenodd">
    <path d="M97.0984 33.0554C96.411 33.6168 95.62 33.894 94.724 33.894L91.4914 33.894 91.4914 26.6294 94.682 26.6294C95.746 26.6294 96.586 26.901 97.202 27.447 97.818 27.9944 98.126 28.8974 98.126 30.1588 98.126 31.5294 97.783 32.494 97.0984 33.0554zM101.4664 23.2274C100.639 22.4714 99.645 21.9114 98.483 21.5488 97.321 21.182 96.054 21 94.682 21L85.4 21 85.4 50.2306 91.4914 50.2306 91.4914 39.5654 95.018 39.5654C96.418 39.5654 97.678 39.3428 98.7994 38.8934 99.918 38.4426 100.87 37.8168 101.6554 37.0048 102.438 36.1928 103.0414 35.2114 103.4614 34.0648 103.88 32.9168 104.0914 31.6428 104.0914 30.2428 104.0914 28.6426 103.8604 27.2664 103.3984 26.1044 102.9364 24.941 102.291 23.982 101.4664 23.2274zM120.4 41.6626C120.4 42.644 120.085 43.4112 119.455 43.9726 118.825 44.5354 118.076 44.8112 117.2094 44.8112 116.004 44.8112 115.143 44.45 114.625 43.722 114.107 42.994 113.848 42.0658 113.848 40.95L113.848 30.1112C113.848 29.778 113.911 29.4182 114.037 29.0416 114.1644 28.6622 114.359 28.3136 114.625 27.9902 114.891 27.671 115.234 27.4036 115.654 27.1922 116.074 26.9836 116.592 26.8786 117.2094 26.8786 117.824 26.8786 118.335 26.999 118.741 27.2356 119.147 27.4736 119.4774 27.7606 119.728 28.0938 119.98 28.4326 120.155 28.784 120.253 29.1452 120.351 29.512 120.4 29.8354 120.4 30.1112L120.4 41.6626zM124.2654 23.9582C123.5094 23.0762 122.542 22.3622 121.366 21.819 120.19 21.2716 118.804 21 117.2094 21 115.5 21 114.051 21.2842 112.861 21.8596 111.6696 22.4336 110.698 23.1658 109.942 24.066 109.186 24.9606 108.64 25.963 108.304 27.0676 107.968 28.1736 107.8 29.2726 107.8 30.366L107.8 40.7792C107.8 42.098 107.975 43.358 108.325 44.5606 108.675 45.766 109.228 46.8202 109.984 47.7316 110.74 48.643 111.713 49.3626 112.903 49.896 114.093 50.428 115.528 50.694 117.2094 50.694 118.58 50.694 119.8344 50.4742 120.967 50.0416 122.1024 49.609 123.081 48.9762 123.9084 48.153 124.733 47.327 125.377 46.3316 125.8404 45.1696 126.3024 44.009 126.5334 42.7 126.5334 41.244L126.5334 30.366C126.5334 29.2166 126.343 28.084 125.965 26.9626 125.587 25.844 125.0214 24.8416 124.2654 23.9582zM139.258 29.0416C139.37 28.6622 139.552 28.3136 139.804 27.9902 140.056 27.671 140.392 27.4036 140.812 27.1922 141.232 26.9836 141.75 26.8786 142.366 26.8786 142.954 26.8786 143.458 26.9892 143.878 27.216 144.298 27.44 144.648 27.706 144.928 28.0112 145.208 28.322 145.411 28.6622 145.537 29.0416 145.663 29.4182 145.7526 29.75 145.81 30.0286L151.564 28.3066C151.368 27.356 151.032 26.4362 150.556 25.5542 150.08 24.6736 149.464 23.8938 148.708 23.2218 147.952 22.5498 147.042 22.015 145.978 21.609 144.914 21.2016 143.71 21 142.366 21 140.658 21 139.2076 21.2842 138.019 21.8596 136.8276 22.4336 135.863 23.1658 135.1224 24.066 134.379 24.9606 133.84 25.963 133.504 27.0676 133.168 28.1736 133 29.2726 133 30.366L133 40.7792C133 42.098 133.175 43.358 133.525 44.5606 133.875 45.766 134.421 46.8202 135.163 47.7316 135.905 48.643 136.871 49.3626 138.061 49.896 139.251 50.428 140.686 50.694 142.366 50.694 144.746 50.694 146.762 50.05 148.414 48.7606 150.066 47.4726 151.102 45.696 151.522 43.428L145.726 41.7452C145.614 42.7 145.236 43.4462 144.592 43.9922 143.948 44.5396 143.206 44.8112 142.366 44.8112 141.162 44.8112 140.3136 44.45 139.825 43.722 139.335 42.994 139.09 42.0658 139.09 40.95L139.09 30.1112C139.09 29.778 139.146 29.4182 139.258 29.0416M163.058 29.0416C163.17 28.6622 163.3506 28.3136 163.604 27.9902 163.856 27.671 164.192 27.4036 164.612 27.1922 165.032 26.9836 165.55 26.8786 166.166 26.8786 166.754 26.8786 167.258 26.9892 167.678 27.216 168.098 27.44 168.448 27.706 168.728 28.0112 169.008 28.322 169.211 28.6622 169.337 29.0416 169.463 29.4182 169.5526 29.75 169.61 30.0286L175.364 28.3066C175.168 27.356 174.832 26.4362 174.356 25.5542 173.88 24.6736 173.264 23.8938 172.508 23.2218 171.7506 22.5498 170.842 22.015 169.778 21.609 168.714 21.2016 167.51 21 166.166 21 164.458 21 163.0076 21.2842 161.819 21.8596 160.6276 22.4336 159.663 23.1658 158.921 24.066 158.179 24.9606 157.64 25.963 157.304 27.0676 156.968 28.1736 156.8 29.2726 156.8 30.366L156.8 40.7792C156.8 42.098 156.975 43.358 157.325 44.5606 157.675 45.766 158.2196 46.8202 158.963 47.7316 159.705 48.643 160.6696 49.3626 161.861 49.896 163.051 50.428 164.486 50.694 166.166 50.694 168.5446 50.694 170.562 50.05 172.214 48.7606 173.866 47.4726 174.9006 45.696 175.322 43.428L169.526 41.7452C169.414 42.7 169.036 43.4462 168.392 43.9922 167.748 44.5396 167.006 44.8112 166.166 44.8112 164.962 44.8112 164.1136 44.45 163.625 43.722 163.135 42.994 162.89 42.0658 162.89 40.95L162.89 30.1112C162.89 29.778 162.9446 29.4182 163.058 29.0416"/>
    <polyline points="180.6 50.231 197.611 50.231 197.611 44.479 186.691 44.479 186.691 38.265 196.099 38.265 196.099 32.676 186.691 32.676 186.691 26.629 197.611 26.629 197.611 21 180.6 21 180.6 50.231"/>
    <polyline points="201.6 26.543 207.858 26.543 207.858 50.231 213.906 50.231 213.906 26.543 220.164 26.543 220.164 21 201.6 21 201.6 26.543"/>
    <polyline points="238.489 21 230.132 37.971 230.048 37.971 230.048 21 224 21 224 50.231 229.712 50.231 237.86 34.317 237.902 34.317 237.902 50.231 243.992 50.231 243.992 21 238.489 21"/>
    <path d="M39.3764 17.1458L6.1712 15.4C2.2778 21.1246-2.66453526e-14 28.0364-2.66453526e-14 35.4816-2.66453526e-14 37.4906.1736 39.459.4928 41.3784L39.6536 18.3582C39.5052 17.9774 39.4226 17.5672 39.3764 17.1458M47.6 18.438L70.497 40.1422C70.7784 38.332 70.9282 36.4784 70.9282 34.5898 70.9282 26.9206 68.5048 19.8212 64.3944 14L48.4246 15.9292C48.3868 16.8588 48.0886 17.717 47.6 18.438M40.5314 19.6L1.4 45.374C4.0782 54.3956 10.2186 61.9248 18.2854 66.4216L41.2552 20.2468C40.992 20.0564 40.7512 19.838 40.5314 19.6M43.2124 21L22.4 68.2458C26.593 69.9734 31.1836 70.9324 36.001 70.9324 40.7162 70.9324 45.213 70.0098 49.3346 68.3508L44.1616 21.1442C43.8354 21.126 43.519 21.0784 43.2124 21M44.8 21.5488L52.1262 67.1356C60.2686 62.6318 66.4608 55.0438 69.1376 45.948L45.948 21C45.5952 21.2338 45.2074 21.4116 44.8 21.5488M40.4054 13.0802L32.9252 1.70530257e-13C23.1938.5642 14.5082 5.0176 8.4 11.8342L38.8122 15.477C39.0908 14.518 39.6522 13.692 40.4054 13.0802M44.0496 11.9686C46.0208 12.0092 47.6868 13.23 48.4008 14.9436L62.0466 11.704C55.9818 4.9938 47.4054.6034 37.8 4.53859172e-13L42.8358 12.1142C43.2278 12.0218 43.6296 11.9602 44.0496 11.9686"/>
  </g>
</svg>
