<svg xmlns="http://www.w3.org/2000/svg" width="84" height="115" viewBox="0 0 84 115">
  <g fill="#FFF" fill-rule="evenodd">
    <path d="M22.4487847 104.118439C24.3065894 104.118439 25.8140635 105.810508 25.8140635 107.895052 25.8140635 109.979597 24.3065894 111.671747 22.4487847 111.671747 20.5910476 111.671747 19.0836412 109.979597 19.0836412 107.895052 19.0836412 105.810508 20.5910476 104.118439 22.4487847 104.118439zM22.4487847 101.241166C26.1501747 101.241166 29.1518912 104.220965 29.1518912 107.895134 29.1518912 111.569221 26.1501747 114.54902 22.4487847 114.54902 18.7474624 114.54902 15.7457459 111.569221 15.7457459 107.895134 15.7457459 104.220965 18.7474624 101.241166 22.4487847 101.241166zM38.1249894 104.118439C39.2736771 104.118439 40.3542035 104.632908 40.9615118 105.619459L43.1633424 103.507681C41.9346688 102.118575 40.1330112 101.241166 38.1249894 101.241166 34.4236806 101.241166 31.4219506 104.220965 31.4219506 107.895134 31.4219506 111.569221 34.4236806 114.54902 38.1249894 114.54902 40.1795388 114.54902 42.0180506 113.630387 43.2477118 112.184972L40.9597394 110.225954C40.3489 111.181117 39.2519082 111.671747 38.1249894 111.671747 36.2672524 111.671747 34.7598594 109.979597 34.7598594 107.895052 34.7598594 105.810508 36.2672524 104.118439 38.1249894 104.118439zM60.2819582 108.768389L69.9099612 108.768389C69.9463553 108.482581 69.9652965 108.191089 69.9652965 107.895134 69.9652965 104.220965 67.0700159 101.241166 63.4999153 101.241166 59.9298824 101.241166 57.0346153 104.220965 57.0346153 107.895134 57.0346153 111.569221 59.9298824 114.54902 63.4999153 114.54902 65.5359294 114.54902 67.8768965 114.203452 69.0620324 112.689051L67.5900188 110.558588C66.8515835 111.620214 64.8980176 111.915858 63.6514312 111.915858 62.0036706 111.915858 60.6246312 110.568288 60.2819853 108.768389L60.2819582 108.768389zM60.3552876 106.699837C60.79245 105.063536 62.1033418 103.874247 63.65135 103.874247 65.1994394 103.874247 66.5103988 105.063536 66.9475747 106.699837L60.3552876 106.699837zM45.1918476 101.545199L55.5534288 101.545199 55.5534288 104.400175 51.97241 104.400175 51.97241 114.244906 48.7728665 114.244906 48.7728665 104.400175 45.1918476 104.400175 45.1918476 101.545199zM75.2612224 107.697848L70.8996106 101.545199 74.7526788 101.545199 77.3631518 105.476481 79.9736247 101.545199 83.8266794 101.545199 79.4650812 107.697848 84.0241953 114.244906 80.3008065 114.244906 77.3631518 109.994141 74.4254971 114.244906 70.7021082 114.244906 75.2612224 107.697848zM7.96241871 99.8771306C9.35206518 99.8771306 10.4789799 101.004036 10.4789799 102.393682 10.4789799 103.783329 9.35206518 104.910248 7.96241871 104.910248L3.72079659 104.910248 3.72079659 99.8771306 7.96241871 99.8771306zM.206300529 96.8887136L8.68585259 96.8887136C11.7257247 96.8887136 14.1909053 99.3538942 14.1909053 102.393615 14.1909053 105.433565 11.7256476 107.898665 8.68585259 107.898665L3.72079659 107.898665 3.72079659 114.244906.206300529 114.244906.206300529 96.8887136zM10.7304606 10.730456L38.7871324 10.730456 28.0566718-.00000188323702 0-.00000188323702 0 28.0567354 10.7304606 38.7871959 10.7304606 10.730456zM44.5802912 10.730456L72.6369629 10.730456 72.6369629 38.7871959 83.3674235 28.0567354 83.3674235-.00000188323703 55.3107518-.00000188323703 44.5802912 10.730456zM72.6369629 44.5802195L72.6369629 72.6369589 44.5802912 72.6369589 55.3107518 83.3674195 83.3674235 83.3674195 83.3674235 55.3106801 72.6369629 44.5802195zM38.7871324 72.6369589L10.7304606 72.6369589 10.7304606 44.5802195 0 55.3106801 0 83.3674195 28.0566718 83.3674195 38.7871324 72.6369589z"/>
  </g>
</svg>
