<svg xmlns="http://www.w3.org/2000/svg" xmlns:xlink="http://www.w3.org/1999/xlink" width="221" height="82" viewBox="0 0 221 82">
  <defs>
    <polygon id="rostelecom-a" points="0 .122 49.049 .122 49.049 81.069 0 81.069"/>
  </defs>
  <g fill="none" fill-rule="evenodd">
    <mask id="rostelecom-b" fill="#fff">
      <use xlink:href="#rostelecom-a"/>
    </mask>
    <path fill="#FF4F12" d="M4.01391498,80.6969843 L4.01413406,80.6969843 L4.01610586,80.6976382 C4.06474344,80.7174727 4.11272376,80.738833 4.16267587,80.7569238 C4.20233083,80.7713092 4.25710288,80.7861306 4.32239117,80.800734 C4.8920205,80.9781547 5.49714211,81.0775452 6.12482982,81.0816864 C6.1250489,81.0816864 7.33770211,81.0816864 9.28912074,81.0816864 C12.2553559,81.0816864 16.9287264,81.0816864 21.6459145,81.0816864 C29.7147139,81.0816864 37.9114609,81.0816864 37.9114609,81.0816864 L17.0639038,60.2859776 L17.0639038,60.2857596 L17.0529494,60.2966577 C13.1974352,64.1090227 10.6494394,66.6273501 8.77229167,68.4893954 C7.10459226,70.1432874 5.96599087,71.2795208 4.91020482,72.3446988 C3.58055851,73.6640199 2.69456581,74.5434946 2.69084131,74.5474179 L2.68755499,74.5506874 L2.6873359,74.5513412 C2.03905391,75.2346506 1.64118973,76.2220163 1.64118973,77.2359733 C1.64118973,78.8279643 2.62182853,80.1278868 4.01391498,80.6969843" mask="url(#rostelecom-b)"/>
    <path fill="#FFF" d="M1.64118973,77.2359733 C1.64118973,76.2220163 2.03905391,75.2346506 2.6873359,74.5513412 L2.68755499,74.5506874 L2.69084131,74.5474179 C2.69456581,74.5434946 3.58055851,73.6640199 4.91020482,72.3446988 C5.96599087,71.2795208 7.10459226,70.1432874 8.77229167,68.4893954 C10.6494394,66.6273501 13.1974352,64.1090227 17.0529494,60.2966577 L17.0639038,60.2857596 L17.0639038,60.2859776 C18.1981234,59.1643476 19.4442971,57.9317751 20.8210474,56.5703875 C20.8455853,56.5459758 20.8712186,56.5206922 20.8957565,56.4962806 C27.1369221,50.3231743 36.0222633,41.5290808 49.0485906,28.6155144 L20.4238405,0.12162253 L4.21810518,16.2636349 C-0.625715909,21.0825462 0.0297959957,24.2362315 0.0297959957,30.7090349 C0.0297959957,37.1988392 0.0297959957,74.9885721 0.0297959957,74.9962007 C0.0297959957,77.6147905 1.68654099,79.8349465 4.01391498,80.6969843 C2.62182853,80.1278868 1.64118973,78.8279643 1.64118973,77.2359733" mask="url(#rostelecom-b)"/>
    <polyline fill="#FFF" points="182.238 52.276 177.39 52.276 171.598 58.084 171.598 52.276 167.498 52.276 167.498 68.279 171.598 68.279 171.598 61.665 177.488 68.279 182.434 68.279 174.819 59.697 182.238 52.276"/>
    <path fill="#FFF" d="M54.6271514 56.6931599L48.9358612 56.6931599 48.9358612 49.651987 54.6271514 49.651987C57.5039427 49.651987 58.8174326 51.0601339 58.8174326 53.1722448 58.8174326 55.2850129 57.5039427 56.6931599 54.6271514 56.6931599zM54.7521642 45.8751647L44.8083004 45.8751647 44.8083004 68.2793149 48.9358612 68.2793149 48.9358612 60.4699822 54.7521642 60.4699822C59.6929499 60.4699822 62.9449934 57.877388 62.9449934 53.1722448 62.9449934 48.4675398 59.6929499 45.8751647 54.7521642 45.8751647zM72.5466643 64.435448C70.2163439 64.435448 68.0431891 62.7089748 68.0431891 59.7444005 68.0431891 56.7800492 70.2163439 55.0535761 72.5466643 55.0535761 74.8774159 55.0535761 77.050355 56.7800492 77.050355 59.7444005 77.050355 62.7089748 74.8774159 64.435448 72.5466643 64.435448zM72.5466643 51.2094862C68.2637385 51.2094862 64.0118577 54.076386 64.0118577 59.7444005 64.0118577 65.412861 68.2637385 68.2793149 72.5466643 68.2793149 76.8300213 68.2793149 81.0816864 65.412861 81.0816864 59.7444005 81.0816864 54.076386 76.8300213 51.2094862 72.5466643 51.2094862zM91.7416343 64.435448C89.2493859 64.435448 87.4130869 62.6436355 87.4130869 59.7444005 87.4130869 56.8777237 89.3149359 55.0535761 91.7416343 55.0535761 93.2171836 55.0535761 94.4963073 55.7375199 95.5127819 57.2686443L99.0545043 55.2487019C97.8739302 52.7403875 95.3161318 51.2094862 91.7744093 51.2094862 87.1504377 51.2094862 83.215415 54.5975392 83.215415 59.7444005 83.215415 64.8914849 86.9537876 68.2793149 91.7744093 68.2793149 95.2503572 68.2793149 97.5787305 66.7158554 99.2183794 63.9468529L95.8079815 62.0901472C94.8240575 63.4582579 93.7748079 64.435448 91.7416343 64.435448M134.932666 61.2344142C134.746956 63.6569103 134.281833 64.1989769 133.476665 64.1989769 132.926318 64.1989769 132.667893 64.1363468 132.291173 64.0346548L132.310888 68.1265586C132.310888 68.1265586 132.79594 68.2793149 133.693751 68.2793149 137.00749 68.2793149 138.246406 66.0796247 138.556135 61.393499L138.927767 55.8785614 143.325027 55.8785614 143.325027 68.0562907 147.227273 68.0562907 147.227273 52.2763505 135.583076 52.2763505 134.932666 61.2344142M119.134588 57.5944486C119.707157 55.7700781 121.29811 54.3368511 123.39782 54.3368511 125.624937 54.3368511 127.120063 55.5747293 127.502066 57.5944486L119.134588 57.5944486zM123.525009 51.2094862C118.943804 51.2094862 115.221344 54.6298743 115.221344 59.7444005 115.221344 64.8589267 118.943804 68.2793149 123.334225 68.2793149 126.80209 68.2793149 128.997192 66.9437624 130.587927 64.1747599L127.406238 62.5459611C126.420087 63.8163974 125.529327 64.7610293 123.39782 64.7610293 121.043732 64.7610293 119.325372 63.1975698 119.070993 60.7215906L131.224308 60.7215906 131.224308 59.2883636C131.224308 54.5649811 128.04262 51.2094862 123.525009 51.2094862zM153.274245 57.5944486C153.847032 55.7700781 155.43755 54.3368511 157.537478 54.3368511 159.764376 54.3368511 161.25972 55.5747293 161.641723 57.5944486L153.274245 57.5944486zM157.664667 51.2094862C153.083244 51.2094862 149.361001 54.6298743 149.361001 59.7444005 149.361001 64.8589267 153.083244 68.2793149 157.473665 68.2793149 160.941529 68.2793149 163.136631 66.9437624 164.727584 64.1747599L161.546113 62.5459611C160.559962 63.8163974 159.668985 64.7610293 157.537478 64.7610293 155.182954 64.7610293 153.465029 63.1975698 153.210651 60.7215906L165.363966 60.7215906 165.363966 59.2883636C165.363966 54.5649811 162.182277 51.2094862 157.664667 51.2094862z"/>
    <polyline fill="#FFF" points="100.285 55.825 105.149 55.825 105.149 68.279 109.29 68.279 109.29 55.825 114.154 55.825 114.154 52.276 100.285 52.276 100.285 55.825"/>
    <path fill="#FFF" d="M190.968817,64.4352752 C188.638006,64.4352752 186.465012,62.7088246 186.465012,59.744289 C186.465012,56.7801995 188.638006,55.0535259 190.968817,55.0535259 C193.299196,55.0535259 195.472406,56.7801995 195.472406,59.744289 C195.472406,62.7088246 193.299196,64.4352752 190.968817,64.4352752 Z M190.968817,51.2094862 C186.685351,51.2094862 182.433794,54.0763486 182.433794,59.744289 C182.433794,65.4126755 186.685351,68.2793149 190.968817,68.2793149 C195.252066,68.2793149 199.503623,65.4126755 199.503623,59.744289 C199.503623,54.0763486 195.252066,51.2094862 190.968817,51.2094862 Z"/>
    <polyline fill="#FFF" points="215.594 52.276 211.239 63.504 206.883 52.276 201.637 52.276 201.637 68.279 205.452 68.279 205.452 58.148 209.681 68.279 212.797 68.279 217.025 58.148 217.025 68.279 220.841 68.279 220.841 52.276 215.594 52.276"/>
  </g>
</svg>
