<svg xmlns="http://www.w3.org/2000/svg" width="195" height="92" viewBox="0 0 195 92">
  <g fill="none" fill-rule="evenodd" transform="translate(-9 -11)">
    <polygon points="0 0 212.731 0 212.731 103.508 0 103.508"/>
    <path fill="#FFF" d="M90.2369534,11.2227824 L9.38524352,11.2227824 L9.38524352,61.7534456 L29.598171,61.7534456 C26.4252435,57.5320725 24.5435596,52.2832228 24.5435596,46.5962332 C24.5435596,32.6419741 35.8557358,21.3286943 49.8110984,21.3286943 C63.7653575,21.3286943 75.0775337,32.6419741 75.0775337,46.5962332 C75.0775337,52.2843264 73.1969534,57.5320725 70.0251295,61.7534456 L90.2358497,61.7534456 L90.2358497,11.2227824 L90.2369534,11.2227824 Z"/>
    <path fill="#FE000C" d="M40.0130984,41.5405181 L39.7051865,41.5405181 L39.7051865,102.181508 L100.343969,102.181508 L100.343969,101.871389 C71.381487,93.3381451 48.5496528,70.5063109 40.0130984,41.5405181 Z"/>
    <path fill="#FFF" fill-rule="nonzero" d="M168.266689,57.9514508 C168.162948,58.2041813 168.036031,58.5705855 167.891456,59.0528705 C167.744674,59.5362591 167.671834,59.9346684 167.671834,60.2492021 C167.671834,60.5427668 167.741363,60.770114 167.874902,60.9257254 C168.012855,61.0857513 168.228062,61.2148756 168.521627,61.3208238 C168.689378,61.3605544 168.881409,61.3969741 169.103238,61.4289793 C169.325067,61.4620881 169.517098,61.4896788 169.68485,61.5073368 L169.68485,62.1231606 L164.392959,62.1231606 L164.392959,61.5073368 C164.727358,61.4665026 165.057342,61.3605544 165.381808,61.1928031 C165.707378,61.0261554 165.985492,60.826399 166.21615,60.5968446 C166.403767,60.3860518 166.561585,60.1598083 166.688503,59.918114 C166.813212,59.6797306 166.897088,59.4943212 166.941233,59.3685078 L173.800275,41.5228601 L174.365332,41.5228601 L181.448409,61.5073368 L183.55413,61.5073368 L183.55413,62.1231606 L174.987777,62.1231606 L174.987777,61.5073368 L177.757881,61.5073368 L175.468959,55.1482383 L169.394596,55.1482383 L168.266689,57.9514508 Z M172.573041,46.7110104 L169.553518,54.5291036 L175.248233,54.5291036 L172.573041,46.7110104 Z M203.345472,42.1419948 L200.955016,42.1419948 L200.955016,61.5018187 L203.345472,61.5018187 L203.345472,62.1231606 L195.09586,62.1231606 L195.09586,61.5018187 L197.486316,61.5018187 L197.486316,42.1419948 L193.985611,42.1419948 C193.711912,42.1419948 193.334472,42.174 192.852187,42.2380104 C192.368798,42.2987098 191.947212,42.4984663 191.590741,42.8350725 C191.294969,43.108772 191.101834,43.4233057 191.004715,43.7786736 C190.91201,44.1362487 190.843585,44.469544 190.801648,44.7851813 C190.760813,45.1206839 190.726601,45.4915026 190.704528,45.8987409 C190.684663,46.3103938 190.670316,46.7915751 190.65928,47.3466995 C190.648244,47.9018238 190.637207,48.5584819 190.629482,49.3122591 C190.616238,50.0671399 190.601891,50.9478342 190.579819,51.954342 L190.457316,56.7694663 C190.435244,57.5464197 190.40986,58.240601 190.377855,58.8608394 C190.34585,59.4788705 190.224451,60.0295803 190.015865,60.5107617 C189.850321,60.9080674 189.65829,61.213772 189.450808,61.4234611 C189.243326,61.630943 189.002736,61.7688964 188.700342,61.926715 C188.396845,62.0834301 187.935528,62.1253679 187.350606,62.1253679 C186.324233,62.1253679 185.48658,61.8947098 184.839855,61.4322902 C184.54629,61.2214974 184.279212,60.9323472 184.037518,60.5637358 C183.798031,60.196228 183.675528,59.7172539 183.675528,59.1279171 C183.675528,58.4547047 183.865352,57.8962694 184.245,57.453715 C184.62244,57.0133679 185.156596,56.7926425 185.84857,56.7926425 C186.436803,56.7926425 186.902534,56.9592902 187.250176,57.2958964 C187.595611,57.6325026 187.769984,58.0320155 187.769984,58.4933316 C187.769984,59.0396269 187.636446,59.5230155 187.369368,59.9423938 C187.265627,60.0902798 187.170715,60.2249223 187.089047,60.3518394 C187.007378,60.4776528 186.966544,60.5946373 186.966544,60.6972746 C186.966544,60.8032228 187.018415,60.9400725 187.124363,61.1078238 C187.225896,61.2744715 187.456554,61.3583472 187.807508,61.3583472 C188.101073,61.3583472 188.389119,61.270057 188.680477,61.0934767 C188.969627,60.9146891 189.284161,60.5637358 189.426528,60.1531865 C189.568896,59.7459482 189.691399,59.2934611 189.722301,58.7692383 C189.754306,58.2450155 189.780793,57.5762176 189.801762,56.7595337 L189.926472,51.9466166 C189.946337,50.8992746 189.967306,50.0516891 189.989378,49.4016528 C190.009244,48.7527202 190.021383,48.2395337 190.021383,47.8609896 L190.021383,45.3149223 C190.021383,45.0025959 190.003725,44.6350881 189.97172,44.2157098 C189.941922,43.7985389 189.788518,43.4100622 189.519233,43.0535907 C189.351482,42.8439016 189.161658,42.6761503 188.951969,42.5514404 C188.741176,42.4256269 188.531487,42.3251969 188.325109,42.2523575 C188.116523,42.1795181 187.779917,42.1408912 187.318601,42.1408912 L186.56372,42.1408912 L186.56372,41.5217565 L203.346575,41.5217565 L203.346575,42.1419948 L203.345472,42.1419948 Z M135.033171,42.1618601 L132.382259,42.1618601 L138.594575,55.2508756 L142.477135,45.3480311 C142.580876,45.1162694 142.684617,44.795114 142.776218,44.3856684 C142.868922,43.9762228 142.918585,43.6440311 142.918585,43.3924041 C142.918585,42.9719223 142.776218,42.6606995 142.491482,42.460943 C142.208953,42.2611865 141.876762,42.1618601 141.498218,42.1618601 L141.056767,42.1618601 L141.056767,41.5316891 L146.417083,41.5316891 L146.417083,42.1618601 C145.935902,42.1618601 145.53087,42.2457358 145.205301,42.4145907 C144.879731,42.5845492 144.603824,42.7765803 144.386409,42.9962021 C144.16458,43.2180311 143.990207,43.443171 143.864394,43.6749326 C143.739684,43.904487 143.653601,44.0832746 143.611663,44.2101917 L139.162943,55.723228 C138.910212,56.353399 138.634306,56.9162487 138.393715,57.4106736 C138.154228,57.9062021 137.930192,58.3200622 137.626694,58.8133834 C137.301124,59.3420207 137.126751,59.6322746 136.79456,60.0648964 C136.414912,60.5615285 136.212948,60.7756321 135.763772,61.1740415 C135.375295,61.5205803 135.004477,61.761171 134.636969,61.9101606 C134.270565,62.0558394 133.843461,62.1275751 133.358969,62.1275751 C132.710036,62.1275751 132.140565,62.0282487 131.656073,61.8284922 C131.172684,61.6276321 130.753306,61.3815233 130.396834,61.0868549 C129.849435,60.6255389 129.498482,60.1465648 129.340663,59.6521399 C129.180637,59.157715 129.103383,58.7107461 129.103383,58.3123368 C129.103383,58.0375337 129.144218,57.7649378 129.228093,57.4912383 C129.311969,57.2164352 129.436679,56.9714301 129.607741,56.749601 C129.775492,56.5310829 129.996218,56.3456736 130.269917,56.1988912 C130.543617,56.0521088 130.869187,55.9770622 131.248834,55.9770622 C131.920943,55.9770622 132.425301,56.166886 132.761907,56.5454301 C133.098513,56.9239741 133.266264,57.3047254 133.266264,57.6788549 C133.266264,57.9117202 133.223223,58.1434819 133.141554,58.3752435 C133.055472,58.6059016 132.951731,58.8078653 132.827021,58.974513 C132.573187,59.3122228 132.288451,59.5693679 131.973917,59.7470518 C131.657176,59.9258394 131.499358,60.1509793 131.499358,60.4246788 C131.499358,60.6343679 131.632896,60.8650259 131.893352,61.1199637 C132.156016,61.370487 132.580912,61.4963005 133.171352,61.4963005 C133.634876,61.4963005 134.082948,61.3815233 134.512259,61.1508653 C134.943777,60.9191036 135.307974,60.6465078 135.600435,60.3308705 C135.831093,60.0781399 136.041886,59.7956114 136.23171,59.4799741 C136.419326,59.1632332 136.546244,58.953544 136.60915,58.8498031 L128.535016,42.1607565 L126.35756,42.1607565 L126.35756,41.5305855 L135.033171,41.5305855 L135.033171,42.1618601 Z M125.690969,46.9615337 C125.658964,46.6260311 125.580606,46.2596269 125.455896,45.8634249 C125.328979,45.4639119 125.141363,45.0555699 124.888632,44.6350881 C124.635902,44.2146062 124.300399,43.8073679 123.882124,43.4067513 C123.063233,42.6342124 122.110803,42.126544 121.017109,41.8848497 C119.926725,41.6431554 118.846275,41.5228601 117.774653,41.5228601 L108.807684,41.5228601 L108.807684,42.1430984 L111.19814,42.1430984 L111.19814,61.5029223 L108.807684,61.5029223 L108.807684,62.1231606 L117.059503,62.1231606 L117.059503,61.5029223 L114.669047,61.5029223 L114.669047,53.9397668 L117.729404,53.9397668 C118.96657,53.9397668 120.15628,53.8007098 121.290808,53.5170777 C122.42644,53.2334456 123.35128,52.7357098 124.067534,52.0227668 C124.214316,51.8748808 124.382067,51.6817461 124.571891,51.4433627 C124.759508,51.1994611 124.94271,50.907 125.123705,50.5604611 C125.300285,50.2139223 125.449275,49.8110984 125.565155,49.3486788 C125.679933,48.8884663 125.737321,48.3642435 125.737321,47.7782176 C125.738425,47.5707358 125.722974,47.2970363 125.690969,46.9615337 Z M120.747824,51.9731036 C120.549171,52.2070725 120.327342,52.4035181 120.028259,52.5966528 C119.775528,52.7445389 119.491896,52.8637306 119.177363,52.9586425 C118.862829,53.0524508 118.554917,53.1252902 118.245902,53.1771606 C117.942404,53.2312383 117.659876,53.267658 117.396109,53.2875233 C117.133446,53.3095959 116.939207,53.3195285 116.81229,53.3195285 L114.67015,53.3195285 L114.67015,42.1430984 L116.81229,42.1430984 C117.400523,42.1430984 118.015244,42.1971762 118.657554,42.3009171 C119.218197,42.3925181 119.739109,42.6209689 120.226912,42.9686114 C120.263332,42.9962021 120.301959,43.0193782 120.337275,43.0469689 C120.36928,43.0723523 120.406803,43.0922176 120.438808,43.1187047 C120.604352,43.2643834 120.755549,43.4166839 120.884674,43.5756062 C121.72343,44.5479016 122.259793,46.0355907 122.259793,47.7009637 C122.258689,49.4568342 121.661627,51.0074301 120.747824,51.9731036 Z M161.776259,41.5228601 L161.011446,41.5228601 C160.843694,42.1728964 160.47729,42.4984663 159.910026,42.4984663 C159.679368,42.4984663 159.439881,42.452114 159.188254,42.3560984 C158.937731,42.2622902 158.582363,42.1320622 158.118839,41.9643109 C157.700565,41.8175285 157.308777,41.7060622 156.942373,41.6343264 C156.575969,41.561487 156.151073,41.5239637 155.670995,41.5239637 C155.168845,41.5239637 154.522119,41.5283782 153.882016,41.6442591 C153.244119,41.7601399 152.545523,41.8749171 151.79285,42.2269741 C151.128466,42.5370933 150.702466,42.7688549 150.06457,43.3328083 C149.426674,43.8978653 148.825197,44.6196373 148.257933,45.4981244 C147.631073,46.525601 147.184104,47.5773575 146.923648,48.6544974 C146.663192,49.7316373 146.53186,50.8694767 146.53186,52.0613938 C146.53186,53.4652073 146.687472,54.7001658 147.004212,55.7662694 C147.318746,56.8345803 147.717155,57.7671451 148.200544,58.5617565 C148.639788,59.2515233 149.129798,59.8452746 149.661746,60.335285 C150.195902,60.8275026 150.749922,61.1729378 151.36685,61.4642953 C151.99371,61.7622746 152.552145,61.9543057 153.153622,62.030456 C153.774964,62.1055026 154.418378,62.1286788 155.026477,62.1286788 C155.720658,62.1286788 156.365176,62.0536321 156.962238,61.9013316 C157.561508,61.7490311 158.12215,61.5283057 158.645269,61.2336373 C158.959803,61.0669896 159.248953,60.909171 159.509409,60.7623886 C159.772073,60.6156062 159.796352,60.5427668 160.067845,60.5427668 C160.278637,60.5427668 160.44087,60.5946373 160.554544,60.7016891 C160.670425,60.8054301 160.765337,60.9257254 160.83928,61.0614715 C160.912119,61.2005285 160.96399,61.3395855 160.997098,61.4874715 C161.026896,61.6331503 161.04014,62.0624611 161.04014,62.1242642 L161.749772,62.1242642 L161.751979,55.2718446 L161.178093,55.2718446 C161.18913,55.4241451 161.195751,55.5764456 161.195751,55.7342642 C161.195751,56.8268549 160.896668,57.8234301 160.406658,58.5882435 C160.381275,58.6323886 160.354788,58.6765337 160.32499,58.7206788 C159.784212,59.5351554 159.060233,60.2039534 158.160777,60.7259689 C157.262425,61.2468808 156.371798,61.5073368 155.492207,61.5073368 C154.929358,61.5073368 154.365404,61.3815233 153.79814,61.1321036 C153.233083,60.8793731 152.802668,60.6034663 152.351285,60.2017461 C152.075378,59.9578446 151.786228,59.6411036 151.568813,59.3519534 C151.312772,58.9976891 151.103083,58.6279741 150.797378,57.7362435 C150.741093,57.5729067 150.687016,57.3985337 150.652803,57.2329896 C150.31399,55.8037927 150.112026,53.9474922 150.112026,51.9168187 C150.112026,47.9669378 150.89229,45.3833472 151.78071,44.2664767 C151.828166,44.2035699 151.959497,44.0490622 152.009161,43.9872591 C152.15815,43.8007461 152.377772,43.5800207 152.60843,43.3615026 C152.839088,43.1418808 153.071953,42.9630933 153.40856,42.7843057 C153.797036,42.5779275 154.109363,42.4355596 154.550813,42.3097461 C154.990057,42.1850363 155.509865,42.1419948 156.036295,42.1419948 C156.875052,42.1419948 157.626622,42.3185751 158.297627,42.6750466 C158.967528,43.0282073 159.502788,43.4762798 159.901197,44.017057 C160.088813,44.2885492 160.256565,44.6119119 160.403347,44.9871451 C160.55013,45.3612746 160.674839,45.7508549 160.780788,46.1580933 C160.886736,46.5653316 160.970611,46.9493938 161.033518,47.3135907 C161.094218,47.6799948 161.137259,47.9757668 161.156021,48.2042176 L161.778466,48.2042176 L161.778466,41.5228601 L161.776259,41.5228601 Z"/>
  </g>
</svg>
