<svg xmlns="http://www.w3.org/2000/svg" width="179" height="80" viewBox="0 0 179 80">
  <g fill="#FFFFFE" fill-rule="evenodd">
    <path d="M126.143325,7.05111911 L126.143325,9.94670738 L151.035686,9.94670738 C152.682631,9.94670738 155.180401,9.94670738 156.833035,11.6161094 C158.486107,13.2741131 158.486107,15.7637491 158.486107,17.4340279 L158.486107,42.340471 C158.486107,43.9918988 158.486107,46.4960018 156.833035,48.1474297 C155.180401,49.809379 152.682631,49.809379 151.035686,49.809379 L139.011199,49.809379 C136.936653,49.809379 134.237118,49.809379 133.203346,47.5214039 C132.165198,45.2439503 133.616504,43.1664041 134.862545,41.5044548 L151.035686,19.9319934 L126.143325,19.9319934 L116.210015,33.2118056 C114.548628,35.4357752 113.103448,37.361199 113.103448,39.8468894 C113.103448,42.340471 114.433521,44.1383222 116.210015,46.4960018 L118.705597,49.809379 C121.174919,53.1288936 123.670939,56.4549842 126.984523,58.1147415 C130.308611,59.7701149 134.237118,59.7701149 139.631812,59.7701149 L150.415073,59.7701149 C156.625581,59.7701149 165.963663,59.7701149 172.173732,53.5506281 C178.390805,47.3179894 178.390805,38.1888857 178.390805,34.8592879 L178.390805,24.898552 C178.390805,21.5768453 178.390805,12.4442345 172.173732,6.22299402 C165.963663,0 156.625581,0 150.415073,0 L133.203346,0 C131.550712,0 129.473978,0 127.823095,1.65361983 C126.143325,3.31600752 126.143325,5.38522427 126.143325,7.05111911"/>
    <polyline points="96.305 20.23 121.379 20.23 91.288 59.77 66.207 59.77 96.305 20.23"/>
    <path d="M0,27.2683424 C0,25.6147104 0,23.5389026 1.66072185,21.8747491 C3.32583018,20.2298851 5.39405614,20.2298851 7.06355095,20.2298851 L48.8118874,20.2298851 C54.2085755,20.2298851 58.1621111,20.2298851 61.479607,21.8747491 C64.8054372,23.5389026 67.2965199,26.8623871 69.8016394,30.1775422 L72.2826333,33.5097947 C74.0486307,35.863546 75.4022989,37.6592185 75.4022989,40.1449272 C75.4022989,42.638527 73.9595851,44.5661568 72.2826333,46.7940883 L62.3139157,60.0805739 L37.3829102,60.0805739 L53.5861337,38.4869112 C54.8389128,36.8337177 56.2912768,34.7557178 55.2551899,32.4611501 C54.2085755,30.1775422 51.5130826,30.1775422 49.4238016,30.1775422 L29.9136097,30.1775422 L29.9136097,80 L9.97222675,80 L9.97222675,30.1775422 L0,30.1775422 L0,27.2683424"/>
  </g>
</svg>
