<svg xmlns="http://www.w3.org/2000/svg" width="253" height="51" viewBox="0 0 253 51">
  <g fill="#FFF" fill-rule="evenodd">
    <path d="M42.1071429 3.92142857L44.3571429 5.97857143 15.9428571 22.3071429 2.18571429 14.3357143 3.47142857 11.7642857 15.9428571 18.9 42.1071429 3.92142857zM36.3857143.642857143L39.4071429 2.18571429 15.9428571 15.6857143 5.01428571 9.45 6.87857143 7.2 15.9428571 12.4071429 36.3857143.642857143zM46.35 8.1L48.0214286 10.35 15.9428571 28.8.45 19.9285714 1.15714286 17.1 15.9428571 25.5857143 46.35 8.1zM244.285714 7.97142857L250.264286 7.97142857C249.192 8.57057143 247.757143 9.70714286 245.955857 11.3785714L239.978571 17.4857143 243.257143 22.1785714C246.686143 27.0642857 249.685714 30.7928571 252.257143 33.3642857L243.707143 33.3642857C242.636143 30.8777143 241.242429 28.35 239.528571 25.7785714L235.671429 19.9928571 239.015571 15.75C242.013857 11.8504286 243.771429 9.25714286 244.285714 7.97142857zM235.221429 10.8L235.221429 30.4714286 235.478571 31.95C235.649571 32.2071429 236.036571 32.4218571 236.634429 32.5928571L236.634429 33.3642857 228.341571 33.3642857 228.341571 32.5928571 229.498714 31.95C229.669714 31.6928571 229.755857 31.2004286 229.755857 30.4714286L229.755857 10.8 229.498714 9.38571429C229.327714 9.08614286 228.940714 8.89328571 228.341571 8.80714286L228.341571 7.97142857 236.634429 7.97142857 236.634429 8.80714286C236.035286 8.892 235.648286 9.08614286 235.478571 9.38571429L235.221429 10.8zM222.878571 10.8L222.878571 30.4714286 223.135714 31.95 224.292857 32.5928571 224.292857 33.3642857 215.935714 33.3642857 215.935714 32.5928571C216.534857 32.4218571 216.964286 32.2071429 217.221429 31.95L217.413 30.4714286 217.413 20.25 207.641571 20.25 207.641571 30.4714286 207.898714 31.95C208.071 32.2071429 208.455429 32.4218571 209.054571 32.5928571L209.054571 33.3642857 200.633143 33.3642857 200.633143 32.5928571C201.319714 32.4218571 201.746571 32.2071429 201.918857 31.95L202.176 30.4714286 202.176 10.8 201.918857 9.38571429C201.746571 9.08614286 201.319714 8.89328571 200.633143 8.80714286L200.633143 7.97142857 209.054571 7.97142857 209.054571 8.80714286C208.454143 8.892 208.069714 9.08614286 207.898714 9.38571429L207.641571 10.8 207.641571 18.5785714 217.413 18.5785714 217.413 10.8 217.221429 9.38571429C216.964286 9.08614286 216.534857 8.89328571 215.935714 8.80714286L215.935714 7.97142857 224.292857 7.97142857 224.292857 8.80714286C223.692429 8.892 223.306714 9.08614286 223.135714 9.38571429L222.878571 10.8zM252.257143 42.2357143L66.2142857 42.2357143 66.2142857 39.7285714 252.257143 39.7285714 252.257143 42.2357143zM182.442857 8.80714286L182.442857 7.97142857 189.770143 7.97142857C189.855 9.12857143 190.157143 10.3718571 190.670143 11.7L196.070143 26.8714286C196.970143 29.529 197.848286 31.6928571 198.705857 33.3642857L192.277286 33.3642857 189.514286 24.2357143 181.348714 24.2357143 179.613 30.2785714 179.098714 33.3642857 174.470143 33.3642857 182.697429 14.3357143C183.512571 12.3222857 183.918857 10.9504286 183.918857 10.2214286 183.921429 9.40757143 183.427714 8.93571429 182.442857 8.80714286zM185.464286 12.2142857L181.992857 22.4357143 188.935714 22.4357143 185.464286 12.2142857zM172.478571 13.5L171.063 13.5 170.741571 12.4071429C170.398286 11.1638571 169.884 10.35 169.198714 9.96428571L165.663 9.51428571 162.257143 9.51428571C161.484429 9.51428571 160.971429 9.64285714 160.714286 9.9 160.500857 10.1147143 160.392857 10.4991429 160.392857 11.0571429L160.392857 17.1 161.807143 17.1C165.921429 17.1 168.771857 17.5075714 170.357143 18.3214286 172.629 19.4361429 173.764286 21.6218571 173.764286 24.8785714 173.764286 28.0504286 172.864286 30.321 171.063 31.6928571 169.477714 32.8075714 167.014286 33.3642857 163.670143 33.3642857L153.514286 33.3642857 153.514286 32.5928571 154.734429 31.95 154.927286 30.4714286 154.927286 10.8 154.734429 9.38571429C154.563429 9.08614286 154.157143 8.89328571 153.514286 8.80714286L153.514286 7.97142857 172.478571 7.97142857 172.478571 13.5zM160.392857 29.5714286C160.392857 30.429 160.543286 30.9857143 160.842857 31.2428571 161.187429 31.5861429 161.786571 31.7571429 162.642857 31.7571429L163.414286 31.7571429C165.044571 31.7571429 166.242857 31.1991429 167.015571 30.0857143 167.700857 29.0571429 168.044143 27.4075714 168.044143 25.1357143 168.044143 22.9075714 167.679 21.3222857 166.95 20.3785714 166.178571 19.2638571 164.742429 18.7071429 162.642857 18.7071429L160.392857 18.7071429 160.392857 29.5714286zM151.264286 15.2357143C151.264286 18.1928571 150.364286 20.3142857 148.563 21.6 147.020143 22.7147143 144.621 23.2714286 141.363 23.2714286L138.791571 23.2714286 138.791571 30.4714286 139.048714 31.95C139.177286 32.2071429 139.583571 32.4218571 140.268857 32.5928571L140.268857 33.3642857 131.911714 33.3642857 131.911714 32.5928571 133.068857 31.95 133.326 30.4714286 133.326 10.8 133.068857 9.38571429C132.897857 9.08614286 132.510857 8.89328571 131.911714 8.80714286L131.911714 7.97142857 142.454571 7.97142857C145.325571 7.97142857 147.425143 8.39957143 148.754571 9.25714286 150.428571 10.3718571 151.264286 12.3647143 151.264286 15.2357143zM139.178571 9.77142857C138.921429 9.94242857 138.792857 10.3281429 138.792857 10.9285714L138.792857 21.6642857 141.364286 21.6642857C142.949571 21.6642857 144.064286 21.0638571 144.707143 19.8642857 145.265143 18.7932857 145.542857 17.1642857 145.542857 14.9785714 145.542857 11.3361429 144.020571 9.51428571 140.978571 9.51428571L140.335714 9.51428571 139.178571 9.77142857zM128.057143 13.5L126.707143 13.5 126.385714 12.4071429C125.957571 11.1638571 125.421429 10.35 124.778571 9.96428571L121.307143 9.51428571 118.478571 9.51428571 117.45 9.77142857 117.192857 10.7357143 117.192857 18.5785714 120.535714 18.5785714C122.85 18.5785714 124.371 18.3214286 125.1 17.8071429L125.1 21.0214286C124.372286 20.5071429 122.85 20.25 120.535714 20.25L117.192857 20.25 117.192857 29.7642857C117.192857 30.5357143 117.45 31.0718571 117.964286 31.3714286L121.178571 31.7571429 121.885714 31.7571429 125.357143 31.2428571C125.957571 30.8571429 126.429429 29.9147143 126.771429 28.4142857L127.028571 27.45 128.635714 27.45 128.635714 33.3642857 110.314286 33.3642857 110.314286 32.5928571C110.957143 32.4218571 111.364714 32.2071429 111.535714 31.95L111.792857 30.4714286 111.792857 10.8 111.535714 9.38571429C111.364714 9.08614286 110.957143 8.89328571 110.314286 8.80714286L110.314286 7.97142857 128.057143 7.97142857 128.057143 13.5zM106.135714 13.5L104.785714 13.5 104.464286 12.4071429C104.078571 11.1638571 103.542429 10.35 102.857143 9.96428571L99.45 9.51428571 95.9142857 9.51428571C95.1852857 9.51428571 94.671 9.64285714 94.3714286 9.9 94.2428571 10.1147143 94.1785714 10.4991429 94.1785714 11.0571429L94.1785714 17.1 95.5928571 17.1C99.6647143 17.1 102.513857 17.5075714 104.142857 18.3214286 106.371 19.4361429 107.485714 21.6218571 107.485714 24.8785714 107.485714 28.0504286 106.585714 30.321 104.785714 31.6928571 103.242857 32.8075714 100.778143 33.3642857 97.3928571 33.3642857L87.1714286 33.3642857 87.1714286 32.5928571C87.858 32.4218571 88.2861429 32.2071429 88.4571429 31.95L88.7142857 30.4714286 88.7142857 10.8 88.4571429 9.38571429C88.2861429 9.08614286 87.858 8.89328571 87.1714286 8.80714286L87.1714286 7.97142857 106.135714 7.97142857 106.135714 13.5zM80.55 10.0285714C79.7785714 9.47185714 78.579 9.19285714 76.95 9.19285714 74.3785714 9.19285714 72.5567143 10.1352857 71.4857143 12.0214286 70.5857143 13.6504286 70.1357143 16.3067143 70.1357143 19.9928571 70.1357143 23.679 70.6281429 26.3995714 71.6142857 28.1571429 72.8138571 30.3428571 74.871 31.4357143 77.7857143 31.4357143 79.929 31.4357143 82.0504286 30.9214286 84.15 29.8928571L84.9214286 31.5C82.4785714 32.9991429 79.6075714 33.75 76.3071429 33.75 68.2495714 33.75 64.2214286 29.4852857 64.2214286 20.9571429 64.2214286 12.0008571 68.4 7.52142857 76.7571429 7.52142857 79.9714286 7.52142857 82.4361429 7.90714286 84.15 8.67857143L84.15 13.95 82.5428571 13.95 82.0928571 12.4071429C81.7495714 11.3361429 81.2352857 10.5428571 80.55 10.0285714zM94.1785714 29.5714286C94.1785714 30.429 94.3071429 30.9857143 94.5642857 31.2428571 94.9075714 31.5861429 95.5285714 31.7571429 96.4285714 31.7571429L97.1357143 31.7571429C100.221429 31.7571429 101.764286 29.5495714 101.764286 25.1357143 101.764286 22.9075714 101.400429 21.3222857 100.671429 20.3785714 99.8575714 19.2638571 98.3995714 18.7071429 96.3 18.7071429L94.1785714 18.7071429 94.1785714 29.5714286z"/>
    <path d="M50.9785714,16.3928571 C51.921,19.0504286 52.3928571,21.8352857 52.3928571,24.75 C52.3928571,27.6647143 51.921,30.4932857 50.9785714,33.2357143 L50.3357143,34.9727143 C49.0075714,38.1008571 47.1432857,40.887 44.7428571,43.3298571 C42.3,45.729 39.5151429,47.5727143 36.3857143,48.8584286 C33.0865714,50.2727143 29.6794286,50.9798571 26.1642857,50.9798571 C22.6067143,50.9798571 19.1995714,50.2714286 15.9428571,48.8584286 C12.8995714,47.5727143 10.1352857,45.729 7.65,43.3298571 C5.20714286,40.887 3.34285714,38.1008571 2.05714286,34.9727143 C0.685285714,31.671 0,28.2638571 0,24.75 L0,23.0142857 L15.9428571,32.0785714 L49.5642857,12.7928571 L50.9785714,16.3928571 Z"/>
  </g>
</svg>
