<svg xmlns="http://www.w3.org/2000/svg" xmlns:xlink="http://www.w3.org/1999/xlink" width="254" height="80" viewBox="0 0 254 80">
  <defs>
    <polygon id="severstal-a" points=".562 .532 37.73 .532 37.73 67.894 .562 67.894"/>
  </defs>
  <g fill="none" fill-rule="evenodd">
    <path fill="#FFF" d="M59.3116418 52.6531343L61.479403 52.6531343C64.4358209 52.6531343 66.2101493 52.0638806 66.2101493 50.1402985 66.2101493 48.6149254 65.1277612 47.7259701 62.2173134 47.7259701L59.3116418 47.7259701 59.3116418 52.6531343zM59.1653731 63.1516418L62.0752239 63.1516418C64.5361194 63.1516418 66.9546269 62.4137313 66.9546269 60.0453731 66.9546269 57.8298507 65.1277612 57.041791 61.7265672 57.041791L59.1653731 57.041791 59.1653731 63.1516418zM52.0197015 42.9928358L62.2173134 42.9928358C63.4173134 42.9701493 65.161194 42.9385075 66.5534328 43.1307463 69.760597 43.561194 73.0107463 44.9767164 73.0107463 48.8585075 73.0107463 52.1116418 71.0943284 53.640597 68.7755224 54.1337313L68.7755224 54.3295522C72.1271642 54.921791 74.0501493 56.6991045 74.0501493 60.2459701 74.0501493 66.038806 68.5164179 67.638806 64.038209 67.8531343 62.9426866 67.8835821 61.5379104 67.8835821 60.5952239 67.8835821L52.0197015 67.8835821 52.0197015 42.9928358zM108.001194 50.4746269L108.001194 62.2549254C108.789254 62.7970149 109.77194 63.2435821 111.057313 63.2435821 115.884179 63.2435821 117.460896 58.8561194 117.460896 54.6161194 117.460896 49.4883582 115.78806 47.6674627 112.924179 47.6674627 111.057313 47.6674627 108.839403 49.1928358 108.001194 50.4746269zM108.001194 67.3331343L108.001194 77.8322388 100.899104 80 100.899104 42.9844776 106.865672 42.9844776 107.653731 45.2507463C109.477015 43.8220896 111.598806 42.4889552 114.358806 42.4889552 120.078209 42.4889552 124.560597 46.8268657 124.560597 54.7140299 124.560597 62.1092537 120.124179 68.3683582 112.78209 68.3683582 110.957015 68.3683582 109.280597 68.0208955 108.001194 67.3331343zM178.336119 56.7361194C175.28 56.8364179 173.853731 57.8698507 173.853731 59.7420896 173.853731 61.6638806 175.179701 62.8471642 177.59403 62.8471642 179.471045 62.8471642 180.801194 62.2549254 181.442985 61.7164179L181.442985 56.6358209 178.336119 56.7361194zM181.883582 65.6585075C180.213134 67.1850746 178.24 68.3683582 175.035224 68.3683582 170.30209 68.3683582 166.75403 65.2107463 166.75403 60.2835821 166.75403 55.0089552 170.99403 52.2997015 177.303284 52.1032836L181.488955 51.9528358 181.488955 51.4614925C181.488955 48.8501493 179.374925 47.8137313 176.910448 47.8137313 174.392836 47.8137313 172.223284 48.5540299 170.598806 49.5379104L168.426866 45.198209C171.832239 42.9844776 175.081194 42.4889552 178.482388 42.4889552 185.044776 42.4889552 188.542687 45.1020896 188.542687 51.6579104L188.542687 67.8740299 183.022687 67.8740299 181.883582 65.6585075zM86.8991045 47.6674627C84.0429851 47.6674627 82.4125373 50.2286567 82.4125373 52.4985075L91.3892537 52.4985075C91.238806 50.1301493 89.9050746 47.6674627 86.8991045 47.6674627zM82.5629851 57.3755224C82.7134328 60.7277612 85.8704478 62.7970149 89.1713433 62.7970149 91.5856716 62.7970149 93.4089552 62.3552239 96.2185075 61.0238806L97.798806 65.5080597C94.3450746 67.678209 90.9946269 68.3683582 87.9880597 68.3683582 79.1158209 68.3683582 75.4674627 62.0591045 75.4674627 55.5050746 75.4674627 48.5050746 79.6573134 42.4889552 87.0997015 42.4889552 93.9002985 42.4889552 98.6352239 47.518806 98.6352239 55.2077612L98.6352239 57.3755224 82.5629851 57.3755224zM38.0053731 47.6674627C35.1444776 47.6674627 33.519403 50.2286567 33.519403 52.4985075L42.4907463 52.4985075C42.3414925 50.1301493 41.0107463 47.6674627 38.0053731 47.6674627zM33.6644776 57.3755224C33.8149254 60.7277612 36.9719403 62.7970149 40.2728358 62.7970149 42.6877612 62.7970149 44.5092537 62.3552239 47.3235821 61.0238806L48.8997015 65.5080597C45.4471642 67.678209 42.0955224 68.3683582 39.0895522 68.3683582 30.2125373 68.3683582 26.5683582 62.0591045 26.5683582 55.5050746 26.5683582 48.5050746 30.758806 42.4889552 38.1970149 42.4889552 45.001791 42.4889552 49.7349254 47.518806 49.7349254 55.2077612L49.7349254 57.3755224 33.6644776 57.3755224zM194.600597 45.8901493C194.600597 54.5659701 194.25791 59.1008955 192.679403 61.1719403 191.891343 62.2071642 190.656119 62.8973134 189.380896 63.0937313L191.34806 68.3683582C192.974328 68.3176119 195.488955 67.6304478 197.213731 65.9014925 199.482388 63.6847761 200.224478 60.8758209 200.567164 57.9176119 200.86806 55.4023881 201.062687 52.4465672 201.062687 49.8358209L201.062687 48.601791 206.608955 48.601791 206.608955 67.8740299 213.708657 67.8740299 213.708657 42.9844776 194.600597 42.9844776 194.600597 45.8901493zM160.490746 48.601791L160.490746 67.8740299 153.395821 67.8740299 153.395821 48.601791 146.494925 48.601791 146.494925 42.9844776 168.280597 42.9844776 166.511642 48.601791 160.490746 48.601791zM138.40597 68.3683582C130.426866 68.3683582 126.333134 62.5044776 126.333134 55.5050746 126.333134 47.6674627 131.755821 42.4889552 139.004179 42.4889552 142.204776 42.4889552 143.88597 43.1307463 145.211343 43.918806L145.211343 49.5379104C143.440597 48.2567164 142.010149 47.8137313 140.040597 47.8137313 135.952239 47.8137313 133.437015 50.8197015 133.437015 55.16 133.437015 59.0507463 135.356418 62.8471642 139.936716 62.8471642 141.22209 62.8471642 142.947463 62.3552239 144.769552 61.4167164L146.444776 66.001791C144.372537 67.3832836 140.925373 68.3683582 138.40597 68.3683582zM16.6573134 68.3683582C5.86626866 68.3683582 0 60.5808955 0 50.8197015 0 40.9629851 6.90029851 32.8764179 18.2370149 32.8764179 21.2435821 32.8764179 23.8537313 33.2716418 26.1259701 34.4549254L26.1259701 40.8143284C23.1152239 39.041194 20.7020896 38.6943284 18.4835821 38.6943284 10.7958209 38.6943284 7.78925373 44.36 7.78925373 50.3265672 7.78925373 56.9808955 11.5379104 62.2549254 17.7916418 62.2549254 20.5558209 62.2549254 22.8238806 61.6161194 25.48 60.1850746L27.3564179 65.2107463C23.3653731 67.7307463 19.9635821 68.3683582 16.6573134 68.3683582z"/>
    <g transform="translate(216.12)">
      <mask id="severstal-b" fill="#fff">
        <use xlink:href="#severstal-a"/>
      </mask>
      <path fill="#FFF" d="M7.65731343 62.9665672L7.65731343 56.0191045 10.0214925 56.0191045C12.5408955 56.0191045 15.3002985 56.4095522 15.3002985 59.3653731 15.3002985 62.2758209 12.9319403 62.9665672 10.1265672 62.9665672L7.65731343 62.9665672zM7.65731343 51.0853731L7.65731343 41.918209.561791045 44.0877612.561791045 67.8943284 9.63104478 67.8943284C16.2346269 67.8943284 22.3964179 66.118209 22.3964179 59.2650746 22.3964179 53.4513433 17.4226866 51.0853731 11.3056716 51.0853731L7.65731343 51.0853731zM33.1540299 26.7176119C33.601194 26.5755224 34.0322388 26.3373134 34.4543284 26.040597 35.0985075 24.3761194 35.6985075 22.5235821 36.2316418 20.4626866 36.9379104 17.7361194 37.3665672 15.2698507 37.5755224 13.0579104 37.7868657 10.8125373 37.7701493 8.82208955 37.5904478 7.07462687 37.4 5.23880597 36.9170149 3.36597015 35.8238806 2.29134328 34.7301493 1.21671642 32.8573134.769552239 31.0173134.610746269 29.2656716.48119403 27.279403.502089552 25.0465672.743880597 25.519403.95761194 25.9414925 1.21671642 26.2883582 1.53014925 27.3820896 2.53432836 27.8943284 4.2441791 28.1158209 5.92059701 28.278806 7.14149254 28.3474627 8.47940299 28.2997015 9.94746269 28.2244776 12.3176119 27.84 15.0191045 27.0495522 18.0877612 26.438806 20.4501493 25.7158209 22.5032836 24.921194 24.2883582 26.1510448 25.0453731 27.3259701 25.6429851 28.44 26.1068657 30.0059701 26.7510448 31.7450746 27.1647761 33.1540299 26.7176119" mask="url(#severstal-b)"/>
    </g>
    <path fill="#FFF" d="M223.377313,21.6376119 C223.277015,22.0931343 223.264478,22.5910448 223.312836,23.1092537 C224.429254,24.4931343 225.729552,25.9313433 227.242985,27.4238806 C229.262687,29.401791 231.19403,31.0035821 233.017313,32.2907463 C234.848358,33.5826866 236.573134,34.561791 238.168358,35.2931343 C239.844776,36.0668657 241.709851,36.5641791 243.185672,36.1546269 C244.66209,35.7444776 245.991045,34.3438806 247.049552,32.8304478 C248.056716,31.3880597 249.031045,29.6525373 249.934328,27.5916418 C249.507463,27.9008955 249.064478,28.1391045 248.608955,28.281791 C247.197612,28.7325373 245.460299,28.318806 243.896119,27.6752239 C242.759403,27.2071642 241.563582,26.5964179 240.312836,25.8191045 C238.30209,24.5683582 236.153433,22.8877612 233.893134,20.6674627 C232.151642,18.9534328 230.738507,17.3056716 229.588657,15.7253731 C228.321194,16.4071642 227.21791,17.1259701 226.26209,17.8579104 C224.922388,18.8907463 223.694925,20.1910448 223.377313,21.6376119"/>
    <path fill="#FFF" d="M240.706269,1.71044776 C240.380299,1.41373134 239.976716,1.16238806 239.531343,0.95761194 C237.75403,1.22507463 235.839403,1.63044776 233.76597,2.20358209 C231.05791,2.95223881 228.715224,3.81313433 226.695522,4.73731343 C224.661493,5.66985075 222.957015,6.66507463 221.535522,7.68895522 C220.02209,8.77671642 218.623284,10.1438806 218.237015,11.64 C217.85194,13.1373134 218.412537,15.0059701 219.207164,16.6913433 C219.953433,18.2758209 220.962985,19.9737313 222.288358,21.7755224 C222.23403,21.2489552 222.248955,20.7426866 222.351045,20.278806 C222.671045,18.8316418 223.895522,17.5319403 225.236418,16.4991045 C226.206567,15.7504478 227.330746,15.0232836 228.626866,14.3289552 C230.717612,13.2125373 233.251343,12.1880597 236.303881,11.3432836 L236.305672,11.3432836 C238.651343,10.6913433 240.785672,10.2901493 242.721791,10.0853731 C242.767761,8.63402985 242.696716,7.30865672 242.537313,6.10029851 C242.31403,4.4238806 241.801791,2.71343284 240.706269,1.71044776"/>
  </g>
</svg>
