<svg xmlns="http://www.w3.org/2000/svg" width="206" height="40" viewBox="0 0 206 40">
  <g fill="#FFF" fill-rule="evenodd">
    <path d="M38.8718367 17.2187755C38.8718367 17.2187755 39.8391837 6.29714286 39.9306122 5.22530612 40.0791837 3.50693878 38.6946939.37877551 35.3567347.37877551 34.3355102.37877551 25.5044898.37877551 25.5044898.37877551L25.5044898.383673469 18.6326531.383673469C18.6326531.383673469 9.56734694.383673469 7.78693878.383673469 4.44897959.383673469 2.8277551 2.64897959 2.61877551 4.8122449 2.49469388 6.09632653.216326531 32.5004082.0693877551 34.0236735-.167346939 36.4693878 1.52326531 39.2416327 4.59428571 39.2416327 6.01877551 39.2416327 16.1755102 39.2416327 16.1755102 39.2416327L16.1755102 39.24 21.0097959 39.24 21.0097959 39.2416327C21.0097959 39.2416327 30.0881633 39.2416327 32.0032653 39.2416327 35.6416327 39.2416327 37.0546939 37.3159184 37.3640816 34.3469388 37.5493878 32.5706122 38.4497959 21.8195918 38.4497959 21.8195918L21.8816327 21.8195918 21.1657143 30.1265306 16.9714286 30.1265306 18.7779592 9.49714286 22.9697959 9.49714286 22.3044898 17.2187755 38.8718367 17.2187755M64.442449 3.71591837C63.8522449 5.41714286 59.0310204 20.5110204 59.0310204 20.5110204L61.1738776.383673469 44.6138776.382040816 41.1436735 39.2416327C41.1436735 39.2416327 49.8857143 39.2416327 53.6244898 39.2416327 56.7608163 39.2416327 57.8318367 37.4620408 58.3534694 36.0383673 58.9771429 34.3355102 63.5738776 21.64 63.5738776 21.64L61.8832653 39.2416327 78.4555102 39.2416327 81.8710204.382040816C81.8710204.382040816 69.9934694.383673469 68.8636735.383673469 65.9942857.383673469 64.8620408 2.50693878 64.442449 3.71591837M148.373061.383673469L146.822857 18.1053061 142.622041 18.1053061 144.173061.383673469 127.604082.383673469C127.604082.383673469 126.01551 19.1444898 125.847347 20.9559184 125.647347 23.1191837 126.87102 26.1869388 130.542041 26.1869388 132.274286 26.1869388 146.115102 26.1869388 146.115102 26.1869388L145.769796 30.1281633 125.044898 30.1281633 124.246531 39.2416327 146.565714 39.2416327C146.565714 39.2416327 155.246531 39.2416327 157.218776 39.2416327 159.449796 39.2416327 161.60898 37.7828571 161.902041 34.6677551 162.091429 32.6661224 164.942041.383673469 164.942041.383673469L148.373061.383673469M184.039184 19.1379592L184.882449 9.49877551 189.032653 9.49877551 188.189388 19.1379592 184.039184 19.1379592zM191.612245.385306122L185.680816.385306122 185.680816.383673469 169.111837.383673469 165.712653 39.2416327 182.280816 39.2416327 183.333061 27.2187755 189.26449 27.2187755 188.161633 27.2204082C198.592653 27.2204082 197.914286 27.2204082 199.427755 27.2204082 202.274286 27.2204082 204.166531 25.7673469 204.471837 22.4334694 204.59102 21.1420408 205.900408 6.41306122 205.987755 5.11102041 206.186122 2.23918367 203.899592.385306122 201.063673.385306122 199.927347.385306122 191.612245.385306122 191.612245.385306122zM104.197551 31.1583673L99.9697959 31.1583673 100.812245 21.5183673 105.040816 21.5183673 104.197551 31.1583673zM101.519184 13.4367347L101.865306 9.4955102 122.618776 9.4955102 123.41551.382040816 86.0922449.382040816 82.6930612 39.24 88.9159184 39.24 88.9159184 39.2416327C88.9159184 39.2416327 113.754286 39.24 115.758367 39.24 117.857959 39.24 120.13551 37.995102 120.431837 34.7453061 120.654694 32.3077551 121.675102 20.7534694 121.861224 18.6579592 122.108571 15.8571429 120.32898 13.4367347 116.841633 13.4367347 115.124898 13.4367347 101.519184 13.4367347 101.519184 13.4367347z"/>
  </g>
</svg>
