<svg xmlns="http://www.w3.org/2000/svg" width="244" height="47" viewBox="0 0 244 47">
  <g fill="none" fill-rule="evenodd">
    <path fill="#FFF" fill-rule="nonzero" d="M3.88203835,15.6295892 L6.83605229,10.3547806 L1.60341866,0.975114495 C2.24559535,0.876946966 2.89475107,0.831668113 3.54434123,0.839734425 C4.31001094,0.839734425 4.94193922,0.884861115 5.46018728,0.975114495 L8.7535701,7.19925498 L12.0469529,0.975114495 C12.6891146,0.876811853 13.3382814,0.831532224 13.9878755,0.839734425 C14.7535452,0.839734425 15.3854735,0.884861115 15.9037215,0.975114495 L7.74047874,15.6312606 C7.22055891,15.7215139 6.58695886,15.7649693 5.82296092,15.7649693 C5.05561944,15.7649693 4.40195818,15.7198426 3.88203835,15.6295892 Z M24.0636208,9.72133554 L30.1321384,9.72133554 L30.1321384,15.6295892 C31.3267517,15.8318196 32.546872,15.8318196 33.7414854,15.6295892 L33.7414854,0.975114495 C32.5470125,0.771220959 31.3266113,0.771220959 30.1321384,0.975114495 L30.1321384,6.7229177 L24.0636208,6.7229177 L24.0636208,0.975114495 C22.8697095,0.771217663 21.649857,0.771217663 20.4559456,0.975114495 L20.4559456,15.6295892 C21.649857,15.833486 22.8697095,15.833486 24.0636208,15.6295892 L24.0636208,9.72133554 Z M39.0811121,15.6295892 C40.0144938,15.788386 40.9680029,15.788386 41.9013846,15.6295892 L48.7339002,7.03880453 L48.7339002,15.6295892 C49.9290748,15.831818 51.1497442,15.831818 52.3449189,15.6295892 L52.3449189,0.973443136 C51.4108348,0.816326683 50.4570587,0.816326683 49.5229746,0.973443136 L42.6904591,9.56422781 L42.6904591,0.973443136 C41.4959862,0.7695496 40.275585,0.7695496 39.0811121,0.973443136 L39.0811121,15.6295892 Z M67.4493421,2.05481233 C68.3286921,2.75344035 68.7783977,3.67937317 68.7783977,4.80586906 C68.7783977,6.29337847 68.1030034,7.37641903 66.7739479,8.05164802 C68.1949506,8.68342167 69.0726288,9.87677192 69.0726288,11.4796051 C69.0726288,14.0718827 67.111645,15.6279178 64.0439509,15.6279178 L57.6845457,15.6279178 L57.6845457,0.971771777 L63.9988131,0.971771777 C65.4214876,0.973443136 66.571664,1.33445666 67.4493421,2.05481233 Z M65.3980829,11.0550799 C65.3980829,10.0405651 64.8330253,9.52077248 63.6845208,9.52077248 L61.2922209,9.52077248 L61.2922209,12.6328427 L63.819934,12.6328427 C64.8781631,12.6328427 65.3980829,12.1130501 65.3980829,11.0550799 Z M63.5942453,3.97353234 L61.2938926,3.97353234 L61.2938926,6.9953492 L63.5942453,6.9953492 C64.5621989,6.99367784 65.1723942,6.45382892 65.1723942,5.48444077 C65.1723942,4.46992592 64.6524744,3.97353234 63.5942453,3.97353234 Z M73.6950671,15.6295892 L83.911241,15.6295892 C84.0917804,14.6388272 84.0917804,13.6236047 83.911241,12.6328427 L77.3027423,12.6328427 L77.3027423,9.7230069 L83.1422277,9.7230069 C83.3244516,8.73183599 83.3244516,7.71575997 83.1422277,6.72458906 L77.3027423,6.72458906 L77.3027423,3.97353234 L83.911241,3.97353234 C84.0918,2.98221043 84.0918,1.9664364 83.911241,0.975114495 L73.6950671,0.975114495 L73.6950671,15.6295892 Z M99.9434954,5.88890962 C99.9434954,7.35469136 99.4252474,8.55138432 98.4104842,9.45391812 C97.3957211,10.3547806 96.0649938,10.8043761 94.4199742,10.8043761 L92.2784395,10.8043761 L92.2784395,15.6295892 C91.0832648,15.831818 89.8625954,15.831818 88.6674207,15.6295892 L88.6674207,0.973443136 L94.4199742,0.973443136 C96.0649938,0.973443136 97.3957211,1.42638139 98.4104842,2.32557247 C99.4252474,3.23144899 99.9434954,4.42312788 99.9434954,5.88890962 Z M96.2672777,5.88890962 C96.2672777,4.62703366 95.4765315,3.97353234 94.4199742,3.97353234 L92.2784395,3.97353234 L92.2784395,7.80595826 L94.4199742,7.80595826 C95.4782033,7.8042869 96.2672777,7.15245694 96.2672777,5.88890962 Z M116.967108,5.03317387 C117.080788,4.85433847 117.147659,4.33454585 117.125926,3.45541108 C117.102521,2.57460495 117.057384,2.01302836 116.967108,1.76399589 C115.750061,1.01856983 114.262188,0.6375 112.501816,0.6375 C109.997508,0.6375 107.993058,1.3812547 106.480108,2.84536509 C104.96883,4.31114683 104.224893,6.13794209 104.224893,8.30402321 C104.224893,10.4667616 104.96883,12.2918855 106.480108,13.7593386 C107.993058,15.2251204 109.997508,15.9688751 112.501816,15.9688751 C114.262188,15.9688751 115.750061,15.5861339 116.967108,14.8423792 C117.059055,14.5950181 117.104193,14.0317701 117.125926,13.1526353 C117.147659,12.2718292 117.080788,11.7553793 116.967108,11.5748725 C115.45583,12.5008054 114.036499,12.9721286 112.707444,12.9721286 C111.329907,12.9721286 110.203135,12.5442607 109.278648,11.7102526 C108.352488,10.8528455 107.901111,9.72467826 107.901111,8.30569457 C107.901111,6.88503951 108.352488,5.75687227 109.278648,4.92286418 C110.203135,4.06378572 111.329907,3.63591784 112.707444,3.63591784 C114.036499,3.63591784 115.457502,4.10891241 116.967108,5.03317387 Z M132.842217,0.973443136 L126.008029,9.56422781 L126.008029,0.973443136 C124.814118,0.769546304 123.594265,0.769546304 122.400354,0.973443136 L122.400354,15.6295892 C123.333736,15.788386 124.287245,15.788386 125.220627,15.6295892 L132.053142,7.03880453 L132.053142,15.6295892 C133.247755,15.8318196 134.467876,15.8318196 135.662489,15.6295892 L135.662489,0.973443136 C134.727856,0.816325549 133.775178,0.816325549 132.842217,0.973443136 Z M140.283256,3.97186098 L144.252033,3.97186098 L144.252033,15.6295892 C145.446646,15.8318196 146.666766,15.8318196 147.86138,15.6295892 L147.86138,3.97186098 L151.830157,3.97186098 C152.007371,2.98023985 152.007371,1.96506426 151.830157,0.973443136 L140.283256,0.973443136 C140.101032,1.96461405 140.101032,2.98069006 140.283256,3.97186098 Z M166.733968,15.6295892 C166.914507,14.6388272 166.914507,13.6236047 166.733968,12.6328427 L160.125469,12.6328427 L160.125469,9.7230069 L165.966626,9.7230069 C166.147185,8.73168499 166.147185,7.71591097 165.966626,6.72458906 L160.125469,6.72458906 L160.125469,3.97353234 L166.733968,3.97353234 C166.914527,2.98221043 166.914527,1.9664364 166.733968,0.975114495 L156.521137,0.975114495 L156.521137,15.6295892 L166.733968,15.6295892 Z M174.740064,3.97353234 L174.740064,15.6295892 C175.933976,15.833486 177.153828,15.833486 178.34774,15.6295892 L178.34774,3.97353234 L182.314845,3.97353234 C182.497069,2.98236142 182.497069,1.96628541 182.314845,0.975114495 L170.769616,0.975114495 C170.590727,1.96658651 170.590727,2.98206032 170.769616,3.97353234 L174.740064,3.97353234 Z M13.8324011,44.483929 C16.5891464,44.483929 18.9212627,43.8839112 20.8287499,42.7173027 C20.9708501,42.3295474 21.0410644,41.4437272 21.0761715,40.0665275 C21.1112786,38.6893277 21.0059573,37.875376 20.8287499,37.5945877 C18.4631982,39.0419845 16.2347316,39.7874105 14.1483652,39.7874105 C11.9934564,39.7874105 10.2263976,39.1155243 8.77697485,37.8068503 C7.32922383,36.4647491 6.62206599,34.6997941 6.62206599,32.473544 C6.62206599,30.247294 7.32922383,28.4806677 8.77697485,27.1719937 C10.2263976,25.8298925 11.9951281,25.1596776 14.1483652,25.1596776 C16.2347316,25.1596776 18.4631982,25.9000896 20.8287499,27.3525004 C21.0059573,27.0666981 21.1112786,26.2577604 21.0761715,24.8788893 C21.0410644,23.5016896 20.9708501,22.6175407 20.8287499,22.2297854 C18.9212627,21.0615056 16.5891464,20.4631591 13.8324011,20.4631591 C9.90876174,20.4631591 6.7624945,21.6264249 4.39694288,23.922872 C2.02804772,26.2209905 0.864497238,29.0840282 0.864497238,32.473544 C0.864497238,35.8647312 2.02804772,38.727769 4.39694288,41.0208734 C6.76416627,43.3173205 9.90876174,44.483929 13.8324011,44.483929 Z M25.8122901,20.9913085 L25.8122901,43.9557796 C27.2741652,44.2031421 28.7672258,44.2031421 30.2291009,43.9557796 L40.9367745,30.4929838 L40.9367745,43.9557796 C42.8074829,44.2716664 44.7199854,44.2716664 46.5906937,43.9557796 L46.5906937,20.9913085 C45.1282573,20.7439475 43.6346474,20.7439475 42.172211,20.9913085 L31.4645374,34.4507616 L31.4645374,20.9913085 C29.5950953,20.6720673 27.683404,20.6720673 25.8122901,20.9913085 Z M51.4304618,43.9557796 C53.3045137,44.2716664 55.2136727,44.2716664 57.0860527,43.9557796 L57.0860527,34.6997941 L66.5917252,34.6997941 L66.5917252,43.9557796 C68.4624335,44.2716664 70.374936,44.2716664 72.2456443,43.9557796 L72.2456443,20.9913085 C70.3745304,20.6720673 68.4628391,20.6720673 66.5917252,20.9913085 L66.5917252,29.9999329 L57.0860527,29.9999329 L57.0860527,20.9913085 C55.2143773,20.6720704 53.3021373,20.6720704 51.4304618,20.9913085 L51.4304618,43.9557796 Z M93.2029271,20.9896371 L77.1924056,20.9896371 L77.1924056,43.9541082 L93.2029271,43.9541082 C93.4837902,42.3995083 93.4837902,40.8071756 93.2029271,39.2525757 L82.8463248,39.2525757 L82.8463248,34.6964514 L92.000926,34.6964514 C92.281789,33.1418515 92.281789,31.5495187 92.000926,29.9949188 L82.8463248,29.9949188 L82.8463248,25.6861556 L93.2029271,25.6861556 C93.4837692,24.1354582 93.4837692,22.5436773 93.2029271,20.9896371 Z M112.389808,34.2735976 C110.798285,35.6892385 108.711918,36.394552 106.13238,36.394552 L102.777142,36.394552 L102.777142,43.9557796 C100.905185,44.2716725 98.9935085,44.2716725 97.1215511,43.9557796 L97.1215511,20.9913085 L106.13238,20.9913085 C108.711918,20.9913085 110.798285,21.6982933 112.389808,23.1122629 C113.979659,24.5228898 114.79381,26.3964831 114.79381,28.6912589 C114.79381,30.987706 113.979659,32.8612993 112.389808,34.2735976 Z M109.032898,28.6912589 C109.032898,26.7106986 107.795789,25.6911697 106.134052,25.6911697 L102.778814,25.6911697 L102.778814,31.6946908 L106.134052,31.6946908 C107.795789,31.6946908 109.032898,30.6701478 109.032898,28.6912589 Z M124.511797,43.9557796 L124.511797,25.6911697 L133.982362,25.6911697 C134.264894,24.1367197 134.264894,22.5440871 133.982362,20.9896371 L118.856206,20.9896371 L118.856206,43.9557796 C120.730258,44.2716664 122.637745,44.2716664 124.511797,43.9557796 Z M143.345934,34.4507616 L143.345934,20.9913085 C141.47482,20.6720673 139.563129,20.6720673 137.692015,20.9913085 L137.692015,43.9557796 C139.15389,44.2031421 140.646951,44.2031421 142.108826,43.9557796 L152.8165,30.4929838 L152.8165,43.9557796 C154.68888,44.2716664 156.596367,44.2716664 158.470419,43.9557796 L158.470419,20.9913085 C157.008544,20.743946 155.515483,20.743946 154.053608,20.9913085 L143.345934,34.4507616 Z M175.36029,43.9557796 L175.36029,36.1839608 L173.168603,36.1839608 L168.114848,43.9557796 C167.304041,44.0961737 166.242468,44.1680422 165.007032,44.1680422 C163.769923,44.1680422 162.781908,44.0961737 161.967757,43.9557796 L167.551462,35.3365818 C164.831496,34.0981049 163.169759,31.6612636 163.169759,28.5859633 C163.169759,26.3246147 163.947131,24.4877913 165.501875,23.1122629 C167.093398,21.6982933 169.142985,20.9913085 171.722523,20.9913085 L181.017553,20.9913085 L181.017553,43.9557796 C179.145032,44.27164 177.232812,44.27164 175.36029,43.9557796 Z M175.36029,31.4824282 L175.36029,25.6911697 L171.827845,25.6911697 C170.167779,25.6911697 168.930671,26.71237 168.930671,28.5842919 C168.930671,30.4562139 170.167779,31.4824282 171.827845,31.4824282 L175.36029,31.4824282 Z" transform="translate(60.73 1)"/>
    <g fill="#F43F54">
      <polygon points="29.58 30.818 22.404 23.643 29.58 16.468 29.58 8.304 14.237 23.641 29.58 38.98"/>
      <path d="M0.885931054,46.7392857 L0.885931054,0.548214286 L47.0847349,0.548214286 L47.0847349,46.7392857 L0.885931054,46.7392857 Z M41.3083215,6.32142857 L6.65877211,6.32142857 L6.65877211,40.9642857 L41.3083215,40.9642857 L41.3083215,6.32142857 Z"/>
    </g>
  </g>
</svg>
